<?xml version="1.0" standalone="no"?>
<!DOCTYPE svg PUBLIC "-//W3C//DTD SVG 1.1//EN" "http://www.w3.org/Graphics/SVG/1.1/DTD/svg11.dtd" >
<svg xmlns="http://www.w3.org/2000/svg">
<metadata>
This is a custom SVG webfont generated by Fontspring.
</metadata>
<defs>
<font id="RamaGothicEBold" horiz-adv-x="815" >
<font-face units-per-em="2048" ascent="1638" descent="-410" />
<missing-glyph horiz-adv-x="421" />
<glyph unicode=" "  horiz-adv-x="421" />
<glyph unicode="&#x09;" horiz-adv-x="421" />
<glyph unicode="&#xa0;" horiz-adv-x="421" />
<glyph unicode="!" horiz-adv-x="446" d="M78 0v268h293v-268h-293zM377 926l-62 -557h-184l-63 557v508h309v-508z" />
<glyph unicode="&#x22;" horiz-adv-x="786" d="M717 1198l-39 -473h-193l-39 473v236h271v-236zM340 1198l-39 -473h-192l-39 473v236h270v-236z" />
<glyph unicode="#" d="M66 883l22 215h107l34 336h187l-37 -336h137l35 336h186l-37 -336h109l-23 -215h-108l-35 -332h107l-23 -215h-106l-33 -336h-187l35 336h-135l-35 -336h-186l35 336h-107l23 215h106l35 332h-106zM356 883l-34 -332h137l33 332h-136z" />
<glyph unicode="$" d="M362 -100v100q-330 23 -329 399v133h276v-174q0 -100 86 -100t86 100v25q0 74 -46 127t-111.5 94t-132 91t-112.5 142.5t-46 221.5v10q0 164 83 257t246 104v102h89v-102q330 -23 329 -400v-108h-274v151q0 98 -88 98q-86 0 -86 -98v-2q0 -53 24.5 -96t64.5 -75t88 -62.5 t95 -68.5t87 -85t64.5 -122t24.5 -169v-33q0 -336 -329 -360v-100h-89z" />
<glyph unicode="%" horiz-adv-x="1445" d="M307 0l647 1434h185l-650 -1434h-182zM1399 690v-463q0 -127 -69.5 -189.5t-184.5 -62.5t-183.5 62.5t-68.5 189.5v463q0 127 68.5 189.5t183.5 62.5t184.5 -62.5t69.5 -189.5zM1202 209v500q0 66 -57 65q-55 0 -55 -65v-500q0 -63 55 -64q57 1 57 64zM553 1206v-463 q0 -127 -69.5 -189t-184.5 -62t-183.5 62t-68.5 189v463q0 127 68.5 189.5t183.5 62.5t184.5 -62.5t69.5 -189.5zM356 725v500q0 66 -57 65q-55 0 -55 -65v-500q0 -63 55 -63q57 0 57 63z" />
<glyph unicode="&#x26;" horiz-adv-x="1124" d="M645 836q147 -315 176 -428q25 74 25 180v286h235v-251q0 -248 -98 -408q23 -8 55 -8q43 0 72 14v-221q-53 -23 -139 -23q-127 0 -215 43q-115 -45 -240 -45q-70 0 -115 6.5t-97 26t-94 63.5t-77 115l-55 111q-57 115 -58 217q0 203 250 328l17 8l-23 49q-72 156 -71 279 q0 109 84.5 194.5t236.5 85.5q156 0 228.5 -75.5t72.5 -196.5q0 -221 -170 -350zM553 199q18 0 51 4l-231 471q-63 -39 -64 -99q0 -51 27 -98l102 -192q47 -86 115 -86zM494 1206q0 -29 9 -58.5t27.5 -69.5t26.5 -64q59 68 59 170q0 100 -63 100q-59 0 -59 -78z" />
<glyph unicode="'" horiz-adv-x="407" d="M340 1198l-39 -473h-192l-39 473v236h270v-236z" />
<glyph unicode="(" horiz-adv-x="524" d="M51 1028q0 219 105.5 312.5t269.5 93.5h96v-201h-47q-82 0 -111.5 -37t-29.5 -125v-895q0 -88 29.5 -125t111.5 -37h47v-200h-96q-164 0 -269.5 94t-105.5 313v807z" />
<glyph unicode=")" horiz-adv-x="524" d="M473 1028v-807q0 -219 -105.5 -313t-269.5 -94h-96v200h47q82 0 111.5 37t29.5 125v895q0 88 -29.5 125t-111.5 37h-47v201h96q164 0 269.5 -93.5t105.5 -312.5z" />
<glyph unicode="*" horiz-adv-x="866" d="M0 850l279 139l-279 141l94 162l260 -172l-16 314h188l-16 -314l260 172l96 -162l-280 -141l280 -139l-96 -166l-260 172l16 -311h-188l16 311l-260 -172z" />
<glyph unicode="+" d="M518 313h-221v293h-246v221h246v291h221v-291h246v-221h-246v-293z" />
<glyph unicode="," horiz-adv-x="407" d="M68 0v367h272v-367l-250 -238l-22 17l143 221h-143z" />
<glyph unicode="-" horiz-adv-x="598" d="M547 645v-233h-496v233h496z" />
<glyph unicode="." horiz-adv-x="407" d="M68 0v367h272v-367h-272z" />
<glyph unicode="/" horiz-adv-x="774" d="M6 0l490 1434h272l-489 -1434h-273z" />
<glyph unicode="0" d="M764 344q0 -369 -356.5 -369t-356.5 369v746q0 369 356.5 368.5t356.5 -368.5v-746zM494 1130q0 96 -86 96.5t-86 -96.5v-827q0 -96 86 -96t86 96v827z" />
<glyph unicode="1" horiz-adv-x="507" d="M33 1085v234h108q70 0 102.5 29.5t45.5 85.5h135v-1434h-270v1085h-121z" />
<glyph unicode="2" horiz-adv-x="792" d="M313 874h-250v213q0 371 346.5 371t346.5 -371v-22q0 -131 -44 -234.5t-106.5 -168t-127 -121t-112 -124t-53.5 -147.5h424v-270h-694v221q0 96 24.5 176t63.5 136.5t85 104.5t93 92t86 89t63.5 103.5t24.5 128.5v75q0 100 -86 101q-84 0 -84 -101v-252z" />
<glyph unicode="3" horiz-adv-x="778" d="M43 528h250v-221q0 -100 84 -100q86 0 86 100v228q0 98 -86 98h-123v233h123q86 0 86 99v161q0 100 -86 101q-84 0 -84 -101v-157h-250v125q0 365 346 364.5t346 -364.5v-54q0 -238 -160 -290q160 -53 160 -291v-115q0 -369 -346 -369t-346 369v184z" />
<glyph unicode="4" horiz-adv-x="811" d="M786 518v-270h-88v-248h-270v248h-399v227l383 959h286v-916h88zM332 666l-53 -148h149v72q0 260 35 512q-51 -213 -131 -436z" />
<glyph unicode="5" horiz-adv-x="804" d="M61 518h252v-211q0 -100 84 -100q86 0 86 100v410q0 94 -80 94q-39 0 -64.5 -28.5t-25.5 -73.5v-74h-252v799h672v-271h-420v-243q63 125 205 124q236 0 236 -307v-391q0 -371 -346.5 -371t-346.5 371v172z" />
<glyph unicode="6" horiz-adv-x="806" d="M764 633v-289q0 -369 -356.5 -369t-356.5 369v743q0 371 346 371t346 -371v-61h-249v100q0 100 -86 100.5t-86 -100.5v-315q63 129 206 129q236 0 236 -307zM414 709q-41 0 -66.5 -29t-25.5 -76v-301q0 -96 86 -96t86 96v309q0 97 -80 97z" />
<glyph unicode="7" horiz-adv-x="745" d="M35 1163v271h690v-211l-393 -1223h-297l424 1163h-424z" />
<glyph unicode="8" horiz-adv-x="798" d="M756 1040q0 -227 -158 -290q158 -68 158 -291v-129q0 -354 -357 -355q-178 0 -267 85t-89 270v129q0 225 156 291q-156 63 -156 290v64q0 184 89 269t267.5 85t267.5 -85t89 -269v-64zM399 633q-47 0 -66.5 -24.5t-19.5 -78.5v-227q0 -96 86 -96q84 0 84 96v227 q0 53 -18.5 78t-65.5 25zM399 866q47 0 65.5 24.5t18.5 78.5v159q0 98 -84 99q-86 0 -86 -99v-159q0 -55 19.5 -79t66.5 -24z" />
<glyph unicode="9" horiz-adv-x="806" d="M43 821v269q0 369 354 368q358 0 359 -368v-744q0 -371 -346.5 -371t-346.5 371v82h250v-121q0 -100 84 -100q86 0 86 100v330q-63 -123 -204 -123q-236 0 -236 307zM483 850v280q0 96 -86 97q-84 0 -84 -97v-288q0 -96 80 -97q39 0 64.5 29t25.5 76z" />
<glyph unicode=":" horiz-adv-x="407" d="M68 672v366h272v-366h-272zM68 0v367h272v-367h-272z" />
<glyph unicode=";" horiz-adv-x="407" d="M68 0v367h272v-367l-250 -238l-22 17l143 221h-143zM68 672v366h272v-366h-272z" />
<glyph unicode="&#x3c;" d="M303 719l461 -199v-239l-713 325v221l713 328v-240z" />
<glyph unicode="=" d="M764 633v-219h-713v219h713zM764 1020v-221h-713v221h713z" />
<glyph unicode="&#x3e;" d="M51 520l461 199l-461 196v240l713 -328v-221l-713 -325v239z" />
<glyph unicode="?" horiz-adv-x="747" d="M279 874h-250v213q0 371 346 371q344 0 344 -371v-59q0 -98 -28.5 -172t-70.5 -118t-84 -83t-71 -94t-29 -127v-65h-180v110q0 98 19.5 168t48.5 109l57 74q29 36 48.5 87.5t19.5 120.5v88q0 100 -87 101q-84 0 -83 -101v-252zM211 0v276h270v-276h-270z" />
<glyph unicode="@" horiz-adv-x="1236" d="M51 717q0 160 24.5 282.5t84 231t175.5 168t283.5 59.5t283.5 -59.5t175.5 -168t84 -231t24.5 -282.5t-24.5 -283t-84 -231.5t-175.5 -168t-283.5 -59.5t-283.5 59.5t-175.5 168t-84 231.5t-24.5 283zM195 716.5q0 -108.5 9 -191.5t35.5 -166t71.5 -135t123 -85 t184.5 -33t183.5 33t123 85t72.5 135t34.5 165t8 192.5t-8 192.5t-34.5 165t-72.5 135.5t-123 85t-183.5 32.5t-184.5 -32.5t-123 -85t-71.5 -135.5t-35.5 -166t-9 -191.5zM848 897v-373q0 -133 18 -231h-170q-18 27 -24 94q-37 -109 -146 -108q-162 0 -161 204v31 q0 82 30.5 137.5t73.5 80t87 42t75 37.5t31 53v60q0 63 -54 63q-55 0 -55 -63v-99h-170v72q0 133 56.5 196.5t177 63.5t176 -64.5t55.5 -195.5zM662 510v168q-35 -18 -55.5 -31.5t-38 -40t-17.5 -61.5v-37q0 -61 51 -62q27 0 43.5 17.5t16.5 46.5z" />
<glyph unicode="A" horiz-adv-x="915" d="M592 0l-33 188h-235l-31 -188h-285l246 1434h401l248 -1434h-311zM381 557l-16 -113h153l-16 113q-37 262 -60 512q-18 -209 -61 -512z" />
<glyph unicode="B" horiz-adv-x="911" d="M74 1434h409q86 0 143.5 -11.5t114 -44t85 -106.5t28.5 -189v-59q0 -233 -133 -291q147 -68 147 -291v-82q0 -115 -30.5 -189.5t-90 -110t-120 -48t-144.5 -12.5h-409v1434zM457 614h-74v-344h74q55 0 77.5 26t22.5 81v137q0 57 -22.5 78.5t-77.5 21.5zM383 885h74 q55 0 77.5 21.5t22.5 78.5v78q0 57 -22.5 78.5t-77.5 21.5h-74v-278z" />
<glyph unicode="C" horiz-adv-x="876" d="M360 348q0 -104 93 -104q90 0 90 104v258h284v-215q0 -416 -385 -416q-391 0 -391 416v651q0 416 391 416q385 0 385 -416v-172h-284v215q0 104 -90 105q-92 0 -93 -105v-737z" />
<glyph unicode="D" horiz-adv-x="925" d="M74 0v1434h391q403 0 403 -385v-664q0 -385 -403 -385h-391zM455 1163h-72v-893h72q55 0 79.5 23.5t24.5 79.5v688q0 55 -24.5 78.5t-79.5 23.5z" />
<glyph unicode="E" horiz-adv-x="731" d="M383 610v-340h311v-270h-620v1434h610v-271h-301v-282h254v-271h-254z" />
<glyph unicode="F" horiz-adv-x="677" d="M383 580v-580h-309v1434h596v-271h-287v-315h238v-268h-238z" />
<glyph unicode="G" horiz-adv-x="888" d="M543 946v139q0 104 -90 105q-92 0 -93 -105v-737q0 -104 93 -104q90 0 90 104v236h-90v243h385v-827h-162l-27 115q-70 -139 -270 -140q-328 0 -328 416v651q0 416 391 416q385 0 385 -416v-96h-284z" />
<glyph unicode="H" horiz-adv-x="946" d="M383 610v-610h-309v1434h309v-553h180v553h309v-1434h-309v610h-180z" />
<glyph unicode="I" horiz-adv-x="450" d="M72 0v1434h309v-1434h-309z" />
<glyph unicode="J" horiz-adv-x="854" d="M793 369q0 -393 -392 -394q-387 0 -387 394v237h287v-262q0 -100 90 -100q92 0 92 100v1090h310v-1065z" />
<glyph unicode="K" horiz-adv-x="935" d="M381 1434v-609q45 131 147 383l99 226h299l-262 -623l266 -811h-318l-155 506l-76 -170v-336h-309v1434h309z" />
<glyph unicode="L" horiz-adv-x="669" d="M74 0v1434h309v-1164h287v-270h-596z" />
<glyph unicode="M" horiz-adv-x="1261" d="M633 645q12 131 47 359l80 430h428v-1434h-301v541q0 195 16 483q-41 -272 -76 -483l-104 -541h-231l-105 541q-35 211 -76 483q16 -289 17 -483v-541h-256v1434h434l78 -430q35 -199 49 -359z" />
<glyph unicode="N" horiz-adv-x="999" d="M672 1434h258v-1434h-377l-160 604l-78 332q14 -219 15 -334v-602h-258v1434h403l133 -486q39 -150 76 -334q-12 301 -12 336v484z" />
<glyph unicode="O" horiz-adv-x="903" d="M51 391v651q0 416 402 416q399 0 399 -416v-651q0 -416 -399 -416q-402 0 -402 416zM360 348q0 -104 93 -104q90 0 90 104v737q0 104 -90 105q-92 0 -93 -105v-737z" />
<glyph unicode="P" horiz-adv-x="892" d="M383 453v-453h-309v1434h389q401 0 401 -385v-211q0 -385 -401 -385h-80zM453 1163h-70v-440h70q55 0 78.5 23.5t23.5 80.5v234q0 57 -23.5 79.5t-78.5 22.5z" />
<glyph unicode="Q" horiz-adv-x="925" d="M895 252q18 0 33 12v-268q-33 -20 -88 -21q-119 0 -170 82q-88 -82 -248 -82q-371 0 -371 416v651q0 416 402 416q399 0 399 -416v-731q0 -59 43 -59zM360 1085v-737q0 -104 91 -104q92 0 92 104v737q0 104 -90 105q-93 -1 -93 -105z" />
<glyph unicode="R" horiz-adv-x="935" d="M422 575h-39v-575h-309v1434h409q86 0 145.5 -11.5t119 -44t90 -106.5t30.5 -189v-77q0 -238 -161 -297q162 -66 161 -314v-28q0 -123 10.5 -199t19.5 -99.5t34 -68.5h-330q-45 98 -45 297v88q0 113 -28.5 151.5t-106.5 38.5zM383 846h74q55 0 77.5 22.5t22.5 77.5v117 q0 57 -22.5 78.5t-77.5 21.5h-74v-317z" />
<glyph unicode="S" horiz-adv-x="849" d="M326 508v-160q0 -104 88 -104t88 104v33q0 61 -34 110.5t-85 80t-111.5 73.5t-111.5 91t-85 135t-34 202v8q0 377 385 377t385 -416v-81h-287v124q0 104 -86 105q-88 0 -88 -105v-12q0 -61 34 -110.5t85 -79t111.5 -73.5t111.5 -92t85 -135t34 -202v-31 q0 -182 -97.5 -278.5t-289.5 -96.5q-383 0 -383 416v117h285z" />
<glyph unicode="T" horiz-adv-x="737" d="M737 1434v-271h-213v-1163h-309v1163h-213v271h735z" />
<glyph unicode="U" horiz-adv-x="901" d="M373 344q0 -100 90 -100t90 100v1090h287v-1065q0 -393 -387 -394q-389 0 -390 394v1065h310v-1090z" />
<glyph unicode="V" horiz-adv-x="901" d="M328 1434l90 -557q29 -188 49 -410q20 221 49 410l88 557h289l-246 -1434h-387l-248 1434h316z" />
<glyph unicode="W" horiz-adv-x="1351" d="M1133 0h-371l-53 442q-20 176 -37 363q-23 -229 -39 -363l-51 -442h-363l-207 1434h318l55 -426q37 -276 51 -469q18 262 49 469l62 426h295l55 -426q31 -231 51 -469q16 225 49 469l56 426h288z" />
<glyph unicode="X" horiz-adv-x="894" d="M227 735l-202 699h315l61 -230q47 -176 62 -276q23 125 61 276l60 230h288l-204 -699l215 -735h-318l-71 270q-41 156 -62 275q-16 -115 -59 -275l-70 -270h-291z" />
<glyph unicode="Y" horiz-adv-x="919" d="M539 1092l84 342h288l-295 -992v-442h-309v436l-295 998h316l86 -342q45 -176 63 -299q17 113 62 299z" />
<glyph unicode="Z" horiz-adv-x="761" d="M43 1163v271h688v-199l-352 -965h352v-270h-700v195l352 968h-340z" />
<glyph unicode="[" horiz-adv-x="546" d="M354 1286v-1272h191v-200h-471v1675h471v-203h-191z" />
<glyph unicode="\" horiz-adv-x="774" d="M279 1434l489 -1434h-272l-490 1434h273z" />
<glyph unicode="]" horiz-adv-x="546" d="M193 14v1272h-191v203h471v-1675h-471v200h191z" />
<glyph unicode="^" d="M408 1161l-136 -411h-239l262 684h227l262 -684h-239z" />
<glyph unicode="_" horiz-adv-x="1024" d="M1024 -41v-133h-1024v133h1024z" />
<glyph unicode="`" horiz-adv-x="598" d="M358 1427l136 -270h-185l-207 270h256z" />
<glyph unicode="a" horiz-adv-x="808" d="M516 0q-18 35 -29 127q-27 -68 -82 -110t-133 -42q-236 0 -235 285v14q0 109 45 182.5t110.5 107.5t130 57.5t109.5 52t45 71.5v13q0 96 -82 96t-82 -96v-82h-250v43q0 367 342.5 366.5t342.5 -366.5v-373q0 -213 26 -346h-258zM477 307v168q-43 -18 -64.5 -28.5t-51 -31 t-42 -48t-12.5 -64.5v-10q0 -49 18.5 -68.5t59.5 -19.5t66.5 28.5t25.5 73.5z" />
<glyph unicode="b" horiz-adv-x="835" d="M340 750v-439q0 -47 25.5 -75.5t66.5 -28.5q78 0 78 96v455q0 96 -78 96q-41 0 -66.5 -28.5t-25.5 -75.5zM70 1434h270v-473q63 125 207 124q233 0 233 -307v-495q0 -307 -233 -308q-84 0 -142.5 46.5t-82.5 119.5l-39 -141h-213v1434z" />
<glyph unicode="c" horiz-adv-x="786" d="M743 633h-249v125q0 96 -86 96t-86 -96v-455q0 -96 86 -96t86 96v146h249v-105q0 -369 -346 -369t-346 369v373q0 369 346 368.5t346 -368.5v-84z" />
<glyph unicode="d" horiz-adv-x="835" d="M496 311v439q0 47 -26 75.5t-67 28.5q-78 0 -77 -96v-455q0 -96 77 -96q41 0 67 28.5t26 75.5zM535 0q-20 39 -27 129q-27 -70 -83 -112t-136 -42q-233 0 -234 308v495q0 307 234 307q139 0 207 -124v473h270v-1088q0 -213 27 -346h-258z" />
<glyph unicode="e" horiz-adv-x="790" d="M743 457h-421v-154q0 -96 86 -96t86 96v64h249v-23q0 -369 -346 -369t-346 369v373q0 369 346 368.5t346 -368.5v-260zM322 758v-107h172v107q0 96 -86 96t-86 -96z" />
<glyph unicode="f" horiz-adv-x="526" d="M373 1147v-86h157v-232h-157v-829h-273v829h-84v232h84v131q0 139 64.5 202.5t204.5 63.5q88 0 161 -24v-220q-33 16 -84 17q-73 0 -73 -84z" />
<glyph unicode="g" horiz-adv-x="860" d="M49 -92q0 104 80 145q-55 53 -55 148q0 133 102 188q-135 66 -135 281v98q0 180 84 248.5t264 68.5q219 0 295 -106q23 82 104 82q37 0 64 -8v-224q-29 10 -61 11q-39 0 -39 -49v-121q0 -180 -86 -249t-271 -69q-51 0 -73 2q-31 -12 -31 -45q0 -51 57 -51h213 q291 0 291 -266q0 -137 -83 -206t-267 -69h-180q-141 0 -207 46.5t-66 144.5zM479 799q0 96 -84 96t-84 -96v-160q0 -94 84 -94t84 94v160zM373 -135h86q70 0 96.5 15.5t26.5 54t-19.5 53t-62.5 14.5h-168q-74 0 -74 -68q0 -39 23.5 -54t91.5 -15z" />
<glyph unicode="h" horiz-adv-x="841" d="M340 0h-270v1434h270v-473q63 125 207 124q233 0 233 -307v-778h-270v758q0 96 -78 96q-41 0 -66.5 -29.5t-25.5 -74.5v-750z" />
<glyph unicode="i" horiz-adv-x="409" d="M340 0h-270v1061h270v-1061zM340 1196h-270v238h270v-238z" />
<glyph unicode="j" horiz-adv-x="409" d="M340 1196h-270v238h270v-238zM90 -276q-63 0 -104 14v207q16 -4 32 -4q51 0 52 57v1063h270v-1081q0 -135 -58.5 -195.5t-191.5 -60.5z" />
<glyph unicode="k" horiz-adv-x="825" d="M340 1434v-807q31 76 100 225l107 209h256l-221 -451l239 -610h-280l-135 367l-66 -117v-250h-270v1434h270z" />
<glyph unicode="l" horiz-adv-x="409" d="M340 0h-270v1434h270v-1434z" />
<glyph unicode="m" horiz-adv-x="1267" d="M936 0v758q0 53 -17.5 74.5t-56.5 21.5q-41 0 -64.5 -28.5t-23.5 -75.5v-750h-272v758q0 53 -17.5 74.5t-56.5 21.5q-41 0 -64.5 -28.5t-23.5 -75.5v-750h-270v1061h252v-146q23 76 80 123t141 47q166 0 213 -157q25 70 82 113.5t139 43.5q229 0 229 -307v-778h-270z" />
<glyph unicode="n" horiz-adv-x="841" d="M340 0h-270v1061h252v-148q23 76 81 124t144 48q233 0 233 -307v-778h-270v758q0 96 -78 96q-41 0 -66.5 -28.5t-25.5 -75.5v-750z" />
<glyph unicode="o" d="M764 344q0 -369 -356.5 -369t-356.5 369v373q0 369 356.5 368.5t356.5 -368.5v-373zM494 758q0 96 -86 96t-86 -96v-455q0 -96 86 -96t86 96v455z" />
<glyph unicode="p" horiz-adv-x="835" d="M340 750v-439q0 -47 25.5 -75.5t66.5 -28.5q78 0 78 96v455q0 96 -78 96q-41 0 -66.5 -28.5t-25.5 -75.5zM340 -258h-270v1319h252v-148q23 76 81 124t144 48q233 0 233 -307v-495q0 -307 -233 -308q-145 0 -207 125v-358z" />
<glyph unicode="q" horiz-adv-x="835" d="M496 311v439q0 47 -26 75.5t-67 28.5q-78 0 -77 -96v-455q0 -96 77 -96q41 0 67 28.5t26 75.5zM766 -258h-270v358q-66 -125 -207 -125q-233 0 -234 308v495q0 307 234 307q84 0 142 -46t81 -119l39 141h215v-1319z" />
<glyph unicode="r" horiz-adv-x="784" d="M340 0h-270v1061h252v-146q23 76 80 123t143 47q106 0 158.5 -66.5t52.5 -230.5v-286h-250v256q0 53 -18.5 74.5t-57.5 21.5q-41 0 -65.5 -28.5t-24.5 -75.5v-750z" />
<glyph unicode="s" horiz-adv-x="774" d="M461 285v20q0 43 -43 68.5t-104.5 44t-123 48.5t-104.5 103.5t-43 186.5v6q0 158 91 240.5t253 82.5q342 0 342 -344v-28h-250v55q0 102 -82 102q-84 0 -84 -94v-16q0 -43 43 -68.5t104.5 -44t123 -49.5t104.5 -103.5t43 -185.5v-10q0 -158 -91 -241t-255 -83 q-342 0 -342 344v35h252v-61q0 -102 82 -103q84 1 84 95z" />
<glyph unicode="t" horiz-adv-x="524" d="M354 -14q-135 0 -194.5 61.5t-59.5 202.5v579h-84v232h84v227h273v-227h139v-232h-139v-536q0 -68 61 -68q53 0 78 4v-229q-66 -14 -158 -14z" />
<glyph unicode="u" horiz-adv-x="841" d="M502 311v750h270v-715q0 -213 27 -346h-258q-20 39 -27 129q-27 -70 -83 -112t-136 -42q-233 0 -234 308v778h271v-758q0 -96 78 -96q41 0 66.5 28.5t25.5 75.5z" />
<glyph unicode="v" horiz-adv-x="778" d="M446 672l72 389h256l-215 -1061h-340l-217 1061h281l69 -389q33 -193 47 -367q16 205 47 367z" />
<glyph unicode="w" horiz-adv-x="1214" d="M758 1061l63 -393q16 -98 35 -328q10 180 35 328l63 393h256l-190 -1061h-330l-45 281q-29 186 -39 317q-14 -178 -39 -317l-45 -281h-325l-195 1061h281l63 -393q25 -147 35 -328q16 203 37 328l61 393h279z" />
<glyph unicode="x" horiz-adv-x="765" d="M465 971l27 90h256l-177 -506l193 -555h-287l-45 139q-33 100 -63 254q-23 -133 -62 -254l-45 -139h-258l191 555l-177 506h285l27 -90q53 -182 67 -271q15 89 68 271z" />
<glyph unicode="y" horiz-adv-x="778" d="M80 -264v207q68 -10 90 -11q47 0 59 41q6 16 0 56l-227 1032h281l69 -389q31 -162 47 -367q16 205 47 367l72 389h256l-227 -1118q-23 -113 -96.5 -166t-229.5 -53q-92 0 -141 12z" />
<glyph unicode="z" horiz-adv-x="704" d="M53 829v232h623v-201l-348 -629h348v-231h-647v201l348 628h-324z" />
<glyph unicode="{" horiz-adv-x="571" d="M135 408q0 51 -16.5 68.5t-63.5 17.5h-53v237h53q47 0 63.5 18.5t16.5 67.5q0 47 -15.5 143.5t-15.5 157.5q0 98 30 166t86 100.5t116.5 45t140.5 12.5h94v-203h-45q-80 0 -111.5 -32.5t-31.5 -100.5q0 -47 16.5 -129t16.5 -127q0 -188 -129 -238q129 -49 129 -237 q0 -45 -16.5 -127t-16.5 -129q0 -68 31.5 -100.5t111.5 -32.5h45v-203h-94q-80 0 -140.5 12t-116.5 45t-86 100.5t-30 165.5q0 61 15.5 158t15.5 144z" />
<glyph unicode="|" horiz-adv-x="598" d="M172 -258v1692h252v-1692h-252z" />
<glyph unicode="}" horiz-adv-x="571" d="M436 408q0 -47 15.5 -143.5t15.5 -158.5q0 -98 -29.5 -165.5t-86 -100.5t-117 -45t-140.5 -12h-94v203h45q80 0 111.5 32.5t31.5 100.5q0 47 -16 129t-16 127q0 188 129 237q-129 49 -129 238q0 45 16 127t16 129q0 68 -31.5 100.5t-111.5 32.5h-45v203h94 q80 0 140.5 -12.5t117 -45t86 -100t29.5 -166.5q0 -61 -15.5 -157.5t-15.5 -143.5q0 -49 16.5 -67.5t63.5 -18.5h53v-237h-53q-47 0 -63.5 -17.5t-16.5 -68.5z" />
<glyph unicode="~" d="M764 874v-221q-84 -94 -193 -94q-61 0 -179 42t-175 42q-92 0 -166 -84v219q86 94 191 94q59 0 177 -42t175 -42q94 0 170 86z" />
<glyph unicode="&#xa1;" horiz-adv-x="446" d="M369 1157v-268h-293v268h293zM70 231l61 557h184l64 -557v-507h-309v507z" />
<glyph unicode="&#xa2;" d="M752 819h-250v119q0 98 -84 98q-86 0 -86 -98v-442q0 -98 86 -99q84 0 84 99v139h250v-100q0 -344 -301 -367v-119h-86v119q-303 23 -304 367v364q0 344 304 367v118h86v-118q301 -23 301 -367v-80z" />
<glyph unicode="&#xa3;" d="M705 442h-244q-25 -111 -129 -172h446v-270h-751v242q104 27 156.5 72.5t64.5 127.5h-191v183h166q-16 33 -69.5 108.5t-85 156.5t-31.5 191v37q0 160 96 250t277 90q373 0 372 -395v-182h-274v221q0 96 -86 96q-88 0 -88 -96v-35q0 -121 59.5 -244t69.5 -198h242v-183z " />
<glyph unicode="&#xa4;" d="M240 717q0 -74 48 -123t120 -49q74 0 120.5 49t46.5 123t-47 123t-120 49q-72 0 -120 -49t-48 -123zM106 717q0 90 52 164l-125 112l100 99l111 -125q74 51 164 51q92 0 165 -51l111 125l98 -99l-123 -112q51 -78 52 -164q0 -84 -52 -166l123 -111l-98 -98l-111 125 q-74 -51 -165 -51q-90 0 -164 51l-111 -125l-100 98l125 111q-52 76 -52 166z" />
<glyph unicode="&#xa5;" d="M473 1092l78 342h250l-230 -867h199v-110h-227v-125h227v-111h-227v-221h-271v221h-227v111h227v125h-227v110h191l-224 867h273l80 -342q37 -154 55 -299q12 115 53 299z" />
<glyph unicode="&#xa6;" horiz-adv-x="598" d="M172 723v711h252v-711h-252zM172 -258v711h252v-711h-252z" />
<glyph unicode="&#xa7;" horiz-adv-x="829" d="M317 272v-122q0 -98 86 -99q88 0 89 90v19q0 61 -46.5 102t-113 68.5t-132 62.5t-111.5 103.5t-46 171.5v2q0 164 109 225q-106 100 -107 244v10q0 147 98.5 228t270.5 81t269 -82t97 -235v-109h-268v123q0 98 -86 98q-88 0 -88 -90v-18q0 -61 46 -102.5t111.5 -69 t132 -61t112.5 -103.5t46 -172v-2q0 -162 -110 -227q106 -96 106 -242v-10q0 -147 -97 -228.5t-269 -81.5q-174 0 -271.5 82t-97.5 236v108h270zM588 571q0 39 -32 75t-67.5 55.5t-108.5 55.5t-110 56q-29 -29 -28 -76v-4q0 -39 31.5 -74.5t66.5 -55t108.5 -55.5t108.5 -56 q27 27 31 75v4z" />
<glyph unicode="&#xa8;" horiz-adv-x="598" d="M250 1178h-244v233h244v-233zM592 1178h-244v233h244v-233z" />
<glyph unicode="&#xa9;" horiz-adv-x="1236" d="M51 717q0 160 24.5 282.5t84 231t175.5 168t283.5 59.5t283.5 -59.5t175.5 -168t84 -231t24.5 -282.5t-24.5 -283t-84 -231.5t-175.5 -168t-283.5 -59.5t-283.5 59.5t-175.5 168t-84 231.5t-24.5 283zM195 716.5q0 -108.5 9 -191.5t35.5 -166t71.5 -135t123 -85 t184.5 -33t183.5 33t123 85t72.5 135t34.5 165t8 192.5t-8 192.5t-34.5 165t-72.5 135.5t-123 85t-183.5 32.5t-184.5 -32.5t-123 -85t-71.5 -135.5t-35.5 -166t-9 -191.5zM571 494q0 -61 50 -62q51 0 51 62v124h170v-98q0 -250 -227.5 -250t-227.5 250v381q0 250 227.5 250 t227.5 -250v-98h-170v125q0 61 -51 61q-49 0 -50 -61v-434z" />
<glyph unicode="&#xaa;" horiz-adv-x="600" d="M383 696q-14 23 -23 92q-43 -109 -153 -108q-168 0 -168 205v12q0 74 31.5 126t78 75.5t92.5 41t77.5 36t31.5 45.5v4q0 66 -55 65.5t-55 -65.5v-47h-183v20q0 260 246 260q244 0 244 -260v-270q0 -137 20 -232h-184zM39 399v205h518v-205h-518zM238 918v-7q0 -63 53 -63 q27 0 43 18.5t16 46.5v123q-39 -18 -57.5 -28.5t-36.5 -34.5t-18 -55z" />
<glyph unicode="&#xab;" horiz-adv-x="946" d="M414 530l252 531h266l-250 -531l250 -530h-266zM14 530l252 531h266l-249 -531l249 -530h-266z" />
<glyph unicode="&#xac;" d="M764 827v-514h-221v293h-492v221h713z" />
<glyph unicode="&#xad;" horiz-adv-x="598" d="M547 645v-233h-496v233h496z" />
<glyph unicode="&#xae;" horiz-adv-x="1236" d="M51 717q0 160 24.5 282.5t84 231t175.5 168t283.5 59.5t283.5 -59.5t175.5 -168t84 -231t24.5 -282.5t-24.5 -283t-84 -231.5t-175.5 -168t-283.5 -59.5t-283.5 59.5t-175.5 168t-84 231.5t-24.5 283zM195 716.5q0 -108.5 9 -191.5t35.5 -166t71.5 -135t123 -85 t184.5 -33t183.5 33t123 85t72.5 135t34.5 165t8 192.5t-8 192.5t-34.5 165t-72.5 135.5t-123 85t-183.5 32.5t-184.5 -32.5t-123 -85t-71.5 -135.5t-35.5 -166t-9 -191.5zM383 1130h252q104 0 167.5 -44t63.5 -166v-37q0 -143 -94 -178q94 -39 94 -183v-6q0 -82 5.5 -127 t11.5 -58.5t22 -37.5h-198q-27 70 -27 176v55q0 102 -72 103h-41v-334h-184v837zM567 969v-183h60q31 0 42 13.5t11 48.5v65q0 31 -11.5 43.5t-41.5 12.5h-60z" />
<glyph unicode="&#xaf;" horiz-adv-x="598" d="M573 1186h-548v188h548v-188z" />
<glyph unicode="&#xb0;" horiz-adv-x="659" d="M330 1413q123 0 207 -83t84 -206q0 -121 -85 -203.5t-206 -82.5t-206 83t-85 203q0 123 84 206t207 83zM330 1237q-47 0 -78 -31.5t-31 -81t31 -79t78 -29.5t77.5 29.5t30.5 79t-30.5 81t-77.5 31.5z" />
<glyph unicode="&#xb1;" d="M764 455v-222h-713v222h246v231h-246v219h246v291h221v-291h246v-219h-246v-231h246z" />
<glyph unicode="&#xb2;" horiz-adv-x="600" d="M244 1407v-129h-183v113q0 129 66 190t178 61q115 0 180.5 -60t65.5 -181v-23q0 -78 -27.5 -140t-67.5 -102t-81 -75t-74 -80t-41 -98h272v-183h-471v134q0 100 46.5 181t100.5 126t100 108.5t46 134.5v23q0 68 -55 68t-55 -68z" />
<glyph unicode="&#xb3;" horiz-adv-x="600" d="M227 1094v163h64q31 0 43 13.5t12 46.5v92q0 66 -55 66t-55 -66v-78h-179v66q0 246 242 245q113 0 179.5 -59t66.5 -186v-31q0 -154 -103 -192q102 -35 103 -193v-53q0 -127 -66.5 -189.5t-179.5 -62.5q-242 0 -242 252v86h179v-103q0 -68 55 -67.5t55 67.5v117 q0 37 -12 51.5t-43 14.5h-64z" />
<glyph unicode="&#xb4;" horiz-adv-x="598" d="M102 1157l136 270h256l-207 -270h-185z" />
<glyph unicode="&#xb5;" horiz-adv-x="849" d="M70 -258v1319h270v-758q0 -96 78 -96q41 0 66.5 28.5t25.5 75.5v750h270v-715q0 -213 27 -346h-258q-18 37 -29 125q-47 -125 -180 -148v-235h-270z" />
<glyph unicode="&#xb6;" horiz-adv-x="1042" d="M969 1434v-1567h-213v1335h-127v-1335h-213v487h-4q-385 0 -385 367v344q0 369 385 369h557z" />
<glyph unicode="&#xb7;" horiz-adv-x="407" d="M68 535v366h272v-366h-272z" />
<glyph unicode="&#xb8;" horiz-adv-x="598" d="M346 -156q0 27 -25.5 37t-97.5 6v113h105v-61q117 0 164 -19.5t47 -83.5q0 -113 -252 -112q-117 0 -175.5 29.5t-52.5 101.5h160q-4 -29 10.5 -42.5t53.5 -13.5t51 11t12 34z" />
<glyph unicode="&#xb9;" horiz-adv-x="600" d="M145 1534h84q61 0 89 21.5t40 62.5h95v-918h-197v650h-111v184z" />
<glyph unicode="&#xba;" horiz-adv-x="600" d="M553 940q0 -260 -252 -260q-254 0 -254 260v258q0 260 254 260q252 0 252 -260v-258zM47 399v205h506v-205h-506zM354 1225q0 66 -53 65q-55 0 -55 -65v-312q0 -66 55 -65q53 0 53 65v312z" />
<glyph unicode="&#xbb;" horiz-adv-x="946" d="M680 1061l252 -531l-252 -530h-266l250 530l-250 531h266zM281 1061l251 -531l-251 -530h-267l250 530l-250 531h267z" />
<glyph unicode="&#xbc;" horiz-adv-x="1282" d="M225 0l647 1434h185l-649 -1434h-183zM63 1350h84q61 0 89 21.5t40 62.5h95v-918h-197v649h-111v185zM1204 918v-580h49v-176h-49v-162h-192v162h-293v149l252 607h233zM936 424l-35 -86h111v70q0 143 24 303q-59 -187 -100 -287z" />
<glyph unicode="&#xbd;" horiz-adv-x="1363" d="M225 0l647 1434h185l-649 -1434h-183zM63 1350h84q61 0 89 21.5t40 62.5h95v-918h-197v649h-111v185zM1008 707v-129h-183v112q0 129 65.5 190.5t178.5 61.5q115 0 180.5 -60.5t65.5 -181.5v-22q0 -78 -27.5 -140.5t-67.5 -102.5t-81 -74.5t-74 -79.5t-41 -99h272v-182 h-471v133q0 100 46.5 181t100.5 126t100 108.5t46 135.5v23q0 68 -55 68t-55 -68z" />
<glyph unicode="&#xbe;" horiz-adv-x="1363" d="M307 0l647 1434h185l-650 -1434h-182zM1286 918v-580h49v-176h-49v-162h-192v162h-293v149l252 607h233zM1018 424l-35 -86h111v70q0 143 24 303q-59 -187 -100 -287zM227 909v164h64q31 0 43 13.5t12 46.5v92q0 66 -55 65.5t-55 -65.5v-78h-179v65q0 246 242 246 q113 0 179.5 -59.5t66.5 -186.5v-30q0 -154 -103 -193q102 -35 103 -192v-54q0 -127 -66.5 -189t-179.5 -62q-242 0 -242 251v86h179v-102q0 -68 55 -68t55 68v117q0 37 -12 51t-43 14h-64z" />
<glyph unicode="&#xbf;" horiz-adv-x="747" d="M469 283h250v-213q0 -371 -346 -371q-344 0 -344 371v59q0 98 28.5 172t70.5 118t84 83t70.5 94t28.5 127v65h181v-110q0 -98 -19.5 -168t-48.5 -109l-57 -74q-29 -36 -48.5 -87.5t-19.5 -120.5v-88q0 -100 86 -101q84 0 84 101v252zM537 1157v-276h-271v276h271z" />
<glyph unicode="&#xc0;" horiz-adv-x="915" d="M592 0l-33 188h-235l-31 -188h-285l246 1434h401l248 -1434h-311zM381 557l-16 -113h153l-16 113q-37 262 -60 512q-18 -209 -61 -512zM463 1769l135 -270h-184l-207 270h256z" />
<glyph unicode="&#xc1;" horiz-adv-x="915" d="M592 0l-33 188h-235l-31 -188h-285l246 1434h401l248 -1434h-311zM381 557l-16 -113h153l-16 113q-37 262 -60 512q-18 -209 -61 -512zM317 1499l136 270h256l-207 -270h-185z" />
<glyph unicode="&#xc2;" horiz-adv-x="915" d="M592 0l-33 188h-235l-31 -188h-285l246 1434h401l248 -1434h-311zM381 557l-16 -113h153l-16 113q-37 262 -60 512q-18 -209 -61 -512zM551 1499l-92 111l-92 -111h-203l186 270h217l185 -270h-201z" />
<glyph unicode="&#xc3;" horiz-adv-x="915" d="M592 0l-33 188h-235l-31 -188h-285l246 1434h401l248 -1434h-311zM381 557l-16 -113h153l-16 113q-37 262 -60 512q-18 -209 -61 -512zM621 1753h135q-2 -246 -178 -246q-55 0 -126 29t-102 29q-49 0 -53 -68h-137q2 244 178 244q55 0 127 -27.5t100 -27.5q52 -1 56 67z " />
<glyph unicode="&#xc4;" horiz-adv-x="915" d="M592 0l-33 188h-235l-31 -188h-285l246 1434h401l248 -1434h-311zM381 557l-16 -113h153l-16 113q-37 262 -60 512q-18 -209 -61 -512zM408 1520h-244v233h244v-233zM750 1520h-244v233h244v-233z" />
<glyph unicode="&#xc5;" horiz-adv-x="915" d="M592 0l-33 188h-235l-31 -188h-285l246 1434h401l248 -1434h-311zM381 557l-16 -113h153l-16 113q-37 262 -60 512q-18 -209 -61 -512zM272 1675q0 82 54.5 134.5t132.5 52.5q76 0 130 -52.5t54 -134.5q0 -80 -54 -132t-130 -52q-78 0 -132.5 52t-54.5 132zM395 1675.5 q0 -28.5 17.5 -48t46.5 -19.5q27 0 45 19.5t18 48t-18.5 48t-44.5 19.5q-29 0 -46.5 -19.5t-17.5 -48z" />
<glyph unicode="&#xc6;" horiz-adv-x="1189" d="M532 0v188h-194l-51 -188h-285l387 1434h754v-271h-301v-282h254v-269h-254v-342h311v-270h-621zM420 504l-12 -60h124v201q0 115 13 442q-18 -109 -66.5 -321.5t-58.5 -261.5z" />
<glyph unicode="&#xc7;" horiz-adv-x="876" d="M489 -156q0 27 -25.5 37t-96.5 6v93q-315 37 -316 411v651q0 416 391 416q385 0 385 -416v-172h-284v215q0 104 -90 105q-92 0 -93 -105v-737q0 -104 93 -104q90 0 90 104v258h284v-215q0 -397 -356 -414v-38q117 0 164 -19.5t47 -83.5q0 -113 -252 -112 q-117 0 -175 29.5t-52 101.5h159q-4 -29 10.5 -42.5t53.5 -13.5t51 11t12 34z" />
<glyph unicode="&#xc8;" horiz-adv-x="731" d="M383 610v-340h311v-270h-620v1434h610v-271h-301v-282h254v-271h-254zM383 1769l135 -270h-184l-207 270h256z" />
<glyph unicode="&#xc9;" horiz-adv-x="731" d="M383 610v-340h311v-270h-620v1434h610v-271h-301v-282h254v-271h-254zM240 1499l135 270h256l-207 -270h-184z" />
<glyph unicode="&#xca;" horiz-adv-x="731" d="M383 610v-340h311v-270h-620v1434h610v-271h-301v-282h254v-271h-254zM471 1499l-92 111l-92 -111h-203l186 270h217l185 -270h-201z" />
<glyph unicode="&#xcb;" horiz-adv-x="731" d="M383 610v-340h311v-270h-620v1434h610v-271h-301v-282h254v-271h-254zM330 1520h-244v233h244v-233zM672 1520h-244v233h244v-233z" />
<glyph unicode="&#xcc;" horiz-adv-x="450" d="M72 0v1434h309v-1434h-309zM231 1769l136 -270h-185l-207 270h256z" />
<glyph unicode="&#xcd;" horiz-adv-x="450" d="M72 0v1434h309v-1434h-309zM86 1499l135 270h256l-207 -270h-184z" />
<glyph unicode="&#xce;" horiz-adv-x="450" d="M72 0v1434h309v-1434h-309zM319 1499l-92 111l-92 -111h-203l187 270h217l184 -270h-201z" />
<glyph unicode="&#xcf;" horiz-adv-x="450" d="M72 0v1434h309v-1434h-309zM176 1520h-244v233h244v-233zM518 1520h-244v233h244v-233z" />
<glyph unicode="&#xd0;" horiz-adv-x="927" d="M76 0v635h-62v221h62v578h391q403 0 403 -385v-664q0 -385 -403 -385h-391zM457 1163h-72v-307h94v-221h-94v-365h72q55 0 79.5 23.5t24.5 79.5v688q0 55 -24.5 78.5t-79.5 23.5z" />
<glyph unicode="&#xd1;" horiz-adv-x="999" d="M672 1434h258v-1434h-377l-160 604l-78 332q14 -219 15 -334v-602h-258v1434h403l133 -486q39 -150 76 -334q-12 301 -12 336v484zM662 1753h135q-2 -246 -179 -246q-55 0 -125.5 29t-101.5 29q-49 0 -53 -68h-137q2 244 178 244q55 0 127 -27.5t100 -27.5q52 -1 56 67z " />
<glyph unicode="&#xd2;" horiz-adv-x="903" d="M51 391v651q0 416 402 416q399 0 399 -416v-651q0 -416 -399 -416q-402 0 -402 416zM360 348q0 -104 93 -104q90 0 90 104v737q0 104 -90 105q-92 0 -93 -105v-737zM455 1769l135 -270h-184l-207 270h256z" />
<glyph unicode="&#xd3;" horiz-adv-x="903" d="M51 391v651q0 416 402 416q399 0 399 -416v-651q0 -416 -399 -416q-402 0 -402 416zM360 348q0 -104 93 -104q90 0 90 104v737q0 104 -90 105q-92 0 -93 -105v-737zM311 1499l135 270h256l-206 -270h-185z" />
<glyph unicode="&#xd4;" horiz-adv-x="903" d="M51 391v651q0 416 402 416q399 0 399 -416v-651q0 -416 -399 -416q-402 0 -402 416zM360 348q0 -104 93 -104q90 0 90 104v737q0 104 -90 105q-92 0 -93 -105v-737zM543 1499l-92 111l-93 -111h-202l186 270h217l184 -270h-200z" />
<glyph unicode="&#xd5;" horiz-adv-x="903" d="M51 391v651q0 416 402 416q399 0 399 -416v-651q0 -416 -399 -416q-402 0 -402 416zM360 348q0 -104 93 -104q90 0 90 104v737q0 104 -90 105q-92 0 -93 -105v-737zM612 1753h136q-2 -246 -179 -246q-55 0 -125.5 29t-101.5 29q-49 0 -53 -68h-137q2 244 178 244 q55 0 126.5 -27.5t100.5 -27.5q51 -1 55 67z" />
<glyph unicode="&#xd6;" horiz-adv-x="903" d="M51 391v651q0 416 402 416q399 0 399 -416v-651q0 -416 -399 -416q-402 0 -402 416zM360 348q0 -104 93 -104q90 0 90 104v737q0 104 -90 105q-92 0 -93 -105v-737zM401 1520h-243v233h243v-233zM743 1520h-243v233h243v-233z" />
<glyph unicode="&#xd7;" d="M616 1079l156 -155l-217 -207l217 -207l-156 -158l-210 215l-205 -213l-156 156l213 207l-213 207l156 155l207 -213z" />
<glyph unicode="&#xd8;" horiz-adv-x="903" d="M51 391v651q0 416 402 416q90 0 153 -20l29 80l199 -70l-50 -135q68 -100 68 -271v-651q0 -416 -399 -416q-84 0 -152 19l-29 -78l-200 70l49 133q-70 100 -70 272zM360 1085v-417l148 508q-20 14 -55 14q-93 -1 -93 -105zM453 244q90 0 90 104v408l-146 -500 q21 -12 56 -12z" />
<glyph unicode="&#xd9;" horiz-adv-x="901" d="M373 344q0 -100 90 -100t90 100v1090h287v-1065q0 -393 -387 -394q-389 0 -390 394v1065h310v-1090zM455 1769l135 -270h-184l-207 270h256z" />
<glyph unicode="&#xda;" horiz-adv-x="901" d="M373 344q0 -100 90 -100t90 100v1090h287v-1065q0 -393 -387 -394q-389 0 -390 394v1065h310v-1090zM309 1499l135 270h256l-206 -270h-185z" />
<glyph unicode="&#xdb;" horiz-adv-x="901" d="M373 344q0 -100 90 -100t90 100v1090h287v-1065q0 -393 -387 -394q-389 0 -390 394v1065h310v-1090zM541 1499l-92 111l-93 -111h-202l186 270h217l184 -270h-200z" />
<glyph unicode="&#xdc;" horiz-adv-x="901" d="M373 344q0 -100 90 -100t90 100v1090h287v-1065q0 -393 -387 -394q-389 0 -390 394v1065h310v-1090zM399 1520h-243v233h243v-233zM741 1520h-243v233h243v-233z" />
<glyph unicode="&#xdd;" horiz-adv-x="919" d="M539 1092l84 342h288l-295 -992v-442h-309v436l-295 998h316l86 -342q45 -176 63 -299q17 113 62 299zM319 1499l136 270h256l-207 -270h-185z" />
<glyph unicode="&#xde;" horiz-adv-x="892" d="M74 1434h309v-144h80q401 0 401 -385v-211q0 -385 -401 -385h-80v-309h-309v1434zM383 1020v-440h70q55 0 78.5 23.5t23.5 80.5v234q0 57 -23.5 79.5t-78.5 22.5h-70z" />
<glyph unicode="&#xdf;" horiz-adv-x="827" d="M780 1118v-69q0 -211 -151 -258q152 -47 151 -261v-274q0 -143 -61.5 -206.5t-204.5 -63.5q-68 0 -113 14v231q20 -6 41 -6q37 0 52.5 17.5t15.5 58.5v305q0 82 -86 82h-23v203h23q86 0 86 86v153q0 96 -84 97q-86 0 -86 -97v-1130h-270v1118q0 182 88 261t268 79 q178 0 266 -79t88 -261z" />
<glyph unicode="&#xe0;" horiz-adv-x="808" d="M516 0q-18 35 -29 127q-27 -68 -82 -110t-133 -42q-236 0 -235 285v14q0 109 45 182.5t110.5 107.5t130 57.5t109.5 52t45 71.5v13q0 96 -82 96t-82 -96v-82h-250v43q0 367 342.5 366.5t342.5 -366.5v-373q0 -213 26 -346h-258zM477 307v168q-43 -18 -64.5 -28.5t-51 -31 t-42 -48t-12.5 -64.5v-10q0 -49 18.5 -68.5t59.5 -19.5t66.5 28.5t25.5 73.5zM408 1427l135 -270h-185l-206 270h256z" />
<glyph unicode="&#xe1;" horiz-adv-x="808" d="M516 0q-18 35 -29 127q-27 -68 -82 -110t-133 -42q-236 0 -235 285v14q0 109 45 182.5t110.5 107.5t130 57.5t109.5 52t45 71.5v13q0 96 -82 96t-82 -96v-82h-250v43q0 367 342.5 366.5t342.5 -366.5v-373q0 -213 26 -346h-258zM477 307v168q-43 -18 -64.5 -28.5t-51 -31 t-42 -48t-12.5 -64.5v-10q0 -49 18.5 -68.5t59.5 -19.5t66.5 28.5t25.5 73.5zM264 1157l135 270h256l-206 -270h-185z" />
<glyph unicode="&#xe2;" horiz-adv-x="808" d="M516 0q-18 35 -29 127q-27 -68 -82 -110t-133 -42q-236 0 -235 285v14q0 109 45 182.5t110.5 107.5t130 57.5t109.5 52t45 71.5v13q0 96 -82 96t-82 -96v-82h-250v43q0 367 342.5 366.5t342.5 -366.5v-373q0 -213 26 -346h-258zM477 307v168q-43 -18 -64.5 -28.5t-51 -31 t-42 -48t-12.5 -64.5v-10q0 -49 18.5 -68.5t59.5 -19.5t66.5 28.5t25.5 73.5zM496 1157l-93 111l-92 -111h-202l186 270h217l184 -270h-200z" />
<glyph unicode="&#xe3;" horiz-adv-x="808" d="M516 0q-18 35 -29 127q-27 -68 -82 -110t-133 -42q-236 0 -235 285v14q0 109 45 182.5t110.5 107.5t130 57.5t109.5 52t45 71.5v13q0 96 -82 96t-82 -96v-82h-250v43q0 367 342.5 366.5t342.5 -366.5v-373q0 -213 26 -346h-258zM477 307v168q-43 -18 -64.5 -28.5t-51 -31 t-42 -48t-12.5 -64.5v-10q0 -49 18.5 -68.5t59.5 -19.5t66.5 28.5t25.5 73.5zM565 1411h135q-2 -246 -178 -246q-55 0 -125.5 29t-101.5 29q-49 0 -53 -68h-138q2 244 179 244q55 0 126.5 -28t100.5 -28q51 0 55 68z" />
<glyph unicode="&#xe4;" horiz-adv-x="808" d="M516 0q-18 35 -29 127q-27 -68 -82 -110t-133 -42q-236 0 -235 285v14q0 109 45 182.5t110.5 107.5t130 57.5t109.5 52t45 71.5v13q0 96 -82 96t-82 -96v-82h-250v43q0 367 342.5 366.5t342.5 -366.5v-373q0 -213 26 -346h-258zM477 307v168q-43 -18 -64.5 -28.5t-51 -31 t-42 -48t-12.5 -64.5v-10q0 -49 18.5 -68.5t59.5 -19.5t66.5 28.5t25.5 73.5zM354 1178h-243v233h243v-233zM696 1178h-243v233h243v-233z" />
<glyph unicode="&#xe5;" horiz-adv-x="808" d="M516 0q-18 35 -29 127q-27 -68 -82 -110t-133 -42q-236 0 -235 285v14q0 109 45 182.5t110.5 107.5t130 57.5t109.5 52t45 71.5v13q0 96 -82 96t-82 -96v-82h-250v43q0 367 342.5 366.5t342.5 -366.5v-373q0 -213 26 -346h-258zM477 307v168q-43 -18 -64.5 -28.5t-51 -31 t-42 -48t-12.5 -64.5v-10q0 -49 18.5 -68.5t59.5 -19.5t66.5 28.5t25.5 73.5zM217 1333q0 82 54.5 134.5t131.5 52.5q76 0 130.5 -52.5t54.5 -134.5q0 -80 -54.5 -132t-130.5 -52q-78 0 -132 52t-54 132zM340 1333.5q0 -28.5 17.5 -48t45.5 -19.5q27 0 45.5 19.5t18.5 48 t-18.5 48t-45.5 19.5q-29 0 -46 -19.5t-17 -48z" />
<glyph unicode="&#xe6;" horiz-adv-x="1216" d="M1169 457h-421v-154q0 -96 86 -96q84 0 84 96v64h251v-23q0 -369 -346 -369q-256 0 -321 197q-18 -86 -77.5 -141.5t-152.5 -55.5q-236 0 -235 285v14q0 109 45 182.5t110.5 107.5t130 57.5t109.5 52t45 71.5v13q0 96 -82 96t-82 -96v-82h-250v41q0 369 316 368 q160 0 235 -94q82 94 240 94q315 0 315 -368v-260zM385 205q41 0 66.5 28.5t25.5 73.5v168q-43 -18 -64.5 -28.5t-51 -31t-42 -48t-12.5 -64.5v-10q0 -49 18.5 -68.5t59.5 -19.5zM748 758v-107h170v107q0 96 -87 96q-83 0 -83 -96z" />
<glyph unicode="&#xe7;" horiz-adv-x="786" d="M446 -156q0 27 -25.5 37t-96.5 6v93q-272 39 -273 364v373q0 369 346 368.5t346 -368.5v-84h-249v125q0 96 -86 96t-86 -96v-455q0 -96 86 -96t86 96v146h249v-105q0 -350 -315 -367v-38q117 0 164 -19.5t47 -83.5q0 -113 -252 -112q-117 0 -175 29.5t-52 101.5h159 q-4 -29 10.5 -42.5t53.5 -13.5t51 11t12 34z" />
<glyph unicode="&#xe8;" horiz-adv-x="790" d="M743 457h-421v-154q0 -96 86 -96t86 96v64h249v-23q0 -369 -346 -369t-346 369v373q0 369 346 368.5t346 -368.5v-260zM322 758v-107h172v107q0 96 -86 96t-86 -96zM403 1427l136 -270h-185l-207 270h256z" />
<glyph unicode="&#xe9;" horiz-adv-x="790" d="M743 457h-421v-154q0 -96 86 -96t86 96v64h249v-23q0 -369 -346 -369t-346 369v373q0 369 346 368.5t346 -368.5v-260zM322 758v-107h172v107q0 96 -86 96t-86 -96zM258 1157l135 270h256l-207 -270h-184z" />
<glyph unicode="&#xea;" horiz-adv-x="790" d="M743 457h-421v-154q0 -96 86 -96t86 96v64h249v-23q0 -369 -346 -369t-346 369v373q0 369 346 368.5t346 -368.5v-260zM322 758v-107h172v107q0 96 -86 96t-86 -96zM492 1157l-93 111l-92 -111h-203l187 270h217l184 -270h-200z" />
<glyph unicode="&#xeb;" horiz-adv-x="790" d="M743 457h-421v-154q0 -96 86 -96t86 96v64h249v-23q0 -369 -346 -369t-346 369v373q0 369 346 368.5t346 -368.5v-260zM322 758v-107h172v107q0 96 -86 96t-86 -96zM350 1178h-244v233h244v-233zM692 1178h-243v233h243v-233z" />
<glyph unicode="&#xec;" horiz-adv-x="409" d="M209 1427l135 -270h-184l-207 270h256zM340 0h-270v1061h270v-1061z" />
<glyph unicode="&#xed;" horiz-adv-x="409" d="M63 1157l136 270h256l-207 -270h-185zM340 0h-270v1061h270v-1061z" />
<glyph unicode="&#xee;" horiz-adv-x="409" d="M340 0h-270v1061h270v-1061zM297 1157l-92 111l-92 -111h-203l186 270h217l185 -270h-201z" />
<glyph unicode="&#xef;" horiz-adv-x="409" d="M156 1178h-244v233h244v-233zM498 1178h-244v233h244v-233zM340 0h-270v1061h270v-1061z" />
<glyph unicode="&#xf0;" horiz-adv-x="825" d="M408 1100l-48 47l64 63q-35 12 -88 13h-82l43 211h82q139 0 223 -45l45 45h96l-84 -84q104 -96 105 -320v-686q0 -369 -356.5 -369t-356.5 369v434q0 307 236 307q143 0 207 -129v93q0 78 -21 116zM494 303v447q0 47 -26 75.5t-67 28.5q-80 0 -79 -96v-455q0 -96 86 -96 t86 96z" />
<glyph unicode="&#xf1;" horiz-adv-x="841" d="M340 0h-270v1061h252v-148q23 76 81 124t144 48q233 0 233 -307v-778h-270v758q0 96 -78 96q-41 0 -66.5 -28.5t-25.5 -75.5v-750zM584 1411h135q-2 -246 -178 -246q-55 0 -126 29t-102 29q-49 0 -53 -68h-137q2 244 178 244q55 0 127 -28t100 -28q52 0 56 68z" />
<glyph unicode="&#xf2;" d="M764 344q0 -369 -356.5 -369t-356.5 369v373q0 369 356.5 368.5t356.5 -368.5v-373zM494 758q0 96 -86 96t-86 -96v-455q0 -96 86 -96t86 96v455zM412 1427l135 -270h-185l-206 270h256z" />
<glyph unicode="&#xf3;" d="M764 344q0 -369 -356.5 -369t-356.5 369v373q0 369 356.5 368.5t356.5 -368.5v-373zM494 758q0 96 -86 96t-86 -96v-455q0 -96 86 -96t86 96v455zM266 1157l135 270h256l-206 -270h-185z" />
<glyph unicode="&#xf4;" d="M764 344q0 -369 -356.5 -369t-356.5 369v373q0 369 356.5 368.5t356.5 -368.5v-373zM494 758q0 96 -86 96t-86 -96v-455q0 -96 86 -96t86 96v455zM500 1157l-92 111l-93 -111h-202l186 270h217l184 -270h-200z" />
<glyph unicode="&#xf5;" d="M764 344q0 -369 -356.5 -369t-356.5 369v373q0 369 356.5 368.5t356.5 -368.5v-373zM494 758q0 96 -86 96t-86 -96v-455q0 -96 86 -96t86 96v455zM569 1411h136q-2 -246 -179 -246q-55 0 -125.5 29t-101.5 29q-49 0 -53 -68h-137q2 244 178 244q55 0 126.5 -28t100.5 -28 q51 0 55 68z" />
<glyph unicode="&#xf6;" d="M764 344q0 -369 -356.5 -369t-356.5 369v373q0 369 356.5 368.5t356.5 -368.5v-373zM494 758q0 96 -86 96t-86 -96v-455q0 -96 86 -96t86 96v455zM358 1178h-243v233h243v-233zM700 1178h-243v233h243v-233z" />
<glyph unicode="&#xf7;" d="M256 1036q0 63 43 106.5t108.5 43.5t108.5 -43t43 -107q0 -66 -44 -109.5t-107.5 -43.5t-107.5 43.5t-44 109.5zM256 391.5q0 63.5 44 107.5t107.5 44t107.5 -44t44 -107.5t-44 -107.5t-107.5 -44t-107.5 44t-44 107.5zM764 827v-221h-713v221h713z" />
<glyph unicode="&#xf8;" d="M764 344q0 -369 -356 -369q-84 0 -144 21l-41 -90l-172 80l58 123q-57 84 -58 235v373q0 369 357 368q84 0 143 -20l41 90l174 -80l-59 -125q57 -92 57 -233v-373zM322 758v-293l129 381q-25 8 -43 8q-86 0 -86 -96zM408 207q86 0 86 96v289l-129 -379q18 -6 43 -6z" />
<glyph unicode="&#xf9;" horiz-adv-x="841" d="M502 311v750h270v-715q0 -213 27 -346h-258q-20 39 -27 129q-27 -70 -83 -112t-136 -42q-233 0 -234 308v778h271v-758q0 -96 78 -96q41 0 66.5 28.5t25.5 75.5zM426 1427l135 -270h-184l-207 270h256z" />
<glyph unicode="&#xfa;" horiz-adv-x="841" d="M502 311v750h270v-715q0 -213 27 -346h-258q-20 39 -27 129q-27 -70 -83 -112t-136 -42q-233 0 -234 308v778h271v-758q0 -96 78 -96q41 0 66.5 28.5t25.5 75.5zM281 1157l135 270h256l-207 -270h-184z" />
<glyph unicode="&#xfb;" horiz-adv-x="841" d="M502 311v750h270v-715q0 -213 27 -346h-258q-20 39 -27 129q-27 -70 -83 -112t-136 -42q-233 0 -234 308v778h271v-758q0 -96 78 -96q41 0 66.5 28.5t25.5 75.5zM514 1157l-92 111l-92 -111h-203l186 270h217l185 -270h-201z" />
<glyph unicode="&#xfc;" horiz-adv-x="841" d="M502 311v750h270v-715q0 -213 27 -346h-258q-20 39 -27 129q-27 -70 -83 -112t-136 -42q-233 0 -234 308v778h271v-758q0 -96 78 -96q41 0 66.5 28.5t25.5 75.5zM371 1178h-244v233h244v-233zM713 1178h-244v233h244v-233z" />
<glyph unicode="&#xfd;" horiz-adv-x="778" d="M80 -264v207q68 -10 90 -11q47 0 59 41q6 16 0 56l-227 1032h281l69 -389q31 -162 47 -367q16 205 47 367l72 389h256l-227 -1118q-23 -113 -96.5 -166t-229.5 -53q-92 0 -141 12zM254 1157l135 270h256l-207 -270h-184z" />
<glyph unicode="&#xfe;" horiz-adv-x="835" d="M340 750v-439q0 -47 25.5 -75.5t66.5 -28.5q78 0 78 96v455q0 96 -78 96q-41 0 -66.5 -28.5t-25.5 -75.5zM780 778v-495q0 -307 -233 -308q-145 0 -207 125v-358h-270v1692h270v-473q63 125 207 124q233 0 233 -307z" />
<glyph unicode="&#xff;" horiz-adv-x="778" d="M80 -264v207q68 -10 90 -11q47 0 59 41q6 16 0 56l-227 1032h281l69 -389q31 -162 47 -367q16 205 47 367l72 389h256l-227 -1118q-23 -113 -96.5 -166t-229.5 -53q-92 0 -141 12zM350 1178h-244v233h244v-233zM692 1178h-243v233h243v-233z" />
<glyph unicode="&#x152;" horiz-adv-x="1200" d="M852 610v-340h311v-270h-704q-401 0 -402 385v664q0 385 402 385h694v-271h-301v-282h254v-271h-254zM543 270v893h-74q-55 0 -78.5 -23.5t-23.5 -78.5v-688q0 -55 23.5 -79t78.5 -24h74z" />
<glyph unicode="&#x153;" horiz-adv-x="1232" d="M934 367h252v-23q0 -369 -316 -369q-168 0 -243 107q-82 -106 -246 -107q-330 0 -330 369v373q0 369 330 368q162 0 246 -108q78 109 243 108q315 0 316 -368v-260h-422v-154q0 -96 84 -96q86 0 86 96v64zM494 303v455q0 96 -84 96q-88 0 -88 -96v-455q0 -96 88 -96 q84 0 84 96zM764 758v-107h170v107q0 96 -86 96q-84 0 -84 -96z" />
<glyph unicode="&#x178;" horiz-adv-x="919" d="M539 1092l84 342h288l-295 -992v-442h-309v436l-295 998h316l86 -342q45 -176 63 -299q17 113 62 299zM410 1520h-244v233h244v-233zM752 1520h-244v233h244v-233z" />
<glyph unicode="&#x2c6;" horiz-adv-x="598" d="M391 1157l-92 111l-92 -111h-203l186 270h218l184 -270h-201z" />
<glyph unicode="&#x2dc;" horiz-adv-x="598" d="M461 1411h135q-2 -246 -178 -246q-55 0 -126 29t-102 29q-49 0 -53 -68h-137q2 244 178 244q55 0 127 -28t101 -28q51 0 55 68z" />
<glyph unicode="&#x2013;" horiz-adv-x="1024" d="M1024 647v-233h-1024v233h1024z" />
<glyph unicode="&#x2014;" horiz-adv-x="2048" d="M2048 647v-233h-2048v233h2048z" />
<glyph unicode="&#x2018;" horiz-adv-x="407" d="M340 1196v-367h-272v367l249 238l23 -17l-143 -221h143z" />
<glyph unicode="&#x2019;" horiz-adv-x="407" d="M68 1067v367h272v-367l-250 -238l-22 17l143 221h-143z" />
<glyph unicode="&#x201a;" horiz-adv-x="407" d="M68 0v367h272v-367l-250 -238l-22 17l143 221h-143z" />
<glyph unicode="&#x201c;" horiz-adv-x="786" d="M717 1196v-367h-273v367l250 238l23 -17l-144 -221h144zM340 1196v-367h-272v367l249 238l23 -17l-143 -221h143z" />
<glyph unicode="&#x201d;" horiz-adv-x="786" d="M446 1067v367h273v-367l-250 -238l-23 17l144 221h-144zM68 1067v367h272v-367l-250 -238l-22 17l143 221h-143z" />
<glyph unicode="&#x201e;" horiz-adv-x="786" d="M446 0v367h273v-367l-250 -238l-23 17l144 221h-144zM68 0v367h272v-367l-250 -238l-22 17l143 221h-143z" />
<glyph unicode="&#x2022;" horiz-adv-x="774" d="M94 717q0 123 85 209t208 86q121 0 207 -87t86 -208t-86 -206t-207 -85q-123 0 -208 85t-85 206z" />
<glyph unicode="&#x2026;" horiz-adv-x="1165" d="M68 0v367h272v-367h-272zM446 0v367h273v-367h-273zM823 0v367h273v-367h-273z" />
<glyph unicode="&#x2039;" horiz-adv-x="546" d="M14 530l252 531h266l-249 -531l249 -530h-266z" />
<glyph unicode="&#x203a;" horiz-adv-x="546" d="M281 1061l251 -531l-251 -530h-267l250 530l-250 531h267z" />
<glyph unicode="&#x20ac;" d="M2 563v101h47v106h-47v100h49v220q0 369 356.5 368.5t356.5 -368.5v-109h-270v149q0 96 -86 96.5t-86 -96.5v-260h442v-100h-442v-106h442v-101h-442v-260q0 -96 86 -96t86 96v150h270v-109q0 -369 -356.5 -369t-356.5 369v219h-49z" />
<glyph unicode="&#x2122;" horiz-adv-x="1122" d="M905 686v221q0 33 13 322q-45 -274 -56 -322l-41 -221h-145l-43 221l-55 322q12 -289 12 -322v-221h-141v748h251l31 -191q6 -39 29 -215q18 186 24 215l35 191h254v-748h-168zM0 1290v144h399v-144h-114v-604h-172v604h-113z" />
<glyph unicode="&#xe000;" horiz-adv-x="1060" d="M0 1060h1060v-1060h-1060v1060z" />
<glyph unicode="&#xfb01;" horiz-adv-x="933" d="M373 1147v-86h157v-232h-157v-829h-273v829h-84v232h84v131q0 139 64.5 202.5t204.5 63.5q88 0 161 -24v-220q-33 16 -84 17q-73 0 -73 -84zM866 0h-270v1061h270v-1061zM866 1196h-270v238h270v-238z" />
<glyph unicode="&#xfb02;" horiz-adv-x="933" d="M373 1147v-86h157v-232h-157v-829h-273v829h-84v232h84v131q0 139 64.5 202.5t204.5 63.5q88 0 161 -24v-220q-33 16 -84 17q-73 0 -73 -84zM866 0h-270v1434h270v-1434z" />
<glyph unicode="&#xfb03;" horiz-adv-x="1461" d="M1392 0h-270v1061h270v-1061zM1392 1196h-270v238h270v-238zM899 1147v-86h157v-232h-157v-829h-273v829h-84v232h84v131q0 139 64.5 202.5t204.5 63.5q88 0 161 -24v-220q-33 16 -84 17q-73 0 -73 -84zM373 1147v-86h157v-232h-157v-829h-273v829h-84v232h84v131 q0 139 64.5 202.5t204.5 63.5q88 0 161 -24v-220q-33 16 -84 17q-73 0 -73 -84z" />
<glyph unicode="&#xfb04;" horiz-adv-x="1461" d="M1392 0h-270v1434h270v-1434zM899 1147v-86h157v-232h-157v-829h-273v829h-84v232h84v131q0 139 64.5 202.5t204.5 63.5q88 0 161 -24v-220q-33 16 -84 17q-73 0 -73 -84zM373 1147v-86h157v-232h-157v-829h-273v829h-84v232h84v131q0 139 64.5 202.5t204.5 63.5 q88 0 161 -24v-220q-33 16 -84 17q-73 0 -73 -84z" />
</font>
</defs>
</svg>
