<?xml version="1.0" standalone="no"?>
<!DOCTYPE svg PUBLIC "-//W3C//DTD SVG 1.1//EN" "http://www.w3.org/Graphics/SVG/1.1/DTD/svg11.dtd" >
<svg xmlns="http://www.w3.org/2000/svg">
<metadata>
This is a custom SVG webfont generated by Fontspring.
</metadata>
<defs>
<font id="RamaGothicESemiBold" horiz-adv-x="772" >
<font-face units-per-em="2048" ascent="1638" descent="-410" />
<missing-glyph horiz-adv-x="395" />
<glyph unicode=" "  horiz-adv-x="395" />
<glyph unicode="&#x09;" horiz-adv-x="395" />
<glyph unicode="&#xa0;" horiz-adv-x="395" />
<glyph unicode="!" horiz-adv-x="413" d="M96 0v242h223v-242h-223zM324 920l-52 -562h-131l-53 562v514h236v-514z" />
<glyph unicode="&#x22;" horiz-adv-x="727" d="M637 1198l-31 -473h-143l-33 473v236h207v-236zM297 1198l-31 -473h-143l-33 473v236h207v-236z" />
<glyph unicode="#" d="M70 907l16 166h107l38 361h150l-39 -361h162l39 361h147l-37 -361h109l-17 -166h-110l-39 -381h109l-19 -166h-108l-37 -360h-148l37 360h-162l-37 -360h-149l37 360h-109l17 166h108l41 381h-106zM324 907l-39 -381h161l39 381h-161z" />
<glyph unicode="$" d="M344 -98v100q-295 18 -295 363v159h211v-190q0 -135 117 -135q61 0 88 32.5t27 102.5v26q0 72 -33 130.5t-82 94.5l-106.5 82t-106.5 94t-82 133t-33 193v7q0 313 295 336v102h80v-102q297 -18 297 -361v-145h-211v174q0 137 -117 137t-117 -137v-6q0 -74 33 -131.5 t82 -93.5l107.5 -83t107.5 -94t82 -132t33 -193v-27q0 -315 -297 -338v-98h-80z" />
<glyph unicode="%" horiz-adv-x="1349" d="M295 0l612 1434h148l-613 -1434h-147zM1294 707v-494q0 -236 -229 -236t-229 236v494q0 119 61 176t167.5 57t168 -57t61.5 -176zM1137 201v518q0 86 -72 86t-72 -86v-518q0 -86 72 -86t72 86zM514 1223v-494q0 -236 -229.5 -235.5t-229.5 235.5v494q0 119 61.5 176 t168 57t168 -57t61.5 -176zM356 717v518q0 86 -71.5 86t-71.5 -86v-518q0 -86 71.5 -86t71.5 86z" />
<glyph unicode="&#x26;" horiz-adv-x="1034" d="M545 860q184 -422 211 -536q45 102 45 266v268h180v-244q0 -274 -109 -436q31 -18 72 -18q43 0 72 14v-174q-53 -18 -123 -18q-117 0 -188 45q-100 -49 -220 -50q-123 0 -201.5 40t-142.5 176l-53 114q-57 125 -57 221q0 184 202 306l46 26l-5 12q-80 186 -79 320 q0 109 71.5 186.5t204.5 77.5q135 0 198.5 -68.5t63.5 -183.5q0 -203 -188 -344zM510 152q47 0 88 14l-256 555l-16 -12q-76 -53 -76 -134q0 -61 35 -133l82 -172q55 -118 143 -118zM422 1210q0 -35 9 -69.5t25.5 -78.5t22.5 -65q96 84 96 205q0 113 -77 113 q-76 -1 -76 -105z" />
<glyph unicode="'" horiz-adv-x="387" d="M297 1198l-31 -473h-143l-33 473v236h207v-236z" />
<glyph unicode="(" horiz-adv-x="487" d="M66 1063q0 371 337 371h84v-158h-51q-88 0 -121.5 -42t-33.5 -142v-936q0 -100 33.5 -142.5t121.5 -42.5h51v-157h-84q-338 0 -337 370v879z" />
<glyph unicode=")" horiz-adv-x="487" d="M422 1063v-879q0 -371 -338 -370h-84v157h51q88 0 122 42t34 143v936q0 100 -34 142t-122 42h-51v158h84q338 0 338 -371z" />
<glyph unicode="*" horiz-adv-x="823" d="M2 854l293 150l-293 149l74 131l274 -180l-14 330h149l-16 -330l276 180l76 -131l-293 -149l293 -150l-76 -131l-276 178l16 -328h-149l14 328l-274 -178z" />
<glyph unicode="+" d="M473 352h-174v277h-233v174h233v274h174v-274h234v-174h-234v-277z" />
<glyph unicode="," horiz-adv-x="387" d="M88 0v311h209v-311l-201 -221l-18 14l119 207h-109z" />
<glyph unicode="-" horiz-adv-x="581" d="M522 618v-180h-463v180h463z" />
<glyph unicode="." horiz-adv-x="387" d="M88 0v311h209v-311h-209z" />
<glyph unicode="/" horiz-adv-x="714" d="M12 0l480 1434h208l-479 -1434h-209z" />
<glyph unicode="0" d="M707 315q0 -338 -320 -338q-322 0 -321 338v803q0 338 321 338q319 0 320 -338v-803zM500 1147q0 131 -113 131q-115 0 -115 -131v-860q0 -131 115 -131q113 0 113 131v860z" />
<glyph unicode="1" horiz-adv-x="475" d="M41 1157v178h100q106 0 121 99h111v-1434h-209v1157h-123z" />
<glyph unicode="2" horiz-adv-x="745" d="M262 895h-192v217q0 344 313 344q315 0 315 -344v-25q0 -131 -45 -235t-109 -173l-128 -133q-63 -65 -108.5 -148t-45.5 -183v-8h424v-207h-631v193q0 135 45 241.5t109 175.5l127 134q63 65 108 149t45 184v64q0 137 -112 137q-115 0 -115 -137v-246z" />
<glyph unicode="3" horiz-adv-x="737" d="M55 520h193v-227q0 -137 112 -137q115 0 115 137v229q0 137 -115 137h-112v179h112q115 0 115 137v166q0 137 -115 137q-113 0 -112 -137v-164h-193v139q0 340 313.5 340t313.5 -340v-86q0 -233 -154 -282q154 -49 154 -281v-148q0 -342 -313.5 -342t-313.5 342v201z" />
<glyph unicode="4" horiz-adv-x="763" d="M729 481v-205h-90v-276h-209v276h-391v173l375 985h225v-953h90zM334 770l-101 -289h197v236q0 256 27 465q-45 -187 -123 -412z" />
<glyph unicode="5" horiz-adv-x="770" d="M78 510h192v-217q0 -137 113 -137q115 0 115 137v457q0 74 -26 102.5t-77 28.5q-55 0 -90 -41t-35 -103v-82h-192v779h612v-207h-420v-297q63 131 207 131q227 0 228 -297v-442q0 -344 -313.5 -344.5t-313.5 344.5v188z" />
<glyph unicode="6" horiz-adv-x="761" d="M707 659v-344q0 -338 -320 -338q-322 0 -321 338v797q0 344 313 344t313 -344v-51h-192v80q0 137 -113 137q-115 0 -115 -137v-316q63 131 209 131q226 0 226 -297zM272 633v-346q0 -131 115 -131q113 0 113 131v358q0 74 -25.5 102.5t-77.5 28.5q-53 0 -89 -42t-36 -101 z" />
<glyph unicode="7" horiz-adv-x="702" d="M47 1227v207h627v-166l-398 -1268h-229l424 1227h-424z" />
<glyph unicode="8" horiz-adv-x="753" d="M698 1030q0 -221 -147 -280q147 -61 147 -283v-160q0 -330 -321.5 -330t-321.5 330v160q0 221 146 283q-145 59 -146 280v96q0 330 321.5 330t321.5 -330v-96zM377 659q-66 0 -90.5 -32.5t-24.5 -110.5v-229q0 -131 115 -131q113 0 112 131v229q0 76 -24.5 109.5 t-87.5 33.5zM377 838q63 0 87.5 33.5t24.5 109.5v164q0 133 -112 133q-115 0 -115 -133v-164q0 -76 24.5 -109.5t90.5 -33.5z" />
<glyph unicode="9" horiz-adv-x="761" d="M55 795v323q0 338 321.5 338t321.5 -338v-796q0 -344 -315 -345q-313 0 -313 345v71h192v-100q0 -137 115 -137q113 0 112 137v334q-63 -129 -206 -129q-228 0 -228 297zM489 821v326q0 131 -112 131q-115 0 -115 -131v-338q0 -74 25.5 -102.5t77.5 -28.5q55 0 89.5 41 t34.5 102z" />
<glyph unicode=":" horiz-adv-x="387" d="M88 705v311h209v-311h-209zM88 0v311h209v-311h-209z" />
<glyph unicode=";" horiz-adv-x="387" d="M88 0v311h209v-311l-201 -221l-18 14l119 207h-109zM88 705v311h209v-311h-209z" />
<glyph unicode="&#x3c;" d="M260 719l447 -203v-186l-641 301v170l641 301v-182z" />
<glyph unicode="=" d="M707 623v-174h-641v174h641zM707 985v-174h-641v174h641z" />
<glyph unicode="&#x3e;" d="M66 516l446 203l-446 201v182l641 -301v-170l-641 -301v186z" />
<glyph unicode="?" horiz-adv-x="694" d="M225 895h-192v217q0 344 313 344q315 0 316 -344v-51q0 -104 -28 -178t-68 -118l-80 -85q-40 -41 -67.5 -105.5t-27.5 -152.5v-64h-131v107q0 106 19.5 179t48.5 113l57 77q29 37 48.5 96t19.5 143v68q0 137 -113 137q-115 0 -115 -137v-246zM221 0v256h207v-256h-207z " />
<glyph unicode="@" horiz-adv-x="1253" d="M66 717q0 127 12 227t49 199.5t98.5 165t162.5 106.5t238.5 41t239 -41t163 -106.5t98 -165t49 -199.5t12.5 -227t-12.5 -227.5t-49 -200t-98 -165t-163 -106.5t-239 -41t-238.5 41t-162.5 106.5t-98.5 165t-49 200t-12 227.5zM186 716.5q0 -112.5 8.5 -196.5t36 -170 t74.5 -140t128 -88t193.5 -34t193.5 34t128 88t75 140t36 170t8 196.5t-8 196.5t-36 170t-75 140.5t-128 88.5t-193.5 34t-193.5 -34t-128 -88.5t-74.5 -140.5t-36 -170t-8.5 -196.5zM838 924v-414q0 -131 20 -225h-137q-16 29 -23 94q-37 -109 -147 -109q-158 0 -158 205 v35q0 82 31 138.5t74 83t86 46t73.5 44t30.5 59.5v59q0 88 -70 88q-72 0 -71 -88v-104h-137v88q0 123 52 181t162.5 58t162 -58t51.5 -181zM688 494v215q-8 -4 -33.5 -19.5l-35 -21.5t-29 -21.5t-26.5 -29t-14 -35t-7 -45.5v-45q0 -86 67 -86q33 0 55.5 25.5t22.5 62.5z" />
<glyph unicode="A" horiz-adv-x="831" d="M575 0l-36 211h-275l-35 -211h-215l248 1434h301l248 -1434h-236zM338 659l-41 -251h209l-41 251q-43 276 -64 498q-20 -222 -63 -498z" />
<glyph unicode="B" horiz-adv-x="854" d="M90 1434h350q80 0 133.5 -11.5t105.5 -43t78.5 -101.5t26.5 -176v-84q0 -227 -137 -281q150 -59 150 -278v-121q0 -106 -29 -177t-82 -103.5t-110.5 -45t-135.5 -12.5h-350v1434zM420 647h-94v-442h94q78 0 109.5 32.5t31.5 110.5v160q0 78 -31.5 108.5t-109.5 30.5z M326 852h94q80 0 110.5 29.5t30.5 107.5v101q0 78 -31.5 108.5t-109.5 30.5h-94v-377z" />
<glyph unicode="C" horiz-adv-x="821" d="M301 324q0 -141 121 -142q123 0 123 142v258h217v-226q0 -379 -348 -379t-348 379v721q0 379 348 379t348 -379v-182h-217v215q0 141 -123 141q-121 0 -121 -141v-786z" />
<glyph unicode="D" horiz-adv-x="870" d="M90 0v1434h334q371 0 371 -357v-721q0 -356 -371 -356h-334zM414 1229h-88v-1024h88q78 0 111.5 32.5t33.5 112.5v733q0 80 -33.5 113t-111.5 33z" />
<glyph unicode="E" horiz-adv-x="698" d="M326 643v-438h327v-205h-563v1434h553v-205h-317v-379h276v-207h-276z" />
<glyph unicode="F" horiz-adv-x="645" d="M326 614v-614h-236v1434h539v-205h-303v-408h262v-207h-262z" />
<glyph unicode="G" horiz-adv-x="833" d="M545 324v299h-123v188h348v-811h-123l-22 119q-61 -141 -256 -142q-303 0 -303 379v721q0 379 348 379t348 -379v-127h-217v160q0 141 -123 141q-121 0 -121 -141v-786q0 -141 121 -142q123 1 123 142z" />
<glyph unicode="H" horiz-adv-x="894" d="M326 643v-643h-236v1434h236v-584h243v584h236v-1434h-236v643h-243z" />
<glyph unicode="I" horiz-adv-x="409" d="M88 0v1434h236v-1434h-236z" />
<glyph unicode="J" horiz-adv-x="794" d="M715 336q0 -358 -348.5 -358.5t-348.5 358.5v246h218v-265q0 -135 122 -135q63 0 92 33t29 102v1117h236v-1098z" />
<glyph unicode="K" horiz-adv-x="868" d="M326 1434v-678q39 106 155 372l142 306h227l-268 -605l276 -829h-242l-186 586l-104 -203v-383h-236v1434h236z" />
<glyph unicode="L" horiz-adv-x="630" d="M90 0v1434h236v-1229h303v-205h-539z" />
<glyph unicode="M" horiz-adv-x="1191" d="M594 461q14 150 59 381l119 592h328v-1434h-230v684q0 176 15 449q-29 -201 -74 -447l-141 -686h-185l-141 686q-45 246 -74 447q14 -272 15 -449v-684h-197v1434h330l119 -592q45 -236 57 -381z" />
<glyph unicode="N" horiz-adv-x="927" d="M643 1434h197v-1434h-277l-211 750q-14 53 -41.5 170.5t-38.5 156.5q14 -229 15 -332v-745h-199v1434h309l181 -629l77 -330q-12 301 -12 332v627z" />
<glyph unicode="O" horiz-adv-x="843" d="M66 356v721q0 379 356 379q358 0 358 -379v-721q0 -379 -358 -379q-356 0 -356 379zM301 324q0 -141 121 -142q123 0 123 142v786q0 141 -123 141q-121 0 -121 -141v-786z" />
<glyph unicode="P" horiz-adv-x="823" d="M326 485v-485h-236v1434h330q371 0 371 -357v-233q0 -358 -371 -359h-94zM410 1229h-84v-537h84q78 0 111.5 33t33.5 111v247q0 80 -33.5 113t-111.5 33z" />
<glyph unicode="Q" horiz-adv-x="866" d="M823 188q18 0 35 9v-203q-29 -16 -76 -17q-109 0 -149 82q-80 -82 -234 -82q-334 0 -333 379v721q0 379 356 379q358 0 358 -379v-827q0 -33 9 -47.5t34 -14.5zM301 1110v-786q0 -141 121 -142q123 0 123 142v786q0 141 -123 141q-121 0 -121 -141z" />
<glyph unicode="R" horiz-adv-x="870" d="M383 608h-57v-608h-236v1434h350q61 0 108.5 -6.5t96.5 -27t80 -55t51.5 -96t20.5 -147.5v-107q0 -227 -160 -284q160 -63 160 -297v-43q0 -123 8 -199t17 -104.5t30 -67.5h-254q-37 111 -37 293v106q0 121 -38 165t-140 44zM326 815h94q80 0 110.5 29.5t30.5 107.5v138 q0 78 -31.5 108.5t-109.5 30.5h-94v-414z" />
<glyph unicode="S" horiz-adv-x="792" d="M272 502v-178q0 -72 27 -107t88 -35q63 0 90 35t27 107v30q0 86 -46 150.5t-112.5 112t-133.5 101.5t-113 150.5t-46 231.5v4q0 352 344 352q342 0 342 -379v-108h-219v141q0 72 -26.5 106.5t-87.5 34.5q-63 0 -90 -34.5t-27 -106.5v-12q0 -74 33.5 -132.5t83.5 -95.5 l108 -84q59 -47 108.5 -96t83 -137t33.5 -201v-24q0 -350 -344 -351q-342 0 -342 379v146h219z" />
<glyph unicode="T" horiz-adv-x="669" d="M670 1434v-205h-217v-1229h-236v1229h-217v205h670z" />
<glyph unicode="U" horiz-adv-x="851" d="M313 317q0 -135 123 -135q121 0 121 135v1117h219v-1098q0 -358 -348 -359q-350 0 -350 359v1098h235v-1117z" />
<glyph unicode="V" horiz-adv-x="821" d="M258 1434l111 -660q35 -215 55 -428q20 213 55 428l109 660h217l-246 -1434h-293l-248 1434h240z" />
<glyph unicode="W" horiz-adv-x="1257" d="M1030 0h-280l-82 580q-31 229 -41 393q-25 -276 -41 -393l-80 -580h-277l-211 1434h240l82 -574q41 -295 53 -465q12 209 51 467l82 572h234l80 -574q37 -262 51 -465q18 246 51 467l82 572h217z" />
<glyph unicode="X" horiz-adv-x="813" d="M242 737l-209 697h239l78 -269q51 -180 68 -276q23 119 67 276l78 269h217l-209 -697l222 -737h-242l-88 313q-51 180 -68 275q-23 -119 -67 -275l-88 -313h-222z" />
<glyph unicode="Y" horiz-adv-x="835" d="M500 1034l100 400h221l-282 -965v-469h-236v455l-285 979h242l102 -400q57 -221 70 -307q13 88 68 307z" />
<glyph unicode="Z" horiz-adv-x="702" d="M47 1229v205h619v-154l-367 -1075h367v-205h-629v152l366 1077h-356z" />
<glyph unicode="[" horiz-adv-x="514" d="M307 1329v-1358h205v-157h-422v1675h422v-160h-205z" />
<glyph unicode="\" horiz-adv-x="714" d="M223 1434l479 -1434h-208l-480 1434h209z" />
<glyph unicode="]" horiz-adv-x="514" d="M207 -29v1358h-205v160h422v-1675h-422v157h205z" />
<glyph unicode="^" d="M387 1214l-158 -436h-186l258 656h170l258 -656h-186z" />
<glyph unicode="_" horiz-adv-x="1024" d="M1024 -59v-115h-1024v115h1024z" />
<glyph unicode="`" horiz-adv-x="581" d="M326 1423l135 -260h-142l-198 260h205z" />
<glyph unicode="a" horiz-adv-x="765" d="M516 0q-18 45 -24 129q-25 -68 -81.5 -110t-134.5 -42q-227 0 -227 277v16q0 106 45 180t108.5 110t127 61.5t108.5 59.5t45 81v12q0 133 -106 133q-109 0 -109 -133v-78h-194v52q0 336 311 335q307 0 307 -335v-402q0 -229 23 -346h-199zM483 299v223q-14 -8 -52 -25.5 t-54.5 -26.5t-45 -28.5t-42 -38t-23.5 -48t-10 -64.5v-15q0 -70 25.5 -96t76.5 -26q55 0 90 42t35 103z" />
<glyph unicode="b" horiz-adv-x="792" d="M293 760v-459q0 -61 34.5 -103t88 -42t78 29.5t24.5 101.5v487q0 72 -24.5 101.5t-78 29.5t-88 -42t-34.5 -103zM84 1434h209v-480q63 129 207 129q227 0 227 -295v-516q0 -295 -227 -295q-82 0 -139.5 44.5t-79.5 115.5l-37 -137h-160v1434z" />
<glyph unicode="c" horiz-adv-x="747" d="M692 659h-192v115q0 131 -113 131q-115 0 -115 -131v-487q0 -131 115 -131q113 0 113 131v135h192v-107q0 -338 -313 -338t-313 338v430q0 338 313 338t313 -338v-86z" />
<glyph unicode="d" horiz-adv-x="792" d="M502 301v459q0 61 -36 103t-89 42t-78 -29.5t-25 -101.5v-487q0 -72 25 -101.5t78 -29.5t89 42t36 103zM532 0q-16 39 -22 127q-25 -68 -82 -109t-135 -41q-227 0 -227 295v516q0 295 227 295q145 0 209 -131v482h207v-1088q0 -231 24 -346h-201z" />
<glyph unicode="e" horiz-adv-x="751" d="M692 469h-420v-182q0 -131 115 -131q113 0 113 131v69h192v-41q0 -338 -313 -338t-313 338v430q0 338 313 338t313 -338v-276zM272 774v-135h228v135q0 131 -113 131q-115 0 -115 -131z" />
<glyph unicode="f" horiz-adv-x="499" d="M324 1171v-110h184v-178h-184v-883h-207v883h-90v178h90v143q0 131 59.5 191.5t188.5 60.5q80 0 143 -22v-168q-35 16 -92 16q-49 0 -70.5 -26t-21.5 -85z" />
<glyph unicode="g" horiz-adv-x="804" d="M61 -90q0 106 84 151q-57 45 -57 142q0 121 92 170q-125 66 -125 270v135q0 168 77 236.5t237 68.5q199 0 268 -108q18 86 98 86q37 0 56 -6v-172q-29 6 -56 6q-39 0 -39 -58v-188q0 -168 -79.5 -237.5t-241.5 -69.5q-33 0 -86 4q-31 -16 -31 -59q0 -61 66 -62h194 q141 0 207 -61.5t66 -186.5q0 -252 -312 -252h-162q-256 1 -256 191zM487 801q0 133 -112.5 133t-112.5 -133v-180q0 -131 112.5 -131.5t112.5 131.5v180zM354 -160h97q72 0 102.5 20.5t30.5 72t-24.5 69.5t-80.5 18h-164q-47 0 -68.5 -25.5t-21.5 -62.5q0 -49 26.5 -70.5 t102.5 -21.5z" />
<glyph unicode="h" horiz-adv-x="800" d="M727 0h-209v774q0 72 -24.5 101.5t-77.5 29.5q-51 0 -87 -43t-36 -102v-760h-209v1434h209v-480q63 129 207 129q227 0 227 -295v-788z" />
<glyph unicode="i" horiz-adv-x="376" d="M293 0h-209v1061h209v-1061zM293 1221h-209v213h209v-213z" />
<glyph unicode="j" horiz-adv-x="376" d="M293 1221h-209v213h209v-213zM74 -276q-51 0 -94 14v162q20 -8 43 -9q33 0 47 17.5t14 58.5v1094h209v-1106q0 -123 -52 -177t-167 -54z" />
<glyph unicode="k" horiz-adv-x="784" d="M293 1434v-867q53 119 123 244l141 250h199l-240 -443l260 -618h-217l-178 436l-88 -151v-285h-209v1434h209z" />
<glyph unicode="l" horiz-adv-x="376" d="M293 0h-209v1434h209v-1434z" />
<glyph unicode="m" horiz-adv-x="1208" d="M713 760v-760h-207v774q0 74 -22.5 102.5t-73.5 28.5q-53 0 -85 -41t-32 -104v-760h-209v1061h195v-141q20 72 76.5 117.5t138.5 45.5q162 0 202 -155q25 70 81.5 112.5t135.5 42.5q221 0 222 -295v-788h-209v774q0 74 -22.5 102.5t-74.5 28.5q-53 0 -84.5 -41 t-31.5 -104z" />
<glyph unicode="n" horiz-adv-x="800" d="M293 0h-209v1061h195v-143q23 74 81 119.5t140 45.5q227 0 227 -295v-788h-209v774q0 72 -24.5 101.5t-78 29.5t-88 -42t-34.5 -103v-760z" />
<glyph unicode="o" d="M707 315q0 -338 -320 -338q-322 0 -321 338v430q0 338 321 338q319 0 320 -338v-430zM500 774q0 131 -113 131q-115 0 -115 -131v-487q0 -131 115 -131q113 0 113 131v487z" />
<glyph unicode="p" horiz-adv-x="792" d="M293 760v-459q0 -61 34.5 -103t88 -42t78 29.5t24.5 101.5v487q0 72 -24.5 101.5t-78 29.5t-88 -42t-34.5 -103zM293 -258h-209v1319h195v-143q23 74 81 119.5t140 45.5q227 0 227 -295v-516q0 -295 -227 -295q-143 0 -207 129v-364z" />
<glyph unicode="q" horiz-adv-x="792" d="M502 301v459q0 61 -36 103t-89 42t-78 -29.5t-25 -101.5v-487q0 -72 25 -101.5t78 -29.5t89 42t36 103zM709 -258h-207v367q-63 -131 -209 -132q-227 0 -227 295v516q0 295 227 295q80 0 138 -45t83 -116l35 139h160v-1319z" />
<glyph unicode="r" horiz-adv-x="737" d="M293 0h-209v1061h195v-141q23 74 80 118.5t139 44.5q102 0 154.5 -64.5t52.5 -223.5v-277h-193v256q0 74 -23.5 102.5t-74.5 28.5q-53 0 -87 -42t-34 -103v-760z" />
<glyph unicode="s" horiz-adv-x="729" d="M467 270v19q0 53 -42 88t-103.5 59.5t-122 57t-102.5 104.5t-42 178v4q0 152 81 227.5t231 75.5q307 0 307 -321v-41h-193v61q0 135 -108 136q-111 0 -111 -127v-13q0 -53 42 -89t102.5 -60.5t122 -58t103.5 -104.5t42 -177v-6q0 -152 -80 -229t-229 -77q-309 0 -310 322 v53h193v-73q0 -135 108 -136q111 0 111 127z" />
<glyph unicode="t" horiz-adv-x="493" d="M340 -12q-119 0 -171 53t-52 180v662h-90v178h90v227h207v-227h151v-178h-151v-633q0 -80 71 -80q57 0 80 6v-176q-57 -12 -135 -12z" />
<glyph unicode="u" horiz-adv-x="800" d="M510 301v760h207v-715q0 -231 24 -346h-198q-18 45 -25 127q-27 -68 -83 -109t-134 -41q-225 0 -225 295v789h207v-774q0 -72 24.5 -101.5t77.5 -29.5t89 42t36 103z" />
<glyph unicode="v" horiz-adv-x="731" d="M426 569l98 492h197l-227 -1061h-258l-228 1061h215l99 -492q39 -199 51 -344q24 201 53 344z" />
<glyph unicode="w" horiz-adv-x="1144" d="M690 1061l86 -494q25 -158 39 -317q8 123 39 317l86 494h197l-199 -1061h-252l-74 424q-18 109 -41 307q-14 -170 -39 -307l-73 -424h-250l-201 1061h215l86 -494q29 -166 39 -317q14 166 41 317l84 494h217z" />
<glyph unicode="x" horiz-adv-x="722" d="M451 924l49 137h196l-194 -506l213 -555h-221l-70 186q-39 109 -74 244q-23 -106 -74 -244l-69 -186h-197l211 555l-194 506h219l49 -137q49 -135 78 -254q31 127 78 254z" />
<glyph unicode="y" horiz-adv-x="731" d="M84 -266v164q41 -10 82 -11q63 0 80 62q2 10 2 22q0 21 -6 49l-234 1041h215l99 -492q39 -199 51 -344q25 201 53 344l98 492h197l-242 -1133q-23 -106 -84 -155t-192 -49q-74 0 -119 10z" />
<glyph unicode="z" horiz-adv-x="659" d="M55 883v178h570v-156l-365 -727h365v-178h-592v156l364 727h-342z" />
<glyph unicode="{" horiz-adv-x="530" d="M150 416q0 63 -20.5 85.5t-78.5 22.5h-51v185h51q57 0 78 22.5t21 85.5q0 51 -17.5 152.5t-17.5 160.5q0 178 90 244t250 66h75v-160h-45q-86 0 -120.5 -37t-34.5 -121q0 -45 17.5 -138t17.5 -140q0 -182 -119 -228q119 -47 119 -227q0 -47 -17.5 -140t-17.5 -138 q0 -84 34.5 -121t120.5 -37h45v-160h-75q-160 0 -250 65.5t-90 243.5q0 59 17.5 161t17.5 153z" />
<glyph unicode="|" horiz-adv-x="581" d="M195 -258v1692h192v-1692h-192z" />
<glyph unicode="}" horiz-adv-x="530" d="M381 416q0 -51 17.5 -152.5t17.5 -161.5q0 -178 -90 -243.5t-250 -65.5h-76v160h45q86 0 121 37t35 121q0 45 -17.5 138t-17.5 140q0 180 119 227q-119 45 -119 228q0 47 17.5 140t17.5 138q0 84 -35 121t-121 37h-45v160h76q160 0 250 -65.5t90 -244.5 q0 -59 -17.5 -160.5t-17.5 -152.5q0 -63 20.5 -85.5t77.5 -22.5h51v-185h-51q-57 0 -77.5 -22.5t-20.5 -85.5z" />
<glyph unicode="~" d="M707 844v-174q-78 -84 -170 -84q-55 0 -162 41t-158 41q-84 0 -151 -78v172q74 82 167 82q55 0 162 -40t158 -40q84 0 154 80z" />
<glyph unicode="&#xa1;" horiz-adv-x="413" d="M317 1157v-242h-223v242h223zM90 238l51 561h131l54 -561v-514h-236v514z" />
<glyph unicode="&#xa2;" d="M698 846h-192v110q0 133 -113 134q-115 0 -114 -134v-479q0 -133 114 -133q113 0 113 133v131h192v-102q0 -317 -272 -340v-127h-80v127q-274 23 -274 340v422q0 319 274 338v129h80v-129q272 -18 272 -338v-82z" />
<glyph unicode="&#xa3;" d="M653 418h-231q-20 -139 -137 -211h436v-207h-674v182q98 29 147.5 84.5t57.5 151.5h-178v143h170q-14 63 -64.5 146.5t-88.5 177.5t-38 213v35q0 158 87 240.5t249 82.5q334 0 334 -360v-191h-209v219q0 133 -115 133q-119 0 -118 -133v-34q0 -127 66.5 -275.5 t76.5 -253.5h229v-143z" />
<glyph unicode="&#xa4;" d="M225 716.5q0 -71.5 46 -117.5t116 -46t115 46t45 117.5t-45 118t-115 46.5t-116 -46.5t-46 -118zM115 717q0 80 49 149l-123 111l84 84l111 -123q66 49 151 49q82 0 152 -49l108 123l84 -84l-123 -111q49 -70 49 -149.5t-49 -149.5l123 -112l-84 -82l-108 123 q-70 -49 -152 -50q-86 0 -151 50l-111 -123l-84 82l123 112q-49 70 -49 150z" />
<glyph unicode="&#xa5;" d="M455 1034l100 400h190l-231 -871h199v-96h-224v-141h224v-97h-224v-229h-206v229h-226v97h226v141h-226v96h197l-229 871h211l100 -400q37 -141 61 -307q17 149 58 307z" />
<glyph unicode="&#xa6;" horiz-adv-x="581" d="M195 723v711h192v-711h-192zM195 -258v711h192v-711h-192z" />
<glyph unicode="&#xa7;" horiz-adv-x="780" d="M266 262v-119q0 -135 117 -135t117 121v14q0 66 -46 112t-112 78t-131.5 68.5t-111.5 106.5t-46 168v2q0 164 119 229q-117 98 -117 248v8q0 139 89 216t245 77q158 0 246 -79t88 -230v-107h-209v119q0 135 -116.5 135t-116.5 -120v-13q0 -66 46 -111.5t111.5 -77.5 t131 -69t111.5 -106.5t46 -169.5v-2q0 -162 -121 -230q119 -100 119 -248v-6q0 -141 -89 -218t-245 -77q-158 0 -246 79t-88 231v106h209zM565 582q0 37 -15 66.5t-51 57t-64.5 45t-84 45t-82.5 44.5q-53 -35 -53 -117v-2q0 -37 15.5 -67.5t50 -56.5t64.5 -44t83 -46l82 -44 q55 39 55 119z" />
<glyph unicode="&#xa8;" horiz-adv-x="581" d="M233 1186h-188v207h188v-207zM539 1186h-191v207h191v-207z" />
<glyph unicode="&#xa9;" horiz-adv-x="1253" d="M66 717q0 127 12 227t49 199.5t98.5 165t162.5 106.5t238.5 41t239 -41t163 -106.5t98 -165t49 -199.5t12.5 -227t-12.5 -227.5t-49 -200t-98 -165t-163 -106.5t-239 -41t-238.5 41t-162.5 106.5t-98.5 165t-49 200t-12 227.5zM186 716.5q0 -112.5 8.5 -196.5t36 -170 t74.5 -140t128 -88t193.5 -34t193.5 34t128 88t75 140t36 170t8 196.5t-8 196.5t-36 170t-75 140.5t-128 88.5t-193.5 34t-193.5 -34t-128 -88.5t-74.5 -140.5t-36 -170t-8.5 -196.5zM563 483q0 -86 66 -86q68 0 67 86v113h138v-96q0 -236 -209 -236q-211 0 -211 236v426 q0 233 211 233q209 0 209 -233v-99h-138v115q0 86 -67 86q-66 0 -66 -86v-459z" />
<glyph unicode="&#xaa;" horiz-adv-x="567" d="M383 696q-14 23 -23 99q-16 -49 -57 -81t-94 -32q-164 0 -164 201v10q0 74 32 125t76 76.5t89 44t76.5 40t31.5 50.5v4q0 88 -71 88q-70 0 -70 -88v-43h-146v27q0 240 224 239q221 0 221 -239v-295q0 -127 18 -226h-143zM45 426v162h473v-162h-473zM205 911v-8 q0 -86 67 -86q33 0 55.5 25.5t22.5 62.5v162q-6 -4 -28.5 -15.5t-30.5 -16.5l-26 -16q-17 -11 -25.5 -20.5t-17.5 -22.5t-13 -30t-4 -35z" />
<glyph unicode="&#xab;" horiz-adv-x="856" d="M381 530l250 531h205l-250 -531l250 -530h-205zM20 530l250 531h205l-250 -531l250 -530h-205z" />
<glyph unicode="&#xac;" d="M707 803v-451h-175v277h-466v174h641z" />
<glyph unicode="&#xad;" horiz-adv-x="581" d="M522 618v-180h-463v180h463z" />
<glyph unicode="&#xae;" horiz-adv-x="1253" d="M66 717q0 127 12 227t49 199.5t98.5 165t162.5 106.5t238.5 41t239 -41t163 -106.5t98 -165t49 -199.5t12.5 -227t-12.5 -227.5t-49 -200t-98 -165t-163 -106.5t-239 -41t-238.5 41t-162.5 106.5t-98.5 165t-49 200t-12 227.5zM186 716.5q0 -112.5 8.5 -196.5t36 -170 t74.5 -140t128 -88t193.5 -34t193.5 34t128 88t75 140t36 170t8 196.5t-8 196.5t-36 170t-75 140.5t-128 88.5t-193.5 34t-193.5 -34t-128 -88.5t-74.5 -140.5t-36 -170t-8.5 -196.5zM410 1141h229q215 0 215 -203v-57q0 -143 -98 -174q98 -37 98 -177v-8q0 -90 5 -138 t11.5 -61.5t22.5 -37.5h-164q-25 57 -24 184v63q0 111 -89 111h-57v-358h-149v856zM559 1010v-236h72q41 0 57.5 19.5t16.5 62.5v80q0 74 -74 74h-72z" />
<glyph unicode="&#xaf;" horiz-adv-x="581" d="M541 1202h-498v144h498v-144z" />
<glyph unicode="&#xb0;" horiz-adv-x="606" d="M303.5 1413q110.5 0 186 -74.5t75.5 -185.5q0 -109 -76.5 -184.5t-185 -75.5t-185.5 75.5t-77 184.5q0 111 76 185.5t186.5 74.5zM303 1270q-49 0 -83 -33t-34 -84t34 -84t83 -33q51 0 84 33t33 84t-33 84t-84 33z" />
<glyph unicode="&#xb1;" d="M707 465v-172h-641v172h233v225h-233v172h233v277h174v-277h234v-172h-234v-225h234z" />
<glyph unicode="&#xb2;" horiz-adv-x="569" d="M213 1415v-117h-145v109q0 233 221 233t221 -227v-18q0 -98 -43 -177t-94 -122t-97.5 -108.5t-52.5 -139.5h277v-148h-432v115q0 84 29.5 152.5t71.5 115.5l84 92q42 44 71.5 100t29.5 122v18q0 90 -71 90q-70 0 -70 -90z" />
<glyph unicode="&#xb3;" horiz-adv-x="569" d="M211 1110v133h68q39 0 55 18.5t16 61.5v94q0 88 -71.5 88t-71.5 -88v-74h-144v68q0 229 220 229q223 0 223 -229v-53q0 -147 -103 -182q102 -35 103 -187v-80q0 -231 -223 -231q-219 0 -220 231v86h144v-92q0 -90 71.5 -90t71.5 90v121q0 45 -16.5 65.5t-54.5 20.5h-68z " />
<glyph unicode="&#xb4;" horiz-adv-x="581" d="M121 1163l135 260h205l-199 -260h-141z" />
<glyph unicode="&#xb5;" horiz-adv-x="811" d="M84 -258v1319h209v-774q0 -72 24.5 -101.5t78 -29.5t88 42t34.5 103v760h209v-715q0 -229 23 -346h-199q-18 45 -25 129q-27 -68 -82 -110t-133 -42h-18v-235h-209z" />
<glyph unicode="&#xb6;" horiz-adv-x="970" d="M881 1434v-1567h-170v1388h-140v-1388h-172v495h-8q-358 0 -358 347v378q0 346 358 347h490z" />
<glyph unicode="&#xb7;" horiz-adv-x="387" d="M88 561v311h209v-311h-209z" />
<glyph unicode="&#xb8;" horiz-adv-x="581" d="M352 -162q0 29 -24.5 40t-96.5 9v113h82v-68q102 0 147.5 -20.5t45.5 -79.5q0 -109 -225 -108q-102 0 -154.5 27.5t-46.5 96.5h125q-4 -33 13.5 -48t60.5 -15q73 0 73 53z" />
<glyph unicode="&#xb9;" horiz-adv-x="569" d="M156 1540h69q92 0 109 78h78v-918h-156v695h-100v145z" />
<glyph unicode="&#xba;" horiz-adv-x="567" d="M512 922q0 -240 -227 -240q-229 0 -230 240v295q0 240 230 239q227 0 227 -239v-295zM55 426v162h457v-162h-457zM356 1233q0 88 -71.5 88t-71.5 -88v-328q0 -88 71.5 -88t71.5 88v328z" />
<glyph unicode="&#xbb;" horiz-adv-x="856" d="M586 1061l250 -531l-250 -530h-205l250 530l-250 531h205zM225 1061l250 -531l-250 -530h-205l250 530l-250 531h205z" />
<glyph unicode="&#xbc;" horiz-adv-x="1185" d="M213 0l612 1434h148l-613 -1434h-147zM74 1356h69q92 0 109 78h78v-918h-156v694h-100v146zM1096 918v-594h53v-142h-53v-182h-154v182h-280v121l247 615h187zM864 465l-55 -141h133v118q0 160 23 318q-50 -166 -101 -295z" />
<glyph unicode="&#xbd;" horiz-adv-x="1267" d="M213 0l612 1434h148l-613 -1434h-147zM74 1356h69q92 0 109 78h78v-918h-156v694h-100v146zM911 715v-117h-145v109q0 233 221 233t221 -227v-19q0 -98 -43 -177t-94 -122t-97 -108.5t-52 -139.5h276v-147h-432v115q0 84 29.5 152.5t71.5 115.5l84 91q42 44 72 100.5 t30 121.5v19q0 90 -72 90q-70 0 -70 -90z" />
<glyph unicode="&#xbe;" horiz-adv-x="1267" d="M295 0l612 1434h148l-613 -1434h-147zM1178 918v-594h53v-142h-53v-182h-154v182h-281v121l248 615h187zM946 465l-55 -141h133v118q0 160 23 318q-50 -166 -101 -295zM211 926v133h68q39 0 55 18.5t16 61.5v94q0 88 -71.5 88t-71.5 -88v-74h-144v68q0 229 220 229 q223 0 223 -229v-53q0 -147 -103 -183q102 -35 103 -186v-80q0 -231 -223 -231q-219 0 -220 231v86h144v-92q0 -90 71.5 -90t71.5 90v121q0 45 -16.5 65.5t-54.5 20.5h-68z" />
<glyph unicode="&#xbf;" horiz-adv-x="694" d="M469 262h193v-217q0 -344 -314 -344q-315 0 -315 344v51q0 104 27.5 178t67.5 118l80 85q40 41 67.5 105.5t27.5 152.5v64h131v-107q0 -106 -19.5 -179t-47.5 -113l-58 -76q-29 -37 -48 -96.5t-19 -143.5v-68q0 -137 112 -137q115 0 115 137v246zM473 1157v-256h-207v256 h207z" />
<glyph unicode="&#xc0;" horiz-adv-x="831" d="M575 0l-36 211h-275l-35 -211h-215l248 1434h301l248 -1434h-236zM338 659l-41 -251h209l-41 251q-43 276 -64 498q-20 -222 -63 -498zM399 1765l136 -260h-142l-198 260h204z" />
<glyph unicode="&#xc1;" horiz-adv-x="831" d="M575 0l-36 211h-275l-35 -211h-215l248 1434h301l248 -1434h-236zM338 659l-41 -251h209l-41 251q-43 276 -64 498q-20 -222 -63 -498zM295 1505l135 260h205l-199 -260h-141z" />
<glyph unicode="&#xc2;" horiz-adv-x="831" d="M575 0l-36 211h-275l-35 -211h-215l248 1434h301l248 -1434h-236zM338 659l-41 -251h209l-41 251q-43 276 -64 498q-20 -222 -63 -498zM524 1505l-108 127l-107 -127h-151l176 260h166l176 -260h-152z" />
<glyph unicode="&#xc3;" horiz-adv-x="831" d="M575 0l-36 211h-275l-35 -211h-215l248 1434h301l248 -1434h-236zM338 659l-41 -251h209l-41 251q-43 276 -64 498q-20 -222 -63 -498zM575 1735h107q-2 -211 -158 -211q-51 0 -117.5 30.5t-95.5 30.5q-49 0 -55 -69h-106q2 209 157 208q51 0 118 -30.5t95 -30.5 q51 0 55 72z" />
<glyph unicode="&#xc4;" horiz-adv-x="831" d="M575 0l-36 211h-275l-35 -211h-215l248 1434h301l248 -1434h-236zM338 659l-41 -251h209l-41 251q-43 276 -64 498q-20 -222 -63 -498zM356 1528h-188v207h188v-207zM662 1528h-191v207h191v-207z" />
<glyph unicode="&#xc5;" horiz-adv-x="831" d="M575 0l-36 211h-275l-35 -211h-215l248 1434h301l248 -1434h-236zM338 659l-41 -251h209l-41 251q-43 276 -64 498q-20 -222 -63 -498zM248 1667q0 72 49 120t118.5 48t119 -48t49.5 -120t-49.5 -120t-119 -48t-118.5 48t-49 120zM346 1667q0 -31 19.5 -51.5t50 -20.5 t50 20.5t19.5 51.5t-19.5 51.5t-50 20.5t-50 -20.5t-19.5 -51.5z" />
<glyph unicode="&#xc6;" horiz-adv-x="1091" d="M485 0v211h-209l-55 -211h-215l377 1434h653v-205h-315v-379h274v-207h-274v-438h326v-205h-562zM379 612l-51 -204h157v309q0 123 13 446q-58 -307 -119 -551z" />
<glyph unicode="&#xc7;" horiz-adv-x="821" d="M473 -162q0 29 -24.5 40t-96.5 9v95q-287 29 -286 374v721q0 379 348 379t348 -379v-182h-217v215q0 141 -123 141q-121 0 -121 -141v-786q0 -141 121 -142q123 0 123 142v258h217v-226q0 -367 -328 -379v-45q102 0 147.5 -20.5t45.5 -79.5q0 -109 -226 -108 q-102 0 -154 27.5t-46 96.5h125q-4 -33 13 -48t60 -15q74 0 74 53z" />
<glyph unicode="&#xc8;" horiz-adv-x="698" d="M326 643v-438h327v-205h-563v1434h553v-205h-317v-379h276v-207h-276zM352 1765l135 -260h-141l-199 260h205z" />
<glyph unicode="&#xc9;" horiz-adv-x="698" d="M326 643v-438h327v-205h-563v1434h553v-205h-317v-379h276v-207h-276zM248 1505l135 260h205l-199 -260h-141z" />
<glyph unicode="&#xca;" horiz-adv-x="698" d="M326 643v-438h327v-205h-563v1434h553v-205h-317v-379h276v-207h-276zM475 1505l-108 127l-107 -127h-151l176 260h166l176 -260h-152z" />
<glyph unicode="&#xcb;" horiz-adv-x="698" d="M326 643v-438h327v-205h-563v1434h553v-205h-317v-379h276v-207h-276zM309 1528h-188v207h188v-207zM614 1528h-190v207h190v-207z" />
<glyph unicode="&#xcc;" horiz-adv-x="409" d="M88 0v1434h236v-1434h-236zM190 1765l136 -260h-142l-198 260h204z" />
<glyph unicode="&#xcd;" horiz-adv-x="409" d="M88 0v1434h236v-1434h-236zM86 1505l135 260h205l-199 -260h-141z" />
<glyph unicode="&#xce;" horiz-adv-x="409" d="M88 0v1434h236v-1434h-236zM313 1505l-108 127l-107 -127h-151l176 260h166l176 -260h-152z" />
<glyph unicode="&#xcf;" horiz-adv-x="409" d="M88 0v1434h236v-1434h-236zM147 1528h-188v207h188v-207zM453 1528h-191v207h191v-207z" />
<glyph unicode="&#xd0;" horiz-adv-x="872" d="M92 0v662h-67v172h67v600h334q371 0 371 -357v-721q0 -356 -371 -356h-334zM416 1229h-88v-395h127v-172h-127v-457h88q78 0 111.5 32.5t33.5 112.5v733q0 80 -33.5 113t-111.5 33z" />
<glyph unicode="&#xd1;" horiz-adv-x="927" d="M643 1434h197v-1434h-277l-211 750q-14 53 -41.5 170.5t-38.5 156.5q14 -229 15 -332v-745h-199v1434h309l181 -629l77 -330q-12 301 -12 332v627zM623 1735h106q-2 -211 -158 -211q-51 0 -117.5 30.5t-95.5 30.5q-49 0 -55 -69h-106q2 209 157 208q51 0 118 -30.5 t95 -30.5q52 0 56 72z" />
<glyph unicode="&#xd2;" horiz-adv-x="843" d="M66 356v721q0 379 356 379q358 0 358 -379v-721q0 -379 -358 -379q-356 0 -356 379zM301 324q0 -141 121 -142q123 0 123 142v786q0 141 -123 141q-121 0 -121 -141v-786zM406 1765l135 -260h-142l-198 260h205z" />
<glyph unicode="&#xd3;" horiz-adv-x="843" d="M66 356v721q0 379 356 379q358 0 358 -379v-721q0 -379 -358 -379q-356 0 -356 379zM301 324q0 -141 121 -142q123 0 123 142v786q0 141 -123 141q-121 0 -121 -141v-786zM301 1505l135 260h205l-199 -260h-141z" />
<glyph unicode="&#xd4;" horiz-adv-x="843" d="M66 356v721q0 379 356 379q358 0 358 -379v-721q0 -379 -358 -379q-356 0 -356 379zM301 324q0 -141 121 -142q123 0 123 142v786q0 141 -123 141q-121 0 -121 -141v-786zM530 1505l-108 127l-107 -127h-151l176 260h166l176 -260h-152z" />
<glyph unicode="&#xd5;" horiz-adv-x="843" d="M66 356v721q0 379 356 379q358 0 358 -379v-721q0 -379 -358 -379q-356 0 -356 379zM301 324q0 -141 121 -142q123 0 123 142v786q0 141 -123 141q-121 0 -121 -141v-786zM582 1735h106q-2 -211 -158 -211q-51 0 -117.5 30.5t-95.5 30.5q-49 0 -55 -69h-106 q2 209 157 208q51 0 118 -30.5t95 -30.5q52 0 56 72z" />
<glyph unicode="&#xd6;" horiz-adv-x="843" d="M66 356v721q0 379 356 379q358 0 358 -379v-721q0 -379 -358 -379q-356 0 -356 379zM301 324q0 -141 121 -142q123 0 123 142v786q0 141 -123 141q-121 0 -121 -141v-786zM365 1528h-189v207h189v-207zM670 1528h-191v207h191v-207z" />
<glyph unicode="&#xd7;" d="M588 1040l123 -122l-209 -203l209 -201l-123 -123l-203 207l-201 -205l-123 121l205 201l-205 203l123 122l201 -206z" />
<glyph unicode="&#xd8;" horiz-adv-x="843" d="M66 356v721q0 379 356 379q90 0 160 -24l28 81l156 -51l-47 -137q61 -94 61 -248v-721q0 -379 -358 -379q-92 0 -160 25l-26 -82l-156 51l47 135q-61 92 -61 250zM422 182q123 0 123 142v516l-211 -629q29 -29 88 -29zM301 1110v-516l209 627q-31 31 -88 30 q-121 0 -121 -141z" />
<glyph unicode="&#xd9;" horiz-adv-x="851" d="M313 317q0 -135 123 -135q121 0 121 135v1117h219v-1098q0 -358 -348 -359q-350 0 -350 359v1098h235v-1117zM410 1765l135 -260h-142l-198 260h205z" />
<glyph unicode="&#xda;" horiz-adv-x="851" d="M313 317q0 -135 123 -135q121 0 121 135v1117h219v-1098q0 -358 -348 -359q-350 0 -350 359v1098h235v-1117zM307 1505l135 260h205l-198 -260h-142z" />
<glyph unicode="&#xdb;" horiz-adv-x="851" d="M313 317q0 -135 123 -135q121 0 121 135v1117h219v-1098q0 -358 -348 -359q-350 0 -350 359v1098h235v-1117zM532 1505l-108 127l-107 -127h-151l176 260h166l176 -260h-152z" />
<glyph unicode="&#xdc;" horiz-adv-x="851" d="M313 317q0 -135 123 -135q121 0 121 135v1117h219v-1098q0 -358 -348 -359q-350 0 -350 359v1098h235v-1117zM367 1528h-189v207h189v-207zM672 1528h-191v207h191v-207z" />
<glyph unicode="&#xdd;" horiz-adv-x="835" d="M500 1034l100 400h221l-282 -965v-469h-236v455l-285 979h242l102 -400q57 -221 70 -307q13 88 68 307zM297 1505l135 260h205l-199 -260h-141z" />
<glyph unicode="&#xde;" horiz-adv-x="823" d="M90 1434h236v-144h94q371 0 371 -356v-234q0 -358 -371 -358h-94v-342h-236v1434zM326 1085v-536h84q78 0 111.5 32.5t33.5 110.5v248q0 80 -34 112.5t-111 32.5h-84z" />
<glyph unicode="&#xdf;" horiz-adv-x="784" d="M727 1137v-62q0 -217 -160 -262q160 -41 160 -258v-313q0 -133 -59.5 -195.5t-192.5 -62.5q-59 0 -108 16v178q29 -10 59 -10q53 0 72.5 24.5t19.5 81.5v338q0 121 -125 121h-26v160h26q125 0 125 125v129q0 131 -112.5 131t-112.5 -131v-1147h-209v1137q0 170 81 244.5 t240.5 74.5t240.5 -74.5t81 -244.5z" />
<glyph unicode="&#xe0;" horiz-adv-x="765" d="M516 0q-18 45 -24 129q-25 -68 -81.5 -110t-134.5 -42q-227 0 -227 277v16q0 106 45 180t108.5 110t127 61.5t108.5 59.5t45 81v12q0 133 -106 133q-109 0 -109 -133v-78h-194v52q0 336 311 335q307 0 307 -335v-402q0 -229 23 -346h-199zM483 299v223q-14 -8 -52 -25.5 t-54.5 -26.5t-45 -28.5t-42 -38t-23.5 -48t-10 -64.5v-15q0 -70 25.5 -96t76.5 -26q55 0 90 42t35 103zM367 1423l135 -260h-142l-198 260h205z" />
<glyph unicode="&#xe1;" horiz-adv-x="765" d="M516 0q-18 45 -24 129q-25 -68 -81.5 -110t-134.5 -42q-227 0 -227 277v16q0 106 45 180t108.5 110t127 61.5t108.5 59.5t45 81v12q0 133 -106 133q-109 0 -109 -133v-78h-194v52q0 336 311 335q307 0 307 -335v-402q0 -229 23 -346h-199zM483 299v223q-14 -8 -52 -25.5 t-54.5 -26.5t-45 -28.5t-42 -38t-23.5 -48t-10 -64.5v-15q0 -70 25.5 -96t76.5 -26q55 0 90 42t35 103zM264 1163l135 260h205l-198 -260h-142z" />
<glyph unicode="&#xe2;" horiz-adv-x="765" d="M516 0q-18 45 -24 129q-25 -68 -81.5 -110t-134.5 -42q-227 0 -227 277v16q0 106 45 180t108.5 110t127 61.5t108.5 59.5t45 81v12q0 133 -106 133q-109 0 -109 -133v-78h-194v52q0 336 311 335q307 0 307 -335v-402q0 -229 23 -346h-199zM483 299v223q-14 -8 -52 -25.5 t-54.5 -26.5t-45 -28.5t-42 -38t-23.5 -48t-10 -64.5v-15q0 -70 25.5 -96t76.5 -26q55 0 90 42t35 103zM489 1163l-108 127l-107 -127h-151l176 260h166l176 -260h-152z" />
<glyph unicode="&#xe3;" horiz-adv-x="765" d="M516 0q-18 45 -24 129q-25 -68 -81.5 -110t-134.5 -42q-227 0 -227 277v16q0 106 45 180t108.5 110t127 61.5t108.5 59.5t45 81v12q0 133 -106 133q-109 0 -109 -133v-78h-194v52q0 336 311 335q307 0 307 -335v-402q0 -229 23 -346h-199zM483 299v223q-14 -8 -52 -25.5 t-54.5 -26.5t-45 -28.5t-42 -38t-23.5 -48t-10 -64.5v-15q0 -70 25.5 -96t76.5 -26q55 0 90 42t35 103zM541 1393h106q-2 -211 -158 -211q-51 0 -117.5 30.5t-95.5 30.5q-49 0 -55 -69h-106q2 209 157 208q51 0 118 -30.5t95 -30.5q52 0 56 72z" />
<glyph unicode="&#xe4;" horiz-adv-x="765" d="M516 0q-18 45 -24 129q-25 -68 -81.5 -110t-134.5 -42q-227 0 -227 277v16q0 106 45 180t108.5 110t127 61.5t108.5 59.5t45 81v12q0 133 -106 133q-109 0 -109 -133v-78h-194v52q0 336 311 335q307 0 307 -335v-402q0 -229 23 -346h-199zM483 299v223q-14 -8 -52 -25.5 t-54.5 -26.5t-45 -28.5t-42 -38t-23.5 -48t-10 -64.5v-15q0 -70 25.5 -96t76.5 -26q55 0 90 42t35 103zM324 1186h-189v207h189v-207zM629 1186h-191v207h191v-207z" />
<glyph unicode="&#xe5;" horiz-adv-x="765" d="M516 0q-18 45 -24 129q-25 -68 -81.5 -110t-134.5 -42q-227 0 -227 277v16q0 106 45 180t108.5 110t127 61.5t108.5 59.5t45 81v12q0 133 -106 133q-109 0 -109 -133v-78h-194v52q0 336 311 335q307 0 307 -335v-402q0 -229 23 -346h-199zM483 299v223q-14 -8 -52 -25.5 t-54.5 -26.5t-45 -28.5t-42 -38t-23.5 -48t-10 -64.5v-15q0 -70 25.5 -96t76.5 -26q55 0 90 42t35 103zM213 1325q0 72 49 120t119 48t119 -48t49 -120t-49 -120t-119 -48t-119 48t-49 120zM311 1325q0 -31 19.5 -51.5t50.5 -20.5t50.5 20.5t19.5 51.5t-19.5 51.5 t-50.5 20.5t-50.5 -20.5t-19.5 -51.5z" />
<glyph unicode="&#xe6;" horiz-adv-x="1171" d="M358 154q55 0 90 42t35 103v223q-14 -8 -52 -25.5t-54.5 -26.5t-45 -28.5t-42 -38t-23.5 -48t-10 -64.5v-15q0 -70 25.5 -96t76.5 -26zM1112 469h-420v-182q0 -131 113 -131q115 0 115 131v69h192v-41q0 -338 -315 -338q-236 0 -295 189q-18 -82 -77.5 -135.5 t-148.5 -53.5q-227 0 -227 277v16q0 106 45 180t108.5 110t127 61.5t108.5 59.5t45 81v12q0 131 -108 131q-57 0 -82 -31.5t-25 -99.5v-78h-194v49q0 338 288 338q160 0 228 -100q74 100 231 100q291 0 291 -338v-276zM692 774v-135h228v135q0 131 -115 131 q-113 0 -113 -131z" />
<glyph unicode="&#xe7;" horiz-adv-x="747" d="M438 -162q0 29 -24.5 40t-96.5 9v95q-252 29 -251 333v430q0 338 313 338t313 -338v-86h-192v115q0 131 -113 131q-115 0 -115 -131v-487q0 -131 115 -131q113 0 113 131v135h192v-107q0 -326 -293 -338v-45q102 0 147.5 -20.5t45.5 -79.5q0 -109 -225 -108 q-102 0 -154.5 27.5t-46.5 96.5h125q-4 -33 13.5 -48t60.5 -15q73 0 73 53z" />
<glyph unicode="&#xe8;" horiz-adv-x="751" d="M692 469h-420v-182q0 -131 115 -131q113 0 113 131v69h192v-41q0 -338 -313 -338t-313 338v430q0 338 313 338t313 -338v-276zM272 774v-135h228v135q0 131 -113 131q-115 0 -115 -131zM365 1423l135 -260h-142l-198 260h205z" />
<glyph unicode="&#xe9;" horiz-adv-x="751" d="M692 469h-420v-182q0 -131 115 -131q113 0 113 131v69h192v-41q0 -338 -313 -338t-313 338v430q0 338 313 338t313 -338v-276zM272 774v-135h228v135q0 131 -113 131q-115 0 -115 -131zM260 1163l135 260h205l-199 -260h-141z" />
<glyph unicode="&#xea;" horiz-adv-x="751" d="M692 469h-420v-182q0 -131 115 -131q113 0 113 131v69h192v-41q0 -338 -313 -338t-313 338v430q0 338 313 338t313 -338v-276zM272 774v-135h228v135q0 131 -113 131q-115 0 -115 -131zM487 1163l-108 127l-107 -127h-151l176 260h166l176 -260h-152z" />
<glyph unicode="&#xeb;" horiz-adv-x="751" d="M692 469h-420v-182q0 -131 115 -131q113 0 113 131v69h192v-41q0 -338 -313 -338t-313 338v430q0 338 313 338t313 -338v-276zM272 774v-135h228v135q0 131 -113 131q-115 0 -115 -131zM322 1186h-189v207h189v-207zM627 1186h-191v207h191v-207z" />
<glyph unicode="&#xec;" horiz-adv-x="376" d="M172 1423l135 -260h-141l-199 260h205zM293 0h-209v1061h209v-1061z" />
<glyph unicode="&#xed;" horiz-adv-x="376" d="M70 1163l135 260h205l-199 -260h-141zM293 0h-209v1061h209v-1061z" />
<glyph unicode="&#xee;" horiz-adv-x="376" d="M293 0h-209v1061h209v-1061zM297 1163l-109 127l-106 -127h-152l176 260h166l177 -260h-152z" />
<glyph unicode="&#xef;" horiz-adv-x="376" d="M131 1186h-188v207h188v-207zM436 1186h-190v207h190v-207zM293 0h-209v1061h209v-1061z" />
<glyph unicode="&#xf0;" horiz-adv-x="782" d="M387 1122l-45 45l82 82q-37 18 -100 19h-72l35 166h67q129 0 207 -45l45 45h94l-86 -84q92 -92 93 -295v-740q0 -338 -320 -338q-322 0 -321 338v473q0 295 225 295q143 0 209 -129v111q0 96 -27 143zM500 287v473q0 61 -36 103t-89 42t-78 -29.5t-25 -101.5v-487 q0 -131 115 -131q113 0 113 131z" />
<glyph unicode="&#xf1;" horiz-adv-x="800" d="M293 0h-209v1061h195v-143q23 74 81 119.5t140 45.5q227 0 227 -295v-788h-209v774q0 72 -24.5 101.5t-78 29.5t-88 -42t-34.5 -103v-760zM559 1393h107q-2 -211 -158 -211q-51 0 -117.5 30.5t-95.5 30.5q-49 0 -55 -69h-107q2 209 158 208q51 0 117.5 -30.5t95.5 -30.5 q51 0 55 72z" />
<glyph unicode="&#xf2;" d="M707 315q0 -338 -320 -338q-322 0 -321 338v430q0 338 321 338q319 0 320 -338v-430zM500 774q0 131 -113 131q-115 0 -115 -131v-487q0 -131 115 -131q113 0 113 131v487zM369 1423l135 -260h-142l-198 260h205z" />
<glyph unicode="&#xf3;" d="M707 315q0 -338 -320 -338q-322 0 -321 338v430q0 338 321 338q319 0 320 -338v-430zM500 774q0 131 -113 131q-115 0 -115 -131v-487q0 -131 115 -131q113 0 113 131v487zM266 1163l135 260h205l-198 -260h-142z" />
<glyph unicode="&#xf4;" d="M707 315q0 -338 -320 -338q-322 0 -321 338v430q0 338 321 338q319 0 320 -338v-430zM500 774q0 131 -113 131q-115 0 -115 -131v-487q0 -131 115 -131q113 0 113 131v487zM494 1163l-109 127l-106 -127h-152l176 260h166l176 -260h-151z" />
<glyph unicode="&#xf5;" d="M707 315q0 -338 -320 -338q-322 0 -321 338v430q0 338 321 338q319 0 320 -338v-430zM500 774q0 131 -113 131q-115 0 -115 -131v-487q0 -131 115 -131q113 0 113 131v487zM545 1393h106q-2 -211 -157 -211q-51 0 -118 30.5t-95 30.5q-49 0 -56 -69h-106q2 209 157 208 q51 0 118 -30.5t95 -30.5q52 0 56 72z" />
<glyph unicode="&#xf6;" d="M707 315q0 -338 -320 -338q-322 0 -321 338v430q0 338 321 338q319 0 320 -338v-430zM500 774q0 131 -113 131q-115 0 -115 -131v-487q0 -131 115 -131q113 0 113 131v487zM328 1186h-189v207h189v-207zM633 1186h-191v207h191v-207z" />
<glyph unicode="&#xf7;" d="M254 1008q0 55 38 92t93 37q57 0 94 -37t37 -92q0 -57 -37 -95.5t-94 -38.5q-55 0 -93 38.5t-38 95.5zM254 418q0 55 38 92t93 37q57 0 94 -37t37 -92q0 -57 -37 -95t-94 -38q-55 0 -93 38t-38 95zM707 803v-174h-641v174h641z" />
<glyph unicode="&#xf8;" d="M707 315q0 -338 -320 -338q-88 0 -149 25l-39 -90l-136 59l54 125q-51 78 -51 219v430q0 338 321 338q84 0 145 -24l41 90l136 -59l-56 -127q53 -82 54 -218v-430zM387 156q113 0 113 131v340l-189 -453q29 -18 76 -18zM272 774v-340l187 451q-27 20 -72 20 q-115 0 -115 -131z" />
<glyph unicode="&#xf9;" horiz-adv-x="800" d="M510 301v760h207v-715q0 -231 24 -346h-198q-18 45 -25 127q-27 -68 -83 -109t-134 -41q-225 0 -225 295v789h207v-774q0 -72 24.5 -101.5t77.5 -29.5t89 42t36 103zM385 1423l135 -260h-141l-199 260h205z" />
<glyph unicode="&#xfa;" horiz-adv-x="800" d="M510 301v760h207v-715q0 -231 24 -346h-198q-18 45 -25 127q-27 -68 -83 -109t-134 -41q-225 0 -225 295v789h207v-774q0 -72 24.5 -101.5t77.5 -29.5t89 42t36 103zM281 1163l135 260h205l-199 -260h-141z" />
<glyph unicode="&#xfb;" horiz-adv-x="800" d="M510 301v760h207v-715q0 -231 24 -346h-198q-18 45 -25 127q-27 -68 -83 -109t-134 -41q-225 0 -225 295v789h207v-774q0 -72 24.5 -101.5t77.5 -29.5t89 42t36 103zM508 1163l-109 127l-106 -127h-152l176 260h166l176 -260h-151z" />
<glyph unicode="&#xfc;" horiz-adv-x="800" d="M510 301v760h207v-715q0 -231 24 -346h-198q-18 45 -25 127q-27 -68 -83 -109t-134 -41q-225 0 -225 295v789h207v-774q0 -72 24.5 -101.5t77.5 -29.5t89 42t36 103zM342 1186h-188v207h188v-207zM647 1186h-190v207h190v-207z" />
<glyph unicode="&#xfd;" horiz-adv-x="731" d="M84 -266v164q41 -10 82 -11q63 0 80 62q6 27 -4 71l-234 1041h215l99 -492q39 -199 51 -344q25 201 53 344l98 492h197l-242 -1133q-23 -106 -84 -155t-192 -49q-74 0 -119 10zM244 1163l135 260h205l-199 -260h-141z" />
<glyph unicode="&#xfe;" horiz-adv-x="792" d="M293 760v-459q0 -61 34.5 -103t88 -42t78 29.5t24.5 101.5v487q0 72 -24.5 101.5t-78 29.5t-88 -42t-34.5 -103zM727 788v-516q0 -295 -227 -295q-143 0 -207 129v-364h-209v1692h209v-480q63 129 207 129q227 0 227 -295z" />
<glyph unicode="&#xff;" horiz-adv-x="731" d="M84 -266v164q41 -10 82 -11q63 0 80 62q6 27 -4 71l-234 1041h215l99 -492q39 -199 51 -344q25 201 53 344l98 492h197l-242 -1133q-23 -106 -84 -155t-192 -49q-74 0 -119 10zM315 1186h-188v207h188v-207zM621 1186h-191v207h191v-207z" />
<glyph unicode="&#x152;" horiz-adv-x="1150" d="M780 643v-438h326v-205h-662q-369 0 -368 356v721q0 356 368 357h652v-205h-316v-379h275v-207h-275zM545 205v1024h-88q-78 0 -112 -33t-34 -113v-733q0 -80 34 -112.5t112 -32.5h88z" />
<glyph unicode="&#x153;" horiz-adv-x="1187" d="M936 356h192v-41q0 -338 -290 -338q-170 0 -236 115q-68 -115 -235 -115q-301 0 -301 338v430q0 338 301 338q166 0 235 -116q66 117 236 116q291 0 290 -338v-276h-419v-182q0 -131 112 -131q115 0 115 131v69zM500 287v487q0 131 -113 131q-115 0 -115 -131v-487 q0 -131 115 -131q113 0 113 131zM709 774v-135h227v135q0 131 -115 131q-112 0 -112 -131z" />
<glyph unicode="&#x178;" horiz-adv-x="835" d="M500 1034l100 400h221l-282 -965v-469h-236v455l-285 979h242l102 -400q57 -221 70 -307q13 88 68 307zM360 1528h-188v207h188v-207zM666 1528h-191v207h191v-207z" />
<glyph unicode="&#x2c6;" horiz-adv-x="581" d="M399 1163l-108 127l-107 -127h-151l176 260h166l176 -260h-152z" />
<glyph unicode="&#x2dc;" horiz-adv-x="581" d="M451 1393h106q-2 -211 -158 -211q-51 0 -117.5 30.5t-95.5 30.5q-49 0 -55 -69h-106q2 209 157 208q51 0 118 -30.5t95 -30.5q52 0 56 72z" />
<glyph unicode="&#x2013;" horiz-adv-x="1024" d="M1024 621v-181h-1024v181h1024z" />
<glyph unicode="&#x2014;" horiz-adv-x="2048" d="M2048 621v-181h-2048v181h2048z" />
<glyph unicode="&#x2018;" horiz-adv-x="387" d="M299 1212v-311h-209v311l201 222l18 -15l-119 -207h109z" />
<glyph unicode="&#x2019;" horiz-adv-x="387" d="M88 1122v312h209v-312l-201 -221l-18 14l119 207h-109z" />
<glyph unicode="&#x201a;" horiz-adv-x="387" d="M88 0v311h209v-311l-201 -221l-18 14l119 207h-109z" />
<glyph unicode="&#x201c;" horiz-adv-x="727" d="M639 1212v-311h-209v311l201 222l18 -15l-119 -207h109zM299 1212v-311h-209v311l201 222l18 -15l-119 -207h109z" />
<glyph unicode="&#x201d;" horiz-adv-x="727" d="M428 1122v312h209v-312l-201 -221l-18 14l119 207h-109zM88 1122v312h209v-312l-201 -221l-18 14l119 207h-109z" />
<glyph unicode="&#x201e;" horiz-adv-x="727" d="M428 0v311h209v-311l-201 -221l-18 14l119 207h-109zM88 0v311h209v-311l-201 -221l-18 14l119 207h-109z" />
<glyph unicode="&#x2022;" horiz-adv-x="714" d="M92 717q0 111 77 188.5t187 77.5q109 0 187 -79t78 -187.5t-78 -185t-187 -76.5q-111 0 -187.5 76.5t-76.5 185.5z" />
<glyph unicode="&#x2026;" horiz-adv-x="1069" d="M88 0v311h209v-311h-209zM428 0v311h209v-311h-209zM770 0v311h209v-311h-209z" />
<glyph unicode="&#x2039;" horiz-adv-x="495" d="M20 530l250 531h205l-250 -531l250 -530h-205z" />
<glyph unicode="&#x203a;" horiz-adv-x="495" d="M225 1061l250 -531l-250 -530h-205l250 530l-250 531h205z" />
<glyph unicode="&#x20ac;" d="M0 565v88h63v127h-63v88h66v250q0 338 321 338q319 0 320 -338v-110h-207v139q0 131 -113 131q-115 0 -115 -131v-279h435v-88h-435v-127h435v-88h-435v-278q0 -131 115 -131q113 0 113 131v139h207v-111q0 -338 -320 -338q-322 0 -321 338v250h-66z" />
<glyph unicode="&#x2122;" horiz-adv-x="1036" d="M842 686v283q0 76 10 305q-23 -152 -53 -305l-51 -283h-117l-53 283l-52 305q0 -31 5.5 -137.5t5.5 -167.5v-283h-117v748h205l43 -242q16 -84 30 -231q14 143 29 231l43 242h207v-748h-135zM0 1313v121h360v-121h-110v-627h-139v627h-111z" />
<glyph unicode="&#xe000;" horiz-adv-x="1060" d="M0 1060h1060v-1060h-1060v1060z" />
<glyph unicode="&#xfb01;" horiz-adv-x="876" d="M324 1171v-110h184v-178h-184v-883h-207v883h-90v178h90v143q0 131 59.5 191.5t188.5 60.5q80 0 143 -22v-168q-35 16 -92 16q-49 0 -70.5 -26t-21.5 -85zM793 0h-209v1061h209v-1061zM793 1221h-209v213h209v-213z" />
<glyph unicode="&#xfb02;" horiz-adv-x="876" d="M324 1171v-110h184v-178h-184v-883h-207v883h-90v178h90v143q0 131 59.5 191.5t188.5 60.5q80 0 143 -22v-168q-35 16 -92 16q-49 0 -70.5 -26t-21.5 -85zM793 0h-209v1434h209v-1434z" />
<glyph unicode="&#xfb03;" horiz-adv-x="1374" d="M1291 0h-209v1061h209v-1061zM1291 1221h-209v213h209v-213zM823 1171v-110h184v-178h-184v-883h-207v883h-90v178h90v143q0 131 59.5 191.5t188.5 60.5q80 0 143 -22v-168q-35 16 -92 16q-49 0 -70.5 -26t-21.5 -85zM324 1171v-110h184v-178h-184v-883h-207v883h-90v178 h90v143q0 131 59.5 191.5t188.5 60.5q80 0 143 -22v-168q-35 16 -92 16q-49 0 -70.5 -26t-21.5 -85z" />
<glyph unicode="&#xfb04;" horiz-adv-x="1374" d="M1291 0h-209v1434h209v-1434zM823 1171v-110h184v-178h-184v-883h-207v883h-90v178h90v143q0 131 59.5 191.5t188.5 60.5q80 0 143 -22v-168q-35 16 -92 16q-49 0 -70.5 -26t-21.5 -85zM324 1171v-110h184v-178h-184v-883h-207v883h-90v178h90v143q0 131 59.5 191.5 t188.5 60.5q80 0 143 -22v-168q-35 16 -92 16q-49 0 -70.5 -26t-21.5 -85z" />
</font>
</defs>
</svg>
