<?xml version="1.0" standalone="no"?>
<!DOCTYPE svg PUBLIC "-//W3C//DTD SVG 1.1//EN" "http://www.w3.org/Graphics/SVG/1.1/DTD/svg11.dtd" >
<svg xmlns="http://www.w3.org/2000/svg">
<metadata>
This is a custom SVG webfont generated by Fontspring.
</metadata>
<defs>
<font id="RamaGothicEThin" horiz-adv-x="684" >
<font-face units-per-em="2048" ascent="1638" descent="-410" />
<missing-glyph horiz-adv-x="346" />
<glyph unicode=" "  horiz-adv-x="346" />
<glyph unicode="&#x09;" horiz-adv-x="346" />
<glyph unicode="&#xa0;" horiz-adv-x="346" />
<glyph unicode="!" horiz-adv-x="348" d="M133 0v186h84v-186h-84zM217 905l-29 -567h-26l-33 567v529h88v-529z" />
<glyph unicode="&#x22;" horiz-adv-x="606" d="M477 1198l-20 -473h-41l-21 473v236h82v-236zM213 1198l-20 -473h-41l-21 473v236h82v-236z" />
<glyph unicode="#" d="M74 954l6 70h113l43 410h73l-43 -410h215l43 410h74l-43 -410h113l-6 -70h-115l-49 -475h112l-6 -69h-112l-43 -410h-74l43 410h-215l-43 -410h-74l43 410h-113l7 69h112l49 475h-110zM258 954l-49 -475h215l49 475h-215z" />
<glyph unicode="$" d="M307 -98v98q-225 20 -225 291v217h82v-221q0 -211 176 -211q174 0 174 211v24q0 96 -31.5 172t-80.5 122l-104 101l-104 104q-48 50 -80 136t-32 195v2q0 272 225 289v100h66v-100q227 -16 227 -289v-217h-82v221q0 211 -176 211q-92 0 -133 -52.5t-41 -158.5v-10 q0 -96 31.5 -172t80.5 -122l104 -101l104 -104q48 -50 80 -136t32 -195v-16q0 -274 -227 -291v-98h-66z" />
<glyph unicode="%" horiz-adv-x="1159" d="M272 0l541 1434h74l-541 -1434h-74zM1087 735v-553q0 -203 -182 -202.5t-182 202.5v553q0 203 182 203t182 -203zM1010 180v557q0 129 -104.5 129t-104.5 -129v-557q0 -129 104.5 -129t104.5 129zM436 1251v-553q0 -203 -182 -202.5t-182 202.5v553q0 203 182 203 t182 -203zM358 696v557q0 129 -104 129t-104 -129v-557q0 -129 104 -129t104 129z" />
<glyph unicode="&#x26;" horiz-adv-x="851" d="M356 897q229 -594 265 -723q86 139 86 418v237h73v-231q0 -322 -116 -483q33 -49 88 -49q47 0 73 10v-76q-41 -12 -84 -12q-92 0 -137 59q-82 -68 -180 -67q-86 0 -147.5 43t-118.5 182l-54 127q-55 129 -55 229q0 143 113 250l100 94q-68 197 -67 312q0 106 49 171.5 t141 65.5q180 0 180 -215q0 -88 -44 -158.5t-152 -171.5zM424 57q82 0 143 54l-278 723l-78 -72q-80 -74 -80 -184q0 -94 49 -209l56 -129q47 -113 89 -148t99 -35zM276 1217q0 -78 48 -254l14 14q86 80 120 137t34 125q0 137 -107 137q-109 1 -109 -159z" />
<glyph unicode="'" horiz-adv-x="342" d="M213 1198l-20 -473h-41l-21 473v236h82v-236z" />
<glyph unicode="(" horiz-adv-x="413" d="M90 1135q0 299 270 299h54v-72h-54q-100 0 -143 -52.5t-43 -174.5v-1022q0 -123 43 -175.5t143 -52.5h54v-71h-54q-270 0 -270 299v1022z" />
<glyph unicode=")" horiz-adv-x="413" d="M324 1135v-1022q0 -299 -271 -299h-53v71h53q100 0 143.5 52.5t43.5 175.5v1022q0 123 -43 175t-144 52h-53v72h53q271 0 271 -299z" />
<glyph unicode="*" horiz-adv-x="735" d="M2 862l322 170l-322 170l37 62l303 -193l-10 363h71l-12 -363l305 193l37 -62l-321 -170l321 -170l-37 -61l-305 190l12 -360h-71l10 360l-303 -190z" />
<glyph unicode="+" d="M381 430h-80v246h-211v80h211v243h80v-243h213v-80h-213v-246z" />
<glyph unicode="," horiz-adv-x="342" d="M129 0v201h82v-201l-100 -188l-15 6l70 182h-37z" />
<glyph unicode="-" horiz-adv-x="552" d="M475 567v-78h-397v78h397z" />
<glyph unicode="." horiz-adv-x="342" d="M129 0v201h82v-201h-82z" />
<glyph unicode="/" horiz-adv-x="591" d="M25 0l458 1434h84l-461 -1434h-81z" />
<glyph unicode="0" d="M594 260q0 -281 -252 -280.5t-252 280.5v914q0 281 252 280.5t252 -280.5v-914zM512 1180q0 203 -170 202.5t-170 -202.5v-926q0 -203 170 -203q90 0 130 50.5t40 152.5v926z" />
<glyph unicode="1" horiz-adv-x="409" d="M57 1298v70h86q70 0 70 66h57v-1434h-82v1298h-131z" />
<glyph unicode="2" horiz-adv-x="653" d="M162 934h-78v229q0 291 250 291t250 -291v-30q0 -127 -43 -231.5t-106 -181.5l-125 -154q-62 -77 -105 -185.5t-43 -239.5v-59h420v-82h-502v139q0 143 43 258t105 194l125 152q62 74 105.5 172.5t43.5 217.5v36q0 213 -170 213t-170 -213v-235z" />
<glyph unicode="3" horiz-adv-x="659" d="M80 500h78v-236q0 -213 170 -213t170 213v236q0 109 -39 161t-131 52h-90v71h90q92 0 131 52.5t39 160.5v172q0 213 -170 213t-170 -213v-174h-78v168q0 291 250 291t250 -291v-151q0 -121 -33 -181.5t-101 -82.5q133 -41 134 -263v-215q0 -291 -250 -290.5t-250 290.5 v230z" />
<glyph unicode="4" horiz-adv-x="667" d="M610 408v-78h-94v-330h-82v330h-377v69l359 1035h100v-1026h94zM338 977l-197 -569h293v565q0 270 12 370q-40 -165 -108 -366z" />
<glyph unicode="5" horiz-adv-x="696" d="M106 489h78v-225q0 -213 170 -213t170 213v555q0 115 -35.5 158t-113.5 43q-80 0 -135.5 -67.5t-55.5 -159.5v-99h-78v740h496v-82h-418v-404q27 63 83.5 103.5t127.5 40.5q211 0 211 -273v-549q0 -291 -250 -290.5t-250 290.5v219z" />
<glyph unicode="6" horiz-adv-x="673" d="M172 1169v-327q27 63 83 103t128 40q211 0 211 -272v-453q0 -281 -252 -280.5t-252 280.5v903q0 291 250 291t250 -291v-35h-78v41q0 213 -170 213t-170 -213zM362.5 913q-77.5 0 -134 -67.5t-56.5 -159.5v-432q0 -203 170 -203t170 203v459q0 115 -36 157.5t-113.5 42.5 z" />
<glyph unicode="7" horiz-adv-x="618" d="M74 1352v82h499v-74l-409 -1360h-90l422 1352h-422z" />
<glyph unicode="8" horiz-adv-x="663" d="M584 1012q0 -215 -129 -264q129 -49 129 -263v-225q0 -281 -252 -280.5t-252 280.5v225q0 213 129 263q-129 49 -129 264v162q0 281 252 280.5t252 -280.5v-162zM332 713q-104 0 -137 -50.5t-33 -173.5v-235q0 -203 170 -203t170 203v235q0 121 -35 172.5t-135 51.5z M332 784q100 0 135 51.5t35 172.5v170q0 205 -170 204.5t-170 -204.5v-170q0 -123 34 -173.5t136 -50.5z" />
<glyph unicode="9" horiz-adv-x="673" d="M80 741v433q0 281 252 280.5t252 -280.5v-904q0 -291 -250 -290.5t-250 290.5v56h78v-62q0 -213 170 -213t170 213v348q-27 -63 -82 -103t-129 -40q-211 0 -211 272zM311 541q80 0 135.5 67.5t55.5 159.5v412q0 203 -170 202.5t-170 -202.5v-439q0 -115 35.5 -157.5 t113.5 -42.5z" />
<glyph unicode=":" horiz-adv-x="342" d="M129 774v201h82v-201h-82zM129 0v201h82v-201h-82z" />
<glyph unicode=";" horiz-adv-x="342" d="M129 0v201h82v-201l-100 -188l-15 6l70 182h-37zM129 774v201h82v-201h-82z" />
<glyph unicode="&#x3c;" d="M176 717l418 -205v-82l-504 248v74l504 247v-75z" />
<glyph unicode="=" d="M594 598v-80h-504v80h504zM594 913v-79h-504v79h504z" />
<glyph unicode="&#x3e;" d="M90 512l418 205l-418 207v75l504 -247v-74l-504 -248v82z" />
<glyph unicode="?" horiz-adv-x="585" d="M121 934h-78v229q0 291 250 291t250 -291v-37q0 -115 -24.5 -190.5t-60.5 -118.5l-72 -87q-36 -44 -60.5 -126t-24.5 -205v-61h-37v98q0 123 20.5 203t49.5 122l57 81q29 39 49.5 112.5t20.5 186.5v28q0 213 -170 213t-170 -213v-235zM242 0v215h82v-215h-82z" />
<glyph unicode="@" horiz-adv-x="1284" d="M90 717q0 129 11.5 227t45 198.5t93 165t162 105.5t241.5 41t240.5 -41t161 -105.5t93 -165t45 -198.5t11.5 -227t-11.5 -227.5t-45 -199t-93 -165t-161 -105t-240.5 -40.5t-241.5 40.5t-162 105t-93 165t-45 199t-11.5 227.5zM168 717q0 -119 8 -205t36 -178t78 -149.5 t139 -94.5t214 -37q123 0 212 37t139 94.5t79 149.5t37 178t8 205t-8 205t-37 178t-79 149.5t-139 94t-212 36.5q-125 0 -214 -36.5t-139 -94t-78 -149.5t-36 -178t-8 -205zM819 975v-496q0 -111 19 -209h-68q-12 25 -16 99q-16 -49 -58.5 -82t-95.5 -33q-152 0 -151 207v43 q0 98 46 163.5t100 91t100 64.5t46 90v58q0 72 -23.5 103.5t-78.5 31.5t-78.5 -33t-23.5 -102v-111h-74v115q0 203 180 203q176 0 176 -203zM741 459v119v215q-20 -23 -81.5 -62t-96.5 -86t-35 -125v-59q0 -80 26 -106.5t73 -26.5t80.5 39t33.5 92z" />
<glyph unicode="A" horiz-adv-x="659" d="M541 0l-47 258h-344l-46 -258h-77l249 1434h103l250 -1434h-88zM256 866l-94 -530h319l-94 530q-41 233 -65 467q-25 -234 -66 -467z" />
<glyph unicode="B" horiz-adv-x="741" d="M125 1434h231q137 0 215 -61.5t78 -231.5v-135q0 -207 -151 -258q156 -49 155 -256v-199q0 -170 -79.5 -231.5t-217.5 -61.5h-231v1434zM344 711h-131v-633h131q127 0 174 45t47 168v207q0 123 -47 168t-174 45zM213 786h131q127 0 174 45.5t47 167.5v144q0 123 -47 168 t-174 45h-131v-570z" />
<glyph unicode="C" horiz-adv-x="712" d="M178 276q0 -219 184.5 -219t184.5 219v254h84v-247q0 -303 -270.5 -303t-270.5 303v868q0 303 270.5 303t270.5 -303v-207h-84v213q0 219 -184.5 219t-184.5 -219v-881z" />
<glyph unicode="D" horiz-adv-x="759" d="M125 0v1434h217q307 0 307 -304v-827q0 -303 -307 -303h-217zM330 1356h-117v-1278h117q127 0 179 50t52 173v832q0 123 -52 173t-179 50z" />
<glyph unicode="E" horiz-adv-x="630" d="M213 709v-631h356v-78h-444v1434h434v-78h-346v-570h317v-77h-317z" />
<glyph unicode="F" horiz-adv-x="577" d="M213 688v-688h-88v1434h426v-78h-338v-590h309v-78h-309z" />
<glyph unicode="G" horiz-adv-x="722" d="M547 276v424h-185v78h271v-778h-45l-10 127q-51 -147 -232 -147q-256 0 -256 303v868q0 303 270.5 303t270.5 -303v-197h-84v203q0 219 -184.5 219t-184.5 -219v-881q0 -219 184.5 -219t184.5 219z" />
<glyph unicode="H" horiz-adv-x="794" d="M213 709v-709h-88v1434h88v-648h369v648h88v-1434h-88v709h-369z" />
<glyph unicode="I" horiz-adv-x="329" d="M121 0v1434h88v-1434h-88z" />
<glyph unicode="J" horiz-adv-x="671" d="M563 270q0 -291 -270 -290.5t-270 290.5v260h83v-266q0 -207 184.5 -207t184.5 207v1170h88v-1164z" />
<glyph unicode="K" horiz-adv-x="733" d="M213 1434v-826q29 72 174 363l227 463h86l-284 -570l299 -864h-90l-263 760l-149 -299v-461h-88v1434h88z" />
<glyph unicode="L" horiz-adv-x="550" d="M125 0v1434h88v-1356h338v-78h-426z" />
<glyph unicode="M" horiz-adv-x="1050" d="M520 94q14 143 78 424l201 916h127v-1434h-86v975q0 162 8 379q-25 -166 -70 -377l-215 -977h-90l-215 977q-45 211 -70 377q8 -145 9 -379v-975h-76v1434h121l200 -916q64 -281 78 -424z" />
<glyph unicode="N" horiz-adv-x="784" d="M586 1434h78v-1434h-80l-314 1038l-42 160l-42 162q12 -209 13 -326v-1034h-78v1434h121l272 -916l42 -160l42 -161q-12 313 -12 325v912z" />
<glyph unicode="O" horiz-adv-x="724" d="M90 283v868q0 303 272.5 303t272.5 -303v-868q0 -303 -272.5 -303t-272.5 303zM178 276q0 -219 184.5 -219t184.5 219v881q0 219 -184.5 219t-184.5 -219v-881z" />
<glyph unicode="P" d="M213 551v-551h-88v1434h209q307 0 307 -304v-276q0 -303 -307 -303h-121zM322 1356h-109v-727h109q127 0 179 50t52 173v281q0 123 -52 173t-179 50z" />
<glyph unicode="Q" horiz-adv-x="745" d="M678 59q27 0 41 2v-71q-20 -10 -49 -10q-96 0 -101 96q-68 -96 -215 -96q-264 0 -264 303v868q0 303 272.5 303t272.5 -303v-1022q0 -70 43 -70zM178 1157v-881q0 -219 184.5 -219t184.5 219v881q0 219 -184.5 219t-184.5 -219z" />
<glyph unicode="R" horiz-adv-x="743" d="M309 674h-96v-674h-88v1434h231q137 0 217 -61.5t80 -231.5v-170q0 -209 -159 -258q160 -51 159 -260v-74q0 -279 39 -379h-98q-29 121 -29 285v139q0 143 -52 196.5t-204 53.5zM213 752h131q127 0 174 45t47 168v178q0 123 -47 168t-174 45h-131v-604z" />
<glyph unicode="S" horiz-adv-x="677" d="M164 489v-213q0 -111 40 -165t134 -54t133 53.5t39 165.5v25q0 98 -32 176t-80 125l-103 103l-104 107q-48 52 -79.5 140t-31.5 199q0 160 64.5 231.5t193.5 71.5q260 0 260 -303v-166h-84v172q0 111 -40 165t-134 54t-133 -53t-39 -166v-12q0 -84 23.5 -153.5t61.5 -117 t84 -90.5l92 -89q46 -46 84 -98t61.5 -130t23.5 -174v-10q0 -160 -64.5 -231.5t-193.5 -71.5q-260 0 -260 303v206h84z" />
<glyph unicode="T" horiz-adv-x="534" d="M535 1434v-78h-224v-1356h-88v1356h-223v78h535z" />
<glyph unicode="U" horiz-adv-x="755" d="M197 264q0 -207 184 -207t184 207v1170h84v-1164q0 -291 -270 -290.5t-270 290.5v1164h88v-1170z" />
<glyph unicode="V" horiz-adv-x="659" d="M119 1434l153 -867q41 -233 66 -467q25 233 65 467l152 867h78l-250 -1434h-102l-250 1434h88z" />
<glyph unicode="W" horiz-adv-x="1069" d="M825 0h-104l-133 866q-39 250 -53 453q-18 -236 -54 -453l-129 -866h-104l-217 1434h88l131 -867q37 -233 55 -458q14 215 53 458l134 867h100l131 -867q37 -233 55 -458q14 215 53 458l134 867h77z" />
<glyph unicode="X" horiz-adv-x="645" d="M272 743l-223 691h88l111 -347q53 -168 80 -274l82 274l110 347h78l-223 -691l239 -743h-88l-127 399q-53 168 -80 275q-55 -201 -79 -275l-131 -399h-78z" />
<glyph unicode="Y" horiz-adv-x="667" d="M420 920l143 514h78l-260 -922v-512h-88v504l-262 930h88l143 -514q63 -238 80 -320q15 89 78 320z" />
<glyph unicode="Z" horiz-adv-x="583" d="M55 1356v78h482v-66l-398 -1290h398v-78h-490v66l397 1290h-389z" />
<glyph unicode="[" horiz-adv-x="448" d="M209 1417v-1532h240v-71h-324v1675h324v-72h-240z" />
<glyph unicode="\" horiz-adv-x="591" d="M109 1434l458 -1434h-82l-460 1434h84z" />
<glyph unicode="]" horiz-adv-x="448" d="M240 -115v1532h-240v72h324v-1675h-324v71h240z" />
<glyph unicode="^" d="M342 1321l-197 -485h-82l248 598h62l248 -598h-82z" />
<glyph unicode="_" horiz-adv-x="1024" d="M1024 -96v-78h-1024v78h1024z" />
<glyph unicode="`" horiz-adv-x="552" d="M256 1413l135 -237h-51l-180 237h96z" />
<glyph unicode="a" horiz-adv-x="681" d="M518 0q-12 45 -16 133q-25 -68 -82.5 -110.5t-132.5 -42.5q-100 0 -155.5 57t-55.5 205v20q0 88 31.5 154.5t77.5 103.5t101.5 70t101.5 56.5t78 61t32 87.5v12q0 102 -37 152.5t-123 50.5t-124 -50.5t-38 -152.5v-72h-78v66q0 281 242 280q240 0 240 -280v-455 q0 -250 18 -346h-80zM498 279v368q-31 -35 -96 -74l-114 -67q-50 -29 -90 -90.5t-40 -149.5v-24q0 -111 35.5 -151t113.5 -40q80 0 135.5 68t55.5 160z" />
<glyph unicode="b" horiz-adv-x="708" d="M197 782v-503q0 -92 55 -160t135 -68q78 0 114 43t36 158v557q0 115 -36 158t-114 43q-80 0 -135 -68t-55 -160zM115 1434h82v-496q27 63 83 103t128 40q211 0 210 -272v-557q0 -272 -210 -272q-76 0 -132.5 43t-82.5 108l-27 -131h-51v1434z" />
<glyph unicode="c" horiz-adv-x="667" d="M590 715h-78v92q0 203 -170 203t-170 -203v-553q0 -203 170 -203t170 203v113h78v-107q0 -281 -250 -280.5t-250 280.5v541q0 281 250 280.5t250 -280.5v-86z" />
<glyph unicode="d" horiz-adv-x="708" d="M512 279v503q0 92 -55.5 160t-134.5 68q-78 0 -114 -43t-36 -158v-557q0 -115 36 -158t114 -43q80 0 135 68t55 160zM532 0q-12 45 -16 133q-25 -68 -82 -110.5t-133 -42.5q-211 0 -211 272v557q0 272 211 272q72 0 128 -40t83 -103v496h82v-1088q0 -250 18 -346h-80z " />
<glyph unicode="e" horiz-adv-x="673" d="M590 520h-418v-266q0 -203 170 -203t170 203v100h78v-94q0 -281 -250 -280.5t-250 280.5v541q0 281 250 280.5t250 -280.5v-281zM172 807v-217h340v217q0 203 -170 203t-170 -203z" />
<glyph unicode="f" horiz-adv-x="446" d="M227 1223v-162h238v-72h-238v-989h-82v989h-94v72h94v170q0 115 50.5 169t158.5 54q66 0 111 -20v-70q-47 20 -111 20q-70 0 -98.5 -35.5t-28.5 -125.5z" />
<glyph unicode="g" horiz-adv-x="694" d="M88 -84q0 125 88 166q-63 37 -63 127t73 133q-104 63 -104 246v213q0 281 248 280q160 0 215 -116q4 96 82 96q27 0 41 -4v-72q-29 4 -43 4q-39 0 -39 -78v-323q0 -281 -252 -281q-57 0 -90 10q-55 -16 -56 -90q0 -35 21.5 -60.5t64.5 -25.5h160q119 0 176.5 -47 t57.5 -164q0 -104 -62.5 -156.5t-171.5 -52.5h-123q-223 0 -223 195zM504 807q0 203 -170 203t-170 -203v-225q0 -203 170 -203t170 203v225zM438 59h-155q-66 0 -94.5 -38.5t-28.5 -90.5q0 -70 34.5 -103.5t127.5 -33.5h112q156 0 156 135q0 76 -37 103.5t-115 27.5z" />
<glyph unicode="h" horiz-adv-x="720" d="M618 0h-81v809q0 115 -36 158t-114 43t-134 -69t-56 -159v-782h-82v1434h82v-496q27 63 83 103t128 40q211 0 210 -272v-809z" />
<glyph unicode="i" horiz-adv-x="311" d="M197 0h-82v1061h82v-1061zM197 1270h-82v164h82v-164z" />
<glyph unicode="j" horiz-adv-x="311" d="M197 1270h-82v164h82v-164zM41 -279q-45 0 -74 15v69q33 -12 66 -12q47 0 64.5 25.5t17.5 85.5v1157h82v-1157q0 -96 -37 -139.5t-119 -43.5z" />
<glyph unicode="k" horiz-adv-x="700" d="M197 1434v-977q27 51 168 272l213 332h79l-270 -426l295 -635h-86l-260 561l-139 -213v-348h-82v1434h82z" />
<glyph unicode="l" horiz-adv-x="311" d="M197 0h-82v1434h82v-1434z" />
<glyph unicode="m" horiz-adv-x="1089" d="M197 0h-82v1061h78v-129q23 68 74.5 108.5t127.5 40.5q150 0 185 -147q25 63 81 105t130 42q96 0 146 -60t50 -212v-809h-82v809q0 117 -29.5 159t-105.5 42q-78 0 -128 -66.5t-50 -161.5v-782h-82v809q0 117 -29.5 159t-105.5 42q-78 0 -128 -66.5t-50 -161.5v-782z" />
<glyph unicode="n" horiz-adv-x="720" d="M197 0h-82v1061h78v-133q25 66 82 109.5t133 43.5q211 0 210 -272v-809h-81v809q0 115 -36 158t-114 43q-80 0 -135 -68t-55 -160v-782z" />
<glyph unicode="o" d="M594 260q0 -281 -252 -280.5t-252 280.5v541q0 281 252 280.5t252 -280.5v-541zM512 807q0 203 -170 203t-170 -203v-553q0 -203 170 -203t170 203v553z" />
<glyph unicode="p" horiz-adv-x="708" d="M197 782v-503q0 -92 55 -160t135 -68q78 0 114 43t36 158v557q0 115 -36 158t-114 43q-80 0 -135 -68t-55 -160zM197 -258h-82v1319h78v-133q25 66 82 109.5t133 43.5q211 0 210 -272v-557q0 -272 -210 -272q-74 0 -130.5 39.5t-80.5 103.5v-381z" />
<glyph unicode="q" horiz-adv-x="708" d="M512 279v503q0 92 -55.5 160t-134.5 68q-78 0 -114 -43t-36 -158v-557q0 -115 36 -158t114 -43q80 0 135 68t55 160zM594 -258h-82v381q-27 -63 -83 -103t-128 -40q-211 0 -211 272v557q0 272 211 272q76 0 132 -43t81 -110l29 133h51v-1319z" />
<glyph unicode="r" horiz-adv-x="643" d="M197 0h-82v1061h78v-131q23 66 78 108.5t130 42.5q96 0 147.5 -60t51.5 -212v-258h-78v258q0 117 -32.5 159t-108.5 42q-78 0 -131 -68t-53 -160v-782z" />
<glyph unicode="s" horiz-adv-x="641" d="M479 242v14q0 63 -29.5 111.5t-73.5 76.5l-96 65q-52 36 -96.5 69.5t-74 96t-29.5 142.5q0 264 242 264q121 0 181 -66.5t60 -213.5v-66h-78v72q0 102 -36.5 152.5t-124.5 50.5t-125 -47.5t-37 -143.5v-6q0 -63 29.5 -112.5t73.5 -78.5l96 -66q52 -36 96.5 -71.5t74 -96 t29.5 -140.5q0 -139 -60.5 -203.5t-181 -64.5t-181 66.5t-60.5 213.5v86h78v-92q0 -102 36.5 -152.5t125 -50.5t125 47.5t36.5 143.5z" />
<glyph unicode="t" horiz-adv-x="430" d="M311 -12q-88 0 -127 40t-39 136v825h-94v72h94v227h82v-227h172v-72h-172v-825q0 -57 20.5 -81t67.5 -24q57 0 84 9v-68q-35 -12 -88 -12z" />
<glyph unicode="u" horiz-adv-x="720" d="M524 279v335v447h82v-715q0 -250 19 -346h-80q-12 45 -17 133q-25 -68 -82 -110.5t-133 -42.5q-211 0 -211 272v809h82v-809q0 -115 36 -158t114 -43q80 0 135 68t55 160z" />
<glyph unicode="v" horiz-adv-x="634" d="M381 367l160 694h73l-247 -1061h-99l-248 1061h82l162 -694q39 -172 58 -301q24 147 59 301z" />
<glyph unicode="w" horiz-adv-x="1007" d="M553 1061l141 -694q20 -106 39 -295q16 166 41 295l139 694h74l-215 -1061h-84l-145 715q-20 92 -39 282q-16 -166 -39 -282l-141 -715h-88l-216 1061h82l142 -694q20 -106 39 -295q16 166 41 295l139 694h90z" />
<glyph unicode="x" horiz-adv-x="636" d="M416 827l102 234h76l-227 -506l249 -555h-86l-124 283l-93 219l-92 -219l-125 -283h-76l250 555l-227 506h86l102 -234l93 -219z" />
<glyph unicode="y" horiz-adv-x="634" d="M88 -266v69q27 -10 66 -10q53 0 78.5 23.5t37.5 81.5q5 24 5 47q0 28 -7 55l-248 1061h82l162 -694q39 -172 58 -301q25 147 59 301l160 694h73l-270 -1163q-16 -90 -56 -133.5t-126 -43.5q-41 1 -74 13z" />
<glyph unicode="z" horiz-adv-x="567" d="M57 989v72h467v-64l-397 -925h397v-72h-481v63l395 926h-381z" />
<glyph unicode="{" horiz-adv-x="448" d="M180 430q0 92 -27.5 125t-105.5 33h-47v71h47q78 0 105.5 33t27.5 125q0 61 -21.5 171t-21.5 167q0 156 68.5 217.5t202.5 61.5h41v-72h-41q-102 0 -144.5 -44t-42.5 -163q0 -47 21.5 -159.5t21.5 -161.5q0 -168 -92 -211q92 -43 92 -209q0 -49 -21.5 -162t-21.5 -160 q0 -119 42 -163t145 -44h41v-71h-41q-133 0 -202 61.5t-69 216.5q0 57 21.5 167t21.5 171z" />
<glyph unicode="|" horiz-adv-x="552" d="M238 -258v1692h77v-1692h-77z" />
<glyph unicode="}" horiz-adv-x="448" d="M268 430q0 -61 21.5 -170.5t21.5 -167.5q0 -156 -68.5 -217t-201.5 -61h-41v71h41q102 0 144 44t42 163q0 47 -21.5 160t-21.5 162q0 166 92 209q-92 43 -92 211q0 49 21.5 161.5t21.5 159.5q0 119 -42 163t-144 44h-41v72h41q133 0 201.5 -61.5t68.5 -217.5 q0 -57 -21.5 -166.5t-21.5 -171.5q0 -92 28 -125t105 -33h48v-71h-48q-78 0 -105.5 -33t-27.5 -125z" />
<glyph unicode="~" d="M594 782v-80q-61 -61 -127 -61q-45 0 -131 38t-127 38q-63 0 -119 -66v80q61 61 127 62q45 0 130 -39t126 -39q64 -1 121 67z" />
<glyph unicode="&#xa1;" horiz-adv-x="348" d="M213 1155v-186h-84v186h84zM129 250l29 567h26l33 -567v-529h-88v529z" />
<glyph unicode="&#xa2;" d="M592 901h-78v92q0 203 -170 203t-170 -203v-553q0 -203 170 -202.5t170 202.5v113h78v-107q0 -260 -215 -280v-146h-68v146q-217 16 -217 280v541q0 262 217 279v147h68v-147q215 -16 215 -279v-86z" />
<glyph unicode="&#xa3;" d="M549 371h-209q-8 -197 -137 -289h403v-82h-520v66q168 68 176 305h-153v67h151q-4 111 -48 223.5t-84 229.5t-40 242v30q0 291 260 291q258 0 258 -291v-209h-80v215q0 209 -176 209t-176 -209v-36q0 -141 80 -343t86 -352h209v-67z" />
<glyph unicode="&#xa4;" d="M195 716.5q0 -65.5 42 -106.5t105.5 -41t105 41t41.5 106.5t-41.5 106.5t-105 41t-105.5 -41t-42 -106.5zM133 716.5q0 67.5 41 119.5l-117 110l52 51l108 -114q55 43 125 43t125 -43l108 114l52 -51l-117 -110q41 -55 41 -119t-41 -121l117 -111l-52 -49l-108 115 q-55 -43 -125 -43t-125 43l-108 -115l-52 49l117 111q-41 53 -41 120.5z" />
<glyph unicode="&#xa5;" d="M424 920l137 514h74l-238 -881h203v-66h-213v-172h213v-65h-213v-250h-86v250h-217v65h217v172h-217v66h203l-238 881h86l137 -514q68 -266 76 -320q19 109 76 320z" />
<glyph unicode="&#xa6;" horiz-adv-x="552" d="M238 723v711h77v-711h-77zM238 -258v711h77v-711h-77z" />
<glyph unicode="&#xa7;" d="M164 242v-109q0 -209 176 -209q178 0 178 180v7q0 74 -45 130t-109 95l-131 81q-66 42 -110.5 112.5t-44.5 164.5q0 178 139 236q-139 102 -139 260q0 127 70.5 195.5t191.5 68.5q125 0 194.5 -72.5t69.5 -220.5v-102h-84v108q0 209 -176 209q-178 0 -178 -180v-6 q0 -74 45 -130t110 -95l130 -81q66 -42 110.5 -113t44.5 -165q0 -84 -37 -147.5t-102 -89.5q139 -102 139 -258q0 -127 -70.5 -196t-191.5 -69q-125 0 -194.5 73t-69.5 220v103h84zM518 606q0 31 -5 57.5t-23.5 52t-26.5 40t-43 39t-41 30.5t-52 34t-48 30 q-53 -14 -83 -66.5t-30 -128.5q0 -23 4 -43t8 -36.5t17.5 -34t19.5 -28.5t26.5 -28.5t27.5 -24.5t33 -24l32 -20q6 -4 35.5 -22.5t33.5 -20.5q55 14 85 69t30 125z" />
<glyph unicode="&#xa8;" horiz-adv-x="552" d="M203 1204h-82v150h82v-150zM432 1204h-82v150h82v-150z" />
<glyph unicode="&#xa9;" horiz-adv-x="1284" d="M90 717q0 129 11.5 227t45 198.5t93 165t162 105.5t241.5 41t240.5 -41t161 -105.5t93 -165t45 -198.5t11.5 -227t-11.5 -227.5t-45 -199t-93 -165t-161 -105t-240.5 -40.5t-241.5 40.5t-162 105t-93 165t-45 199t-11.5 227.5zM168 717q0 -119 8 -205t36 -178t78 -149.5 t139 -94.5t214 -37q123 0 212 37t139 94.5t79 149.5t37 178t8 205t-8 205t-37 178t-79 149.5t-139 94t-212 36.5q-125 0 -214 -36.5t-139 -94t-78 -149.5t-36 -178t-8 -205zM545 459q0 -70 22.5 -102.5t77.5 -32.5t77.5 32.5t22.5 102.5v92h72v-94q0 -109 -43 -157t-131 -48 t-132 48t-44 157v516q0 203 176 203q88 0 131 -48.5t43 -154.5v-96h-72v92q0 70 -22.5 102.5t-77.5 32.5t-77.5 -33t-22.5 -102v-510z" />
<glyph unicode="&#xaa;" horiz-adv-x="503" d="M381 698q-12 25 -16 99q-16 -49 -58.5 -82t-95.5 -33q-152 0 -152 201v2q0 88 46.5 146.5t100.5 81t100 56t46 76.5v2q0 135 -104 135q-100 0 -101 -135v-35h-73v39q0 203 178 203q176 0 176 -203v-344q0 -111 18 -209h-65zM139 901v-12q0 -80 25.5 -106.5t73 -26.5 t81 39t33.5 92v258q-20 -20 -81.5 -55t-96.5 -78t-35 -111zM59 479v80h379v-80h-379z" />
<glyph unicode="&#xab;" horiz-adv-x="675" d="M315 530l248 531h82l-248 -531l248 -530h-82zM31 530l248 531h81l-247 -531l247 -530h-81z" />
<glyph unicode="&#xac;" d="M594 756v-326h-82v246h-422v80h504z" />
<glyph unicode="&#xad;" horiz-adv-x="552" d="M475 567v-78h-397v78h397z" />
<glyph unicode="&#xae;" horiz-adv-x="1284" d="M90 717q0 129 11.5 227t45 198.5t93 165t162 105.5t241.5 41t240.5 -41t161 -105.5t93 -165t45 -198.5t11.5 -227t-11.5 -227.5t-45 -199t-93 -165t-161 -105t-240.5 -40.5t-241.5 40.5t-162 105t-93 165t-45 199t-11.5 227.5zM168 717q0 -119 8 -205t36 -178t78 -149.5 t139 -94.5t214 -37q123 0 212 37t139 94.5t79 149.5t37 178t8 205t-8 205t-37 178t-79 149.5t-139 94t-212 36.5q-125 0 -214 -36.5t-139 -94t-78 -149.5t-36 -178t-8 -205zM461 1163h186q84 0 133 -46t49 -142v-94q0 -139 -110 -168q111 -29 110 -168v-8q0 -113 4.5 -164 t9.5 -64.5t23 -38.5h-94q-20 51 -20 197v82q0 59 -31 93t-84 34h-98v-406h-78v893zM539 1092v-344h102q111 0 111 124v109q0 111 -111 111h-102z" />
<glyph unicode="&#xaf;" horiz-adv-x="552" d="M473 1235h-393v57h393v-57z" />
<glyph unicode="&#xb0;" horiz-adv-x="501" d="M250 1413q86 0 146.5 -58.5t60.5 -144.5t-60.5 -145t-146.5 -59t-145.5 59t-59.5 145t59.5 144.5t145.5 58.5zM250 1339q-55 0 -93 -36.5t-38 -92.5q0 -57 38 -94t93 -37q57 0 95 37t38 94q0 55 -38 92t-95 37z" />
<glyph unicode="&#xb1;" d="M594 489v-79h-504v79h211v207h-211v80h211v244h80v-244h213v-80h-213v-207h213z" />
<glyph unicode="&#xb2;" horiz-adv-x="507" d="M152 1432v-93h-72v97q0 106 43 154t131 48q178 0 178 -202v-13q0 -86 -28.5 -156.5t-68.5 -121.5l-80 -102q-40 -50 -68.5 -117.5t-28.5 -147.5v-6h274v-72h-352v78q0 86 28.5 157t68.5 123l80 102q40 50 68.5 118t28.5 145v9q0 72 -23.5 103.5t-78.5 31.5t-77.5 -32.5 t-22.5 -102.5z" />
<glyph unicode="&#xb3;" horiz-adv-x="507" d="M182 1143v71h70q57 0 79.5 28t22.5 93v97q0 70 -23.5 102.5t-78.5 32.5t-80 -33t-25 -102v-66h-71v70q0 203 178 202.5t178 -202.5v-90q0 -135 -102 -168q102 -33 102 -172v-123q0 -203 -178 -203t-178 203v82h71v-78q0 -70 25 -102.5t80 -32.5t78.5 32.5t23.5 102.5v129 q0 70 -22.5 98.5t-79.5 28.5h-70z" />
<glyph unicode="&#xb4;" horiz-adv-x="552" d="M160 1176l133 237h98l-180 -237h-51z" />
<glyph unicode="&#xb5;" horiz-adv-x="733" d="M115 -258v1319h82v-809q0 -115 35.5 -158t113.5 -43q80 0 135.5 67.5t55.5 160.5v782h81v-715q0 -250 19 -346h-80q-12 45 -16 133q-25 -68 -82.5 -110.5t-132.5 -42.5q-80 0 -129 34v-272h-82z" />
<glyph unicode="&#xb6;" horiz-adv-x="829" d="M705 1434v-1567h-82v1495h-170v-1495h-84v516h-17q-309 0 -309 303v444q0 303 309 304h353z" />
<glyph unicode="&#xb7;" horiz-adv-x="342" d="M129 616v201h82v-201h-82z" />
<glyph unicode="&#xb8;" horiz-adv-x="552" d="M367 -176q0 37 -26 50t-93 11v115h39v-78q74 0 111.5 -21.5t37.5 -76.5q0 -102 -168 -103q-158 0 -149 115h57q-2 -45 19.5 -60.5t76.5 -15.5q95 1 95 64z" />
<glyph unicode="&#xb9;" horiz-adv-x="507" d="M174 1554h43q61 0 70 64h45v-918h-78v783h-80v71z" />
<glyph unicode="&#xba;" horiz-adv-x="503" d="M432 885q0 -106 -45 -154.5t-135 -48.5t-135 48t-45 155v366q0 106 45 154.5t135 48.5t135 -48t45 -155v-366zM72 479v80h360v-80h-360zM356 1247q0 70 -24.5 102.5t-79.5 32.5t-80 -32.5t-25 -102.5v-358q0 -70 25 -102.5t80 -32.5t79.5 32.5t24.5 102.5v358z" />
<glyph unicode="&#xbb;" horiz-adv-x="675" d="M397 1061l248 -531l-248 -530h-82l248 530l-248 531h82zM113 1061l247 -531l-247 -530h-82l248 530l-248 531h82z" />
<glyph unicode="&#xbc;" horiz-adv-x="995" d="M190 0l541 1434h74l-541 -1434h-74zM92 1370h43q61 0 70 64h45v-918h-78v782h-80v72zM883 918v-623h57v-72h-57v-223h-78v223h-254v60l240 635h92zM721 543l-94 -248h178v221q0 145 20 344q-45 -159 -104 -317z" />
<glyph unicode="&#xbd;" horiz-adv-x="1077" d="M190 0l541 1434h74l-541 -1434h-74zM92 1370h43q61 0 70 64h45v-918h-78v782h-80v72zM721 731v-92h-72v96q0 106 43 154.5t131 48.5q178 0 178 -203v-12q0 -86 -28.5 -156.5t-68.5 -122.5l-80 -101q-40 -50 -68.5 -117.5t-28.5 -147.5v-6h274v-72h-352v78q0 86 29 156.5 t68 122.5l80 103q40 50 69 117.5t29 145.5v8q0 72 -23.5 103.5t-79 31.5t-78 -32.5t-22.5 -102.5z" />
<glyph unicode="&#xbe;" horiz-adv-x="1077" d="M272 0l541 1434h74l-541 -1434h-74zM965 918v-623h57v-72h-57v-223h-78v223h-254v60l239 635h93zM803 543l-94 -248h178v221q0 145 20 344q-45 -159 -104 -317zM182 958v72h70q57 0 79.5 27.5t22.5 93.5v96q0 70 -23.5 102.5t-78.5 32.5t-80 -32.5t-25 -102.5v-65h-71v69 q0 203 178 203t178 -203v-90q0 -135 -102 -168q102 -33 102 -172v-123q0 -203 -178 -202.5t-178 202.5v82h71v-78q0 -70 25 -102.5t80 -32.5t78.5 33t23.5 102v129q0 70 -22.5 98.5t-79.5 28.5h-70z" />
<glyph unicode="&#xbf;" horiz-adv-x="585" d="M465 221h78v-229q0 -291 -250 -291t-250 291v37q0 115 24.5 190.5t60.5 118.5l72 87q36 44 60.5 126t24.5 205v61h37v-98q0 -123 -20.5 -203t-49.5 -122l-57 -81q-29 -39 -49.5 -112.5t-20.5 -186.5v-28q0 -213 170 -213t170 213v235zM344 1155v-215h-82v215h82z" />
<glyph unicode="&#xc0;" horiz-adv-x="659" d="M541 0l-47 258h-344l-46 -258h-77l249 1434h103l250 -1434h-88zM256 866l-94 -530h319l-94 530q-41 233 -65 467q-25 -234 -66 -467zM268 1755l135 -237h-51l-180 237h96z" />
<glyph unicode="&#xc1;" horiz-adv-x="659" d="M541 0l-47 258h-344l-46 -258h-77l249 1434h103l250 -1434h-88zM256 866l-94 -530h319l-94 530q-41 233 -65 467q-25 -234 -66 -467zM254 1518l133 237h98l-180 -237h-51z" />
<glyph unicode="&#xc2;" horiz-adv-x="659" d="M541 0l-47 258h-344l-46 -258h-77l249 1434h103l250 -1434h-88zM256 866l-94 -530h319l-94 530q-41 233 -65 467q-25 -234 -66 -467zM469 1518l-139 163l-140 -163h-51l158 237h65l158 -237h-51z" />
<glyph unicode="&#xc3;" horiz-adv-x="659" d="M541 0l-47 258h-344l-46 -258h-77l249 1434h103l250 -1434h-88zM256 866l-94 -530h319l-94 530q-41 233 -65 467q-25 -234 -66 -467zM485 1698h50q-10 -141 -121 -142q-41 0 -98.5 36t-86.5 36q-45 0 -57 -76h-47q4 66 34.5 103t84.5 37q41 0 99 -36t85 -36q45 0 57 78z " />
<glyph unicode="&#xc4;" horiz-adv-x="659" d="M541 0l-47 258h-344l-46 -258h-77l249 1434h103l250 -1434h-88zM256 866l-94 -530h319l-94 530q-41 233 -65 467q-25 -234 -66 -467zM256 1546h-82v150h82v-150zM485 1546h-82v150h82v-150z" />
<glyph unicode="&#xc5;" horiz-adv-x="659" d="M541 0l-47 258h-344l-46 -258h-77l249 1434h103l250 -1434h-88zM256 866l-94 -530h319l-94 530q-41 233 -65 467q-25 -234 -66 -467zM199 1650.5q0 53.5 38.5 92.5t92 39t92.5 -39t39 -92.5t-39 -92t-92.5 -38.5t-92 38.5t-38.5 92zM250 1651q0 -35 22.5 -57.5 t57.5 -22.5t57.5 22.5t22.5 57.5t-22.5 57.5t-57.5 22.5t-57.5 -22.5t-22.5 -57.5z" />
<glyph unicode="&#xc6;" horiz-adv-x="894" d="M389 0v258h-237l-64 -258h-78l361 1434h452v-78h-346v-570h318v-77h-318v-631h357v-78h-445zM297 834l-125 -498h217v524q0 180 14 447q-57 -272 -106 -473z" />
<glyph unicode="&#xc7;" horiz-adv-x="712" d="M442 -176q0 37 -25.5 50t-92.5 11v97q-233 20 -234 301v868q0 303 270.5 303t270.5 -303v-207h-84v213q0 219 -184.5 219t-184.5 -219v-881q0 -219 184.5 -219t184.5 219v254h84v-247q0 -299 -269 -303v-58q74 0 112 -21.5t38 -76.5q0 -102 -168 -103q-158 0 -149 115h57 q-2 -45 19.5 -60.5t76.5 -15.5q94 1 94 64z" />
<glyph unicode="&#xc8;" horiz-adv-x="630" d="M213 709v-631h356v-78h-444v1434h434v-78h-346v-570h317v-77h-317zM283 1755l135 -237h-51l-181 237h97z" />
<glyph unicode="&#xc9;" horiz-adv-x="630" d="M213 709v-631h356v-78h-444v1434h434v-78h-346v-570h317v-77h-317zM268 1518l133 237h99l-181 -237h-51z" />
<glyph unicode="&#xca;" horiz-adv-x="630" d="M213 709v-631h356v-78h-444v1434h434v-78h-346v-570h317v-77h-317zM481 1518l-139 163l-139 -163h-51l157 237h66l157 -237h-51z" />
<glyph unicode="&#xcb;" horiz-adv-x="630" d="M213 709v-631h356v-78h-444v1434h434v-78h-346v-570h317v-77h-317zM268 1546h-82v150h82v-150zM498 1546h-82v150h82v-150z" />
<glyph unicode="&#xcc;" horiz-adv-x="329" d="M121 0v1434h88v-1434h-88zM104 1755l136 -237h-52l-180 237h96z" />
<glyph unicode="&#xcd;" horiz-adv-x="329" d="M121 0v1434h88v-1434h-88zM90 1518l133 237h99l-181 -237h-51z" />
<glyph unicode="&#xce;" horiz-adv-x="329" d="M121 0v1434h88v-1434h-88zM305 1518l-139 163l-139 -163h-52l158 237h66l157 -237h-51z" />
<glyph unicode="&#xcf;" horiz-adv-x="329" d="M121 0v1434h88v-1434h-88zM92 1546h-82v150h82v-150zM322 1546h-82v150h82v-150z" />
<glyph unicode="&#xd0;" horiz-adv-x="759" d="M125 0v711h-82v73h82v650h217q307 0 307 -304v-827q0 -303 -307 -303h-217zM406 711h-193v-633h117q127 0 179 50t52 173v832q0 123 -52 173t-179 50h-117v-572h193v-73z" />
<glyph unicode="&#xd1;" horiz-adv-x="784" d="M586 1434h78v-1434h-80l-314 1038l-42 160l-42 162q12 -209 13 -326v-1034h-78v1434h121l272 -916l42 -160l42 -161q-12 313 -12 325v912zM547 1698h49q-10 -141 -121 -142q-41 0 -98.5 36t-85.5 36q-45 0 -58 -76h-47q4 66 35 103t84 37q41 0 99.5 -36t84.5 -36 q46 0 58 78z" />
<glyph unicode="&#xd2;" horiz-adv-x="724" d="M90 283v868q0 303 272.5 303t272.5 -303v-868q0 -303 -272.5 -303t-272.5 303zM178 276q0 -219 184.5 -219t184.5 219v881q0 219 -184.5 219t-184.5 -219v-881zM301 1755l135 -237h-51l-180 237h96z" />
<glyph unicode="&#xd3;" horiz-adv-x="724" d="M90 283v868q0 303 272.5 303t272.5 -303v-868q0 -303 -272.5 -303t-272.5 303zM178 276q0 -219 184.5 -219t184.5 219v881q0 219 -184.5 219t-184.5 -219v-881zM287 1518l133 237h98l-180 -237h-51z" />
<glyph unicode="&#xd4;" horiz-adv-x="724" d="M90 283v868q0 303 272.5 303t272.5 -303v-868q0 -303 -272.5 -303t-272.5 303zM178 276q0 -219 184.5 -219t184.5 219v881q0 219 -184.5 219t-184.5 -219v-881zM502 1518l-140 163l-139 -163h-51l158 237h65l158 -237h-51z" />
<glyph unicode="&#xd5;" horiz-adv-x="724" d="M90 283v868q0 303 272.5 303t272.5 -303v-868q0 -303 -272.5 -303t-272.5 303zM178 276q0 -219 184.5 -219t184.5 219v881q0 219 -184.5 219t-184.5 -219v-881zM518 1698h49q-10 -141 -121 -142q-41 0 -98 36t-86 36q-45 0 -57 -76h-47q4 66 34.5 103t83.5 37 q41 0 99.5 -36t85.5 -36q45 0 57 78z" />
<glyph unicode="&#xd6;" horiz-adv-x="724" d="M90 283v868q0 303 272.5 303t272.5 -303v-868q0 -303 -272.5 -303t-272.5 303zM178 276q0 -219 184.5 -219t184.5 219v881q0 219 -184.5 219t-184.5 -219v-881zM289 1546h-82v150h82v-150zM518 1546h-82v150h82v-150z" />
<glyph unicode="&#xd7;" d="M535 965l55 -58l-195 -192l195 -193l-55 -57l-195 194l-188 -190l-58 53l193 193l-193 192l58 56l190 -195z" />
<glyph unicode="&#xd8;" horiz-adv-x="724" d="M90 283v868q0 303 272 303q100 0 170 -47l31 98l68 -18l-41 -139q45 -74 45 -197v-868q0 -303 -273 -303q-106 0 -169 45l-29 -97l-68 19l41 135q-47 76 -47 201zM178 276q0 -33 2 -47l326 1088q-43 59 -144 59q-184 0 -184 -219v-881zM547 1157q0 29 -2 41l-326 -1083 q47 -57 143 -58q184 0 185 219v881z" />
<glyph unicode="&#xd9;" horiz-adv-x="755" d="M197 264q0 -207 184 -207t184 207v1170h84v-1164q0 -291 -270 -290.5t-270 290.5v1164h88v-1170zM317 1755l136 -237h-52l-180 237h96z" />
<glyph unicode="&#xda;" horiz-adv-x="755" d="M197 264q0 -207 184 -207t184 207v1170h84v-1164q0 -291 -270 -290.5t-270 290.5v1164h88v-1170zM303 1518l133 237h99l-181 -237h-51z" />
<glyph unicode="&#xdb;" horiz-adv-x="755" d="M197 264q0 -207 184 -207t184 207v1170h84v-1164q0 -291 -270 -290.5t-270 290.5v1164h88v-1170zM516 1518l-139 163l-139 -163h-52l158 237h66l157 -237h-51z" />
<glyph unicode="&#xdc;" horiz-adv-x="755" d="M197 264q0 -207 184 -207t184 207v1170h84v-1164q0 -291 -270 -290.5t-270 290.5v1164h88v-1170zM303 1546h-82v150h82v-150zM532 1546h-81v150h81v-150z" />
<glyph unicode="&#xdd;" horiz-adv-x="667" d="M420 920l143 514h78l-260 -922v-512h-88v504l-262 930h88l143 -514q63 -238 80 -320q15 89 78 320zM258 1518l133 237h98l-180 -237h-51z" />
<glyph unicode="&#xde;" d="M125 1434h88v-144h121q307 0 307 -303v-276q0 -303 -307 -303h-121v-408h-88v1434zM213 1212v-727h109q127 0 179 50.5t52 173.5v280q0 123 -52 173t-179 50h-109z" />
<glyph unicode="&#xdf;" horiz-adv-x="700" d="M618 1174v-50q0 -223 -174 -262q174 -39 174 -260v-385q0 -119 -51 -176t-166 -57q-53 0 -102 16v70q51 -16 94 -17q84 0 114 39t30 133v400q0 201 -203 200h-35v72h35q203 0 203 201v82q0 203 -170 202.5t-170 -202.5v-1180h-82v1174q0 281 251.5 281t251.5 -281z" />
<glyph unicode="&#xe0;" horiz-adv-x="681" d="M518 0q-12 45 -16 133q-25 -68 -82.5 -110.5t-132.5 -42.5q-100 0 -155.5 57t-55.5 205v20q0 88 31.5 154.5t77.5 103.5t101.5 70t101.5 56.5t78 61t32 87.5v12q0 102 -37 152.5t-123 50.5t-124 -50.5t-38 -152.5v-72h-78v66q0 281 242 280q240 0 240 -280v-455 q0 -250 18 -346h-80zM498 279v368q-31 -35 -96 -74l-114 -67q-50 -29 -90 -90.5t-40 -149.5v-24q0 -111 35.5 -151t113.5 -40q80 0 135.5 68t55.5 160zM281 1413l135 -237h-51l-181 237h97z" />
<glyph unicode="&#xe1;" horiz-adv-x="681" d="M518 0q-12 45 -16 133q-25 -68 -82.5 -110.5t-132.5 -42.5q-100 0 -155.5 57t-55.5 205v20q0 88 31.5 154.5t77.5 103.5t101.5 70t101.5 56.5t78 61t32 87.5v12q0 102 -37 152.5t-123 50.5t-124 -50.5t-38 -152.5v-72h-78v66q0 281 242 280q240 0 240 -280v-455 q0 -250 18 -346h-80zM498 279v368q-31 -35 -96 -74l-114 -67q-50 -29 -90 -90.5t-40 -149.5v-24q0 -111 35.5 -151t113.5 -40q80 0 135.5 68t55.5 160zM266 1176l133 237h99l-181 -237h-51z" />
<glyph unicode="&#xe2;" horiz-adv-x="681" d="M518 0q-12 45 -16 133q-25 -68 -82.5 -110.5t-132.5 -42.5q-100 0 -155.5 57t-55.5 205v20q0 88 31.5 154.5t77.5 103.5t101.5 70t101.5 56.5t78 61t32 87.5v12q0 102 -37 152.5t-123 50.5t-124 -50.5t-38 -152.5v-72h-78v66q0 281 242 280q240 0 240 -280v-455 q0 -250 18 -346h-80zM498 279v368q-31 -35 -96 -74l-114 -67q-50 -29 -90 -90.5t-40 -149.5v-24q0 -111 35.5 -151t113.5 -40q80 0 135.5 68t55.5 160zM479 1176l-139 163l-139 -163h-51l157 237h66l157 -237h-51z" />
<glyph unicode="&#xe3;" horiz-adv-x="681" d="M518 0q-12 45 -16 133q-25 -68 -82.5 -110.5t-132.5 -42.5q-100 0 -155.5 57t-55.5 205v20q0 88 31.5 154.5t77.5 103.5t101.5 70t101.5 56.5t78 61t32 87.5v12q0 102 -37 152.5t-123 50.5t-124 -50.5t-38 -152.5v-72h-78v66q0 281 242 280q240 0 240 -280v-455 q0 -250 18 -346h-80zM498 279v368q-31 -35 -96 -74l-114 -67q-50 -29 -90 -90.5t-40 -149.5v-24q0 -111 35.5 -151t113.5 -40q80 0 135.5 68t55.5 160zM496 1356h49q-10 -141 -121 -142q-41 0 -98.5 36t-85.5 36q-45 0 -58 -76h-47q4 66 35 103t84 37q41 0 99.5 -36 t84.5 -36q46 0 58 78z" />
<glyph unicode="&#xe4;" horiz-adv-x="681" d="M518 0q-12 45 -16 133q-25 -68 -82.5 -110.5t-132.5 -42.5q-100 0 -155.5 57t-55.5 205v20q0 88 31.5 154.5t77.5 103.5t101.5 70t101.5 56.5t78 61t32 87.5v12q0 102 -37 152.5t-123 50.5t-124 -50.5t-38 -152.5v-72h-78v66q0 281 242 280q240 0 240 -280v-455 q0 -250 18 -346h-80zM498 279v368q-31 -35 -96 -74l-114 -67q-50 -29 -90 -90.5t-40 -149.5v-24q0 -111 35.5 -151t113.5 -40q80 0 135.5 68t55.5 160zM266 1204h-82v150h82v-150zM496 1204h-82v150h82v-150z" />
<glyph unicode="&#xe5;" horiz-adv-x="681" d="M518 0q-12 45 -16 133q-25 -68 -82.5 -110.5t-132.5 -42.5q-100 0 -155.5 57t-55.5 205v20q0 88 31.5 154.5t77.5 103.5t101.5 70t101.5 56.5t78 61t32 87.5v12q0 102 -37 152.5t-123 50.5t-124 -50.5t-38 -152.5v-72h-78v66q0 281 242 280q240 0 240 -280v-455 q0 -250 18 -346h-80zM498 279v368q-31 -35 -96 -74l-114 -67q-50 -29 -90 -90.5t-40 -149.5v-24q0 -111 35.5 -151t113.5 -40q80 0 135.5 68t55.5 160zM209 1308.5q0 53.5 39 92.5t92 39t92 -39t39 -92.5t-39 -92t-92 -38.5t-92 38.5t-39 92zM260 1308.5q0 -34.5 22.5 -57 t57.5 -22.5t57.5 22.5t22.5 57t-22.5 57.5t-57.5 23t-57.5 -23t-22.5 -57.5z" />
<glyph unicode="&#xe6;" horiz-adv-x="1081" d="M997 520h-417v-266q0 -203 170 -203t170 203v100h77v-94q0 -281 -249 -280q-199 0 -240 174q-20 -74 -79.5 -124t-141.5 -50q-100 0 -155.5 57t-55.5 205v20q0 88 31.5 154.5t77.5 103.5t101.5 70t101.5 56.5t78 61t32 87.5v12q0 100 -37 151.5t-125 51.5t-124 -50.5 t-36 -152.5v-72h-78v66q0 147 57.5 213.5t176.5 66.5q160 0 207 -133q47 133 217 133q121 0 181 -66.5t60 -213.5v-281zM307 51q80 0 135.5 67.5t55.5 160.5v368q-31 -35 -96 -74l-114 -67q-50 -29 -90 -90.5t-40 -149.5v-24q0 -111 35.5 -151t113.5 -40zM580 809v-219h340 v219q0 100 -40 150.5t-130 50.5q-170 0 -170 -201z" />
<glyph unicode="&#xe7;" horiz-adv-x="667" d="M424 -176q0 37 -25.5 50t-93.5 11v97q-215 16 -215 278v541q0 281 250 280.5t250 -280.5v-86h-78v92q0 203 -170 203t-170 -203v-553q0 -203 170 -203t170 203v113h78v-107q0 -276 -246 -280v-58q74 0 112 -21.5t38 -76.5q0 -102 -168 -103q-158 0 -150 115h57 q-2 -45 19.5 -60.5t77.5 -15.5q94 1 94 64z" />
<glyph unicode="&#xe8;" horiz-adv-x="673" d="M590 520h-418v-266q0 -203 170 -203t170 203v100h78v-94q0 -281 -250 -280.5t-250 280.5v541q0 281 250 280.5t250 -280.5v-281zM172 807v-217h340v217q0 203 -170 203t-170 -203zM283 1413l135 -237h-51l-181 237h97z" />
<glyph unicode="&#xe9;" horiz-adv-x="673" d="M590 520h-418v-266q0 -203 170 -203t170 203v100h78v-94q0 -281 -250 -280.5t-250 280.5v541q0 281 250 280.5t250 -280.5v-281zM172 807v-217h340v217q0 203 -170 203t-170 -203zM268 1176l133 237h99l-181 -237h-51z" />
<glyph unicode="&#xea;" horiz-adv-x="673" d="M590 520h-418v-266q0 -203 170 -203t170 203v100h78v-94q0 -281 -250 -280.5t-250 280.5v541q0 281 250 280.5t250 -280.5v-281zM172 807v-217h340v217q0 203 -170 203t-170 -203zM481 1176l-139 163l-139 -163h-51l157 237h66l157 -237h-51z" />
<glyph unicode="&#xeb;" horiz-adv-x="673" d="M590 520h-418v-266q0 -203 170 -203t170 203v100h78v-94q0 -281 -250 -280.5t-250 280.5v541q0 281 250 280.5t250 -280.5v-281zM172 807v-217h340v217q0 203 -170 203t-170 -203zM268 1204h-82v150h82v-150zM498 1204h-82v150h82v-150z" />
<glyph unicode="&#xec;" horiz-adv-x="311" d="M96 1413l135 -237h-51l-180 237h96zM197 0h-82v1061h82v-1061z" />
<glyph unicode="&#xed;" horiz-adv-x="311" d="M82 1176l133 237h98l-180 -237h-51zM197 0h-82v1061h82v-1061z" />
<glyph unicode="&#xee;" horiz-adv-x="311" d="M197 0h-82v1061h82v-1061zM295 1176l-139 163l-140 -163h-51l158 237h65l158 -237h-51z" />
<glyph unicode="&#xef;" horiz-adv-x="311" d="M82 1204h-82v150h82v-150zM311 1204h-82v150h82v-150zM197 0h-82v1061h82v-1061z" />
<glyph unicode="&#xf0;" horiz-adv-x="696" d="M348 1167l-43 45l121 121q-51 29 -127 29h-51l14 72h45q102 0 174 -45l45 45h88l-88 -88q68 -80 68 -244v-842q0 -281 -252 -280.5t-252 280.5v549q0 272 211 272q72 0 128 -40t83 -103v158q0 131 -41 194zM512 254v528q0 92 -55.5 160t-134.5 68q-78 0 -114 -43 t-36 -158v-555q0 -203 170 -203t170 203z" />
<glyph unicode="&#xf1;" horiz-adv-x="720" d="M197 0h-82v1061h78v-133q25 66 82 109.5t133 43.5q211 0 210 -272v-809h-81v809q0 115 -36 158t-114 43q-80 0 -135 -68t-55 -160v-782zM516 1356h49q-10 -141 -121 -142q-41 0 -98 36t-86 36q-45 0 -57 -76h-47q4 66 34.5 103t83.5 37q41 0 99.5 -36t85.5 -36 q45 0 57 78z" />
<glyph unicode="&#xf2;" d="M594 260q0 -281 -252 -280.5t-252 280.5v541q0 281 252 280.5t252 -280.5v-541zM512 807q0 203 -170 203t-170 -203v-553q0 -203 170 -203t170 203v553zM281 1413l135 -237h-51l-181 237h97z" />
<glyph unicode="&#xf3;" d="M594 260q0 -281 -252 -280.5t-252 280.5v541q0 281 252 280.5t252 -280.5v-541zM512 807q0 203 -170 203t-170 -203v-553q0 -203 170 -203t170 203v553zM266 1176l133 237h99l-181 -237h-51z" />
<glyph unicode="&#xf4;" d="M594 260q0 -281 -252 -280.5t-252 280.5v541q0 281 252 280.5t252 -280.5v-541zM512 807q0 203 -170 203t-170 -203v-553q0 -203 170 -203t170 203v553zM481 1176l-139 163l-139 -163h-51l157 237h66l157 -237h-51z" />
<glyph unicode="&#xf5;" d="M594 260q0 -281 -252 -280.5t-252 280.5v541q0 281 252 280.5t252 -280.5v-541zM512 807q0 203 -170 203t-170 -203v-553q0 -203 170 -203t170 203v553zM498 1356h49q-10 -141 -121 -142q-41 0 -98.5 36t-85.5 36q-45 0 -58 -76h-47q4 66 35 103t84 37q41 0 99.5 -36 t84.5 -36q46 0 58 78z" />
<glyph unicode="&#xf6;" d="M594 260q0 -281 -252 -280.5t-252 280.5v541q0 281 252 280.5t252 -280.5v-541zM512 807q0 203 -170 203t-170 -203v-553q0 -203 170 -203t170 203v553zM268 1204h-82v150h82v-150zM498 1204h-82v150h82v-150z" />
<glyph unicode="&#xf7;" d="M254 948q0 39 24.5 63.5t63.5 24.5t63.5 -24.5t24.5 -63.5t-24.5 -64.5t-63.5 -25.5t-63.5 25.5t-24.5 64.5zM254 467q0 39 24.5 64.5t63.5 25.5t63.5 -25.5t24.5 -64.5t-24.5 -63.5t-63.5 -24.5t-63.5 24.5t-24.5 63.5zM594 756v-80h-504v80h504z" />
<glyph unicode="&#xf8;" d="M594 260q0 -281 -252 -280q-98 0 -158 40l-34 -96l-60 23l45 123q-45 72 -45 190v541q0 281 252 280q96 0 156 -41l37 97l59 -23l-47 -125q47 -70 47 -188v-541zM512 807q0 37 -6 72l-291 -781q41 -47 127 -47q170 0 170 203v553zM172 254q0 -41 6 -72l291 781 q-43 47 -127 47q-170 0 -170 -203v-553z" />
<glyph unicode="&#xf9;" horiz-adv-x="720" d="M524 279v335v447h82v-715q0 -250 19 -346h-80q-12 45 -17 133q-25 -68 -82 -110.5t-133 -42.5q-211 0 -211 272v809h82v-809q0 -115 36 -158t114 -43q80 0 135 68t55 160zM299 1413l135 -237h-51l-180 237h96z" />
<glyph unicode="&#xfa;" horiz-adv-x="720" d="M524 279v335v447h82v-715q0 -250 19 -346h-80q-12 45 -17 133q-25 -68 -82 -110.5t-133 -42.5q-211 0 -211 272v809h82v-809q0 -115 36 -158t114 -43q80 0 135 68t55 160zM285 1176l133 237h98l-180 -237h-51z" />
<glyph unicode="&#xfb;" horiz-adv-x="720" d="M524 279v335v447h82v-715q0 -250 19 -346h-80q-12 45 -17 133q-25 -68 -82 -110.5t-133 -42.5q-211 0 -211 272v809h82v-809q0 -115 36 -158t114 -43q80 0 135 68t55 160zM500 1176l-140 163l-139 -163h-51l158 237h65l158 -237h-51z" />
<glyph unicode="&#xfc;" horiz-adv-x="720" d="M524 279v335v447h82v-715q0 -250 19 -346h-80q-12 45 -17 133q-25 -68 -82 -110.5t-133 -42.5q-211 0 -211 272v809h82v-809q0 -115 36 -158t114 -43q80 0 135 68t55 160zM287 1204h-82v150h82v-150zM516 1204h-82v150h82v-150z" />
<glyph unicode="&#xfd;" horiz-adv-x="634" d="M88 -266v69q27 -10 66 -10q53 0 78.5 23.5t37.5 81.5q10 53 -2 102l-248 1061h82l162 -694q39 -172 58 -301q25 147 59 301l160 694h73l-270 -1163q-16 -90 -56 -133.5t-126 -43.5q-41 1 -74 13zM227 1176l133 237h99l-180 -237h-52z" />
<glyph unicode="&#xfe;" horiz-adv-x="708" d="M197 782v-503q0 -92 55 -160t135 -68q78 0 114 43t36 158v557q0 115 -36 158t-114 43q-80 0 -135 -68t-55 -160zM618 809v-557q0 -272 -210 -272q-74 0 -130.5 39.5t-80.5 103.5v-381h-82v1692h82v-496q27 63 83 103t128 40q210 0 210 -272z" />
<glyph unicode="&#xff;" horiz-adv-x="634" d="M88 -266v69q27 -10 66 -10q53 0 78.5 23.5t37.5 81.5q10 53 -2 102l-248 1061h82l162 -694q39 -172 58 -301q25 147 59 301l160 694h73l-270 -1163q-16 -90 -56 -133.5t-126 -43.5q-41 1 -74 13zM248 1204h-82v150h82v-150zM477 1204h-82v150h82v-150z" />
<glyph unicode="&#x152;" horiz-adv-x="1052" d="M635 709v-631h356v-78h-573q-307 0 -307 303v827q0 303 307 304h563v-78h-346v-570h317v-77h-317zM547 78v1278h-117q-127 0 -179 -50.5t-52 -172.5v-832q0 -123 52 -173t179 -50h117z" />
<glyph unicode="&#x153;" horiz-adv-x="1097" d="M936 354h78v-94q0 -147 -60.5 -213.5t-181.5 -66.5q-170 0 -217 133q-49 -133 -219 -133q-246 0 -246 280v541q0 281 246 280q170 0 219 -135q47 135 217 135q121 0 181.5 -66.5t60.5 -213.5v-281h-418v-266q0 -203 170 -203t170 203v100zM514 254v555q0 201 -170 201 q-172 0 -172 -201v-555q0 -203 172 -203q170 0 170 203zM596 809v-219h340v219q0 100 -40 150.5t-130 50.5q-170 0 -170 -201z" />
<glyph unicode="&#x178;" horiz-adv-x="667" d="M420 920l143 514h78l-260 -922v-512h-88v504l-262 930h88l143 -514q63 -238 80 -320q15 89 78 320zM260 1546h-82v150h82v-150zM489 1546h-81v150h81v-150z" />
<glyph unicode="&#x2c6;" horiz-adv-x="552" d="M416 1176l-140 163l-139 -163h-51l158 237h65l158 -237h-51z" />
<glyph unicode="&#x2dc;" horiz-adv-x="552" d="M432 1356h49q-10 -141 -121 -142q-41 0 -98 36t-86 36q-45 0 -57 -76h-47q4 66 34.5 103t83.5 37q41 0 99.5 -36t85.5 -36q45 0 57 78z" />
<glyph unicode="&#x2013;" horiz-adv-x="1024" d="M1024 569v-77h-1024v77h1024z" />
<glyph unicode="&#x2014;" horiz-adv-x="2048" d="M2048 569v-77h-2048v77h2048z" />
<glyph unicode="&#x2018;" horiz-adv-x="342" d="M213 1245v-201h-82v201l100 189l15 -7l-70 -182h37z" />
<glyph unicode="&#x2019;" horiz-adv-x="342" d="M129 1233v201h82v-201l-100 -189l-15 7l70 182h-37z" />
<glyph unicode="&#x201a;" horiz-adv-x="342" d="M129 0v201h82v-201l-100 -188l-15 6l70 182h-37z" />
<glyph unicode="&#x201c;" horiz-adv-x="608" d="M479 1245v-201h-82v201l101 189l14 -7l-70 -182h37zM213 1245v-201h-82v201l100 189l15 -7l-70 -182h37z" />
<glyph unicode="&#x201d;" horiz-adv-x="608" d="M395 1233v201h82v-201l-100 -189l-15 7l70 182h-37zM129 1233v201h82v-201l-100 -189l-15 7l70 182h-37z" />
<glyph unicode="&#x201e;" horiz-adv-x="608" d="M395 0v201h82v-201l-100 -188l-15 6l70 182h-37zM129 0v201h82v-201l-100 -188l-15 6l70 182h-37z" />
<glyph unicode="&#x2022;" horiz-adv-x="591" d="M88 717q0 86 60.5 147.5t146.5 61.5t147.5 -61.5t61.5 -147.5t-61.5 -146.5t-147.5 -60.5t-146.5 60.5t-60.5 146.5z" />
<glyph unicode="&#x2026;" horiz-adv-x="874" d="M129 0v201h82v-201h-82zM395 0v201h82v-201h-82zM662 0v201h81v-201h-81z" />
<glyph unicode="&#x2039;" horiz-adv-x="391" d="M31 530l248 531h81l-247 -531l247 -530h-81z" />
<glyph unicode="&#x203a;" horiz-adv-x="391" d="M113 1061l247 -531l-247 -530h-82l248 530l-248 531h82z" />
<glyph unicode="&#x20ac;" d="M0 569v66l90 2v164l-90 -2v65h90v310q0 281 252 280.5t252 -280.5v-111h-82v117q0 203 -170 202.5t-170 -202.5v-316h422v-65h-422v-164h422v-66h-422v-315q0 -203 170 -203t170 203v117h82v-111q0 -281 -252 -280.5t-252 280.5v309h-90z" />
<glyph unicode="&#x2122;" horiz-adv-x="866" d="M713 686v406q0 18 6 276q-6 -61 -45 -276l-72 -406h-61l-72 406q-39 233 -45 276q6 -258 6 -276v-406h-65v748h112l64 -342q18 -100 37 -267q10 123 34 267l62 342h112v-748h-73zM0 1362v72h285v-72h-105v-676h-76v676h-104z" />
<glyph unicode="&#xe000;" horiz-adv-x="1060" d="M0 1060h1060v-1060h-1060v1060z" />
<glyph unicode="&#xfb01;" horiz-adv-x="757" d="M227 1223v-162h238v-72h-238v-989h-82v989h-94v72h94v170q0 115 50.5 169t158.5 54q66 0 111 -20v-70q-47 20 -111 20q-70 0 -98.5 -35.5t-28.5 -125.5zM643 0h-82v1061h82v-1061zM643 1270h-82v164h82v-164z" />
<glyph unicode="&#xfb02;" horiz-adv-x="757" d="M227 1223v-162h238v-72h-238v-989h-82v989h-94v72h94v170q0 115 50.5 169t158.5 54q66 0 111 -20v-70q-47 20 -111 20q-70 0 -98.5 -35.5t-28.5 -125.5zM643 0h-82v1434h82v-1434z" />
<glyph unicode="&#xfb03;" horiz-adv-x="1203" d="M1089 0h-82v1061h82v-1061zM1089 1270h-82v164h82v-164zM673 1223v-162h238v-72h-238v-989h-82v989h-94v72h94v170q0 115 50.5 169t158.5 54q66 0 111 -20v-70q-47 20 -111 20q-70 0 -98.5 -35.5t-28.5 -125.5zM227 1223v-162h238v-72h-238v-989h-82v989h-94v72h94v170 q0 115 50.5 169t158.5 54q66 0 111 -20v-70q-47 20 -111 20q-70 0 -98.5 -35.5t-28.5 -125.5z" />
<glyph unicode="&#xfb04;" horiz-adv-x="1203" d="M1089 0h-82v1434h82v-1434zM673 1223v-162h238v-72h-238v-989h-82v989h-94v72h94v170q0 115 50.5 169t158.5 54q66 0 111 -20v-70q-47 20 -111 20q-70 0 -98.5 -35.5t-28.5 -125.5zM227 1223v-162h238v-72h-238v-989h-82v989h-94v72h94v170q0 115 50.5 169t158.5 54 q66 0 111 -20v-70q-47 20 -111 20q-70 0 -98.5 -35.5t-28.5 -125.5z" />
</font>
</defs>
</svg>
