<svg xmlns="http://www.w3.org/2000/svg" width="31.959" height="31.959" viewBox="0 0 31.959 31.959">
  <path id="icon-close-black" d="M16.98,32.959a15.98,15.98,0,1,1,15.98-15.98A15.964,15.964,0,0,1,16.98,32.959Zm0-29.285A13.306,13.306,0,1,0,30.285,16.98,13.278,13.278,0,0,0,16.98,3.674Zm6.261,19.567a1.28,1.28,0,0,1-1.794,0h0l-4.5-4.5-4.468,4.5a1.269,1.269,0,0,1-1.859-1.728l.065-.065,4.5-4.468-4.5-4.5a1.269,1.269,0,1,1,1.728-1.859l.065.065,4.5,4.5,4.5-4.5a1.269,1.269,0,0,1,1.826,1.761l-.033.033-4.533,4.5,4.5,4.5A1.24,1.24,0,0,1,23.241,23.241Z" transform="translate(-1 -1)" fill="#B90000"/>
</svg>
