<svg id="noun_month_3202614" xmlns="http://www.w3.org/2000/svg" width="37.79" height="36" viewBox="0 0 37.79 36">
  <g id="Group_72" data-name="Group 72">
    <g id="Group_71" data-name="Group 71">
      <g id="Group_64" data-name="Group 64" transform="translate(5.808 16.827)">
        <path id="Path_83" data-name="Path 83" d="M17.975,52.291h5.092a.883.883,0,0,0,.875-.875v-3.54A.883.883,0,0,0,23.067,47H17.975a.883.883,0,0,0-.875.875v3.54A.94.94,0,0,0,17.975,52.291Z" transform="translate(-17.1 -47)" fill="#137bce"/>
      </g>
      <g id="Group_65" data-name="Group 65">
        <path id="Path_84" data-name="Path 84" d="M36.312,8.757H31.976V6.132A1.426,1.426,0,0,0,30.544,4.7h-2.7a1.426,1.426,0,0,0-1.432,1.432V8.757H16.343V6.132A1.426,1.426,0,0,0,14.911,4.7h-2.7a1.426,1.426,0,0,0-1.432,1.432V8.757h-4.3A3.99,3.99,0,0,0,2.5,12.735V36.722A3.99,3.99,0,0,0,6.478,40.7H36.312a3.99,3.99,0,0,0,3.978-3.978V12.735A3.99,3.99,0,0,0,36.312,8.757Zm1.313,27.965a1.324,1.324,0,0,1-1.313,1.313H6.478a1.324,1.324,0,0,1-1.313-1.313V18.384h32.5V36.722Z" transform="translate(-2.5 -4.7)" fill="#137bce"/>
      </g>
      <g id="Group_66" data-name="Group 66" transform="translate(15.474 16.827)">
        <path id="Path_85" data-name="Path 85" d="M42.275,52.291h5.092a.883.883,0,0,0,.875-.875v-3.54A.883.883,0,0,0,47.367,47H42.275a.883.883,0,0,0-.875.875v3.54A.883.883,0,0,0,42.275,52.291Z" transform="translate(-41.4 -47)" fill="#137bce"/>
      </g>
      <g id="Group_67" data-name="Group 67" transform="translate(25.14 16.827)">
        <path id="Path_86" data-name="Path 86" d="M66.575,52.291h5.092a.883.883,0,0,0,.875-.875v-3.54A.883.883,0,0,0,71.667,47H66.575a.883.883,0,0,0-.875.875v3.54A.883.883,0,0,0,66.575,52.291Z" transform="translate(-65.7 -47)" fill="#137bce"/>
      </g>
      <g id="Group_68" data-name="Group 68" transform="translate(5.808 24.902)">
        <path id="Path_87" data-name="Path 87" d="M17.975,72.591h5.092a.883.883,0,0,0,.875-.875v-3.54a.883.883,0,0,0-.875-.875H17.975a.883.883,0,0,0-.875.875v3.54A.94.94,0,0,0,17.975,72.591Z" transform="translate(-17.1 -67.3)" fill="#137bce"/>
      </g>
      <g id="Group_69" data-name="Group 69" transform="translate(15.474 24.902)">
        <path id="Path_88" data-name="Path 88" d="M42.275,72.591h5.092a.883.883,0,0,0,.875-.875v-3.54a.883.883,0,0,0-.875-.875H42.275a.883.883,0,0,0-.875.875v3.54A.883.883,0,0,0,42.275,72.591Z" transform="translate(-41.4 -67.3)" fill="#137bce"/>
      </g>
      <g id="Group_70" data-name="Group 70" transform="translate(25.14 24.902)">
        <path id="Path_89" data-name="Path 89" d="M66.575,72.591h5.092a.883.883,0,0,0,.875-.875v-3.54a.883.883,0,0,0-.875-.875H66.575a.883.883,0,0,0-.875.875v3.54A.883.883,0,0,0,66.575,72.591Z" transform="translate(-65.7 -67.3)" fill="#137bce"/>
      </g>
    </g>
  </g>
</svg>
