<svg xmlns="http://www.w3.org/2000/svg" width="30.959" height="30.959" viewBox="0 0 30.959 30.959">
  <g id="icon-edit-blue" transform="translate(0.035)">
    <g id="Group_78" data-name="Group 78" transform="translate(-0.035)">
      <g id="Group_77" data-name="Group 77">
        <path id="Path_101" data-name="Path 101" d="M24.107,2.344a1.107,1.107,0,0,1,1.6,0h0l6.871,6.871a1.107,1.107,0,0,1,0,1.6h0L13.113,30.286a2.5,2.5,0,0,1-.573.344h0L3.379,32.92a1.137,1.137,0,0,1-1.374-1.374h0L4.3,22.384c0-.229.115-.344.344-.573h0ZM20.328,9.329,6.471,23.186,4.753,30.171l6.986-1.718L25.6,14.6Zm4.581-4.581L21.931,7.726,27.2,12.994l2.977-2.977Z" transform="translate(-1.965 -2)" fill="#137bce"/>
      </g>
    </g>
  </g>
</svg>
