<?xml version="1.0" standalone="no"?>
<!DOCTYPE svg PUBLIC "-//W3C//DTD SVG 1.1//EN" "http://www.w3.org/Graphics/SVG/1.1/DTD/svg11.dtd" >
<svg xmlns="http://www.w3.org/2000/svg">
<metadata>
This is a custom SVG webfont generated by Fontspring.
</metadata>
<defs>
<font id="RamaGothicERegular" horiz-adv-x="735" >
<font-face units-per-em="2048" ascent="1638" descent="-410" />
<missing-glyph horiz-adv-x="374" />
<glyph unicode=" "  horiz-adv-x="374" />
<glyph unicode="&#x09;" horiz-adv-x="374" />
<glyph unicode="&#xa0;" horiz-adv-x="374" />
<glyph unicode="!" horiz-adv-x="387" d="M111 0v219h165v-219h-165zM281 913l-43 -563h-88l-44 563v521h175v-521z" />
<glyph unicode="&#x22;" horiz-adv-x="675" d="M571 1198l-26 -473h-101l-28 473v236h155v-236zM262 1198l-26 -473h-101l-29 473v236h156v-236z" />
<glyph unicode="#" d="M72 928l12 125h109l40 381h117l-39 -381h183l41 381h116l-39 -381h111l-12 -125h-113l-43 -422h111l-13 -125h-110l-41 -381h-117l39 381h-184l-39 -381h-117l39 381h-111l13 125h110l43 422h-106zM297 928l-43 -422h182l45 422h-184z" />
<glyph unicode="$" d="M328 -98v100q-264 18 -265 332v184h156v-205q0 -166 141.5 -166t141.5 166v27q0 96 -45 169t-110 123l-129 105q-65 55 -110 149.5t-45 223.5v4q0 293 265 316v102h75v-102q266 -18 267 -330v-176h-158v194q0 168 -139 168q-76 0 -109 -41t-33 -127v-8q0 -96 45.5 -169 t109.5 -123l129 -105q65 -55 110 -149.5t45 -223.5v-23q0 -297 -267 -315v-100h-75z" />
<glyph unicode="%" horiz-adv-x="1269" d="M285 0l583 1434h117l-584 -1434h-116zM1208 719v-520q0 -221 -209 -222q-211 0 -211 222v520q0 221 211 221q209 0 209 -221zM1083 190v537q0 102 -84 102q-86 0 -86 -102v-537q0 -104 86 -104q84 0 84 104zM481 1235v-520q0 -221 -209 -221q-211 0 -211 221v520 q0 221 211 221q209 0 209 -221zM356 707v536q0 102 -84 103q-86 0 -86 -103v-536q0 -104 86 -105q84 1 84 105z" />
<glyph unicode="&#x26;" horiz-adv-x="958" d="M465 879q209 -506 235 -619q61 119 62 330v256h135v-240q0 -291 -115 -456q29 -29 82 -29q45 0 72 12v-133q-45 -16 -107 -16q-104 0 -167 49q-92 -55 -203 -56q-109 0 -177.5 41t-131.5 179l-56 120q-55 119 -55 224q0 164 164 282l69 51q-78 197 -77 328q0 106 62 180 t177 74q119 0 174.5 -64.5t55.5 -172.5q0 -100 -47.5 -179t-151.5 -161zM475 113q61 0 113 26l-269 625l-43 -33q-76 -59 -75 -153q0 -82 41 -166l71 -154q41 -88 77 -116.5t85 -28.5zM360 1212q0 -41 8.5 -78.5t25 -86t20.5 -64.5q127 109 127 236q0 121 -90.5 120.5 t-90.5 -127.5z" />
<glyph unicode="'" horiz-adv-x="368" d="M262 1198l-26 -473h-101l-29 473v236h156v-236z" />
<glyph unicode="(" horiz-adv-x="456" d="M76 1094q0 340 309 340h72v-123h-51q-92 0 -131 -46t-39 -155v-973q0 -109 38.5 -154.5t131.5 -45.5h51v-123h-72q-309 0 -309 340v940z" />
<glyph unicode=")" horiz-adv-x="456" d="M381 1094v-940q0 -340 -309 -340h-72v123h51q92 0 131 46t39 154v973q0 109 -39 155t-131 46h-51v123h72q309 0 309 -340z" />
<glyph unicode="*" horiz-adv-x="786" d="M2 856l305 160l-305 158l59 102l287 -184l-14 342h119l-17 -342l289 184l59 -102l-305 -158l305 -160l-59 -100l-289 182l17 -342h-119l14 342l-287 -182z" />
<glyph unicode="+" d="M434 385h-135v264h-223v133h223v262h135v-262h225v-133h-225v-264z" />
<glyph unicode="," horiz-adv-x="368" d="M106 0v264h154v-264l-158 -209l-16 12l98 197h-78z" />
<glyph unicode="-" horiz-adv-x="569" d="M502 598v-139h-434v139h434z" />
<glyph unicode="." horiz-adv-x="368" d="M106 0v264h154v-264h-154z" />
<glyph unicode="/" horiz-adv-x="663" d="M18 0l471 1434h156l-473 -1434h-154z" />
<glyph unicode="0" d="M659 293q0 -315 -290 -316q-293 0 -293 316v848q0 315 293 315q291 0 290 -315v-848zM504 1159q0 162 -135 162q-137 0 -138 -162v-885q0 -162 138 -161q135 0 135 161v885z" />
<glyph unicode="1" horiz-adv-x="446" d="M49 1217v131h92q92 0 101 86h88v-1434h-156v1217h-125z" />
<glyph unicode="2" horiz-adv-x="706" d="M221 911h-145v222q0 324 286.5 323.5t286.5 -323.5v-27q0 -129 -44 -233.5t-107 -177.5l-126 -141q-62 -69 -106.5 -163t-44.5 -207v-28h422v-156h-577v170q0 102 23.5 188t61 147.5t83.5 116.5l93 105q46 51 84 103.5t61.5 121t23.5 148.5v53q0 168 -137.5 168 t-137.5 -168v-242z" />
<glyph unicode="3" horiz-adv-x="704" d="M66 512h145v-231q0 -168 137 -168t137 168v231q0 86 -31.5 128t-105.5 42h-104v133h104q74 0 105.5 42t31.5 128v168q0 168 -137 168t-137 -168v-168h-145v152q0 319 286.5 319t286.5 -319v-115q0 -227 -145 -274q145 -47 145 -273v-176q0 -322 -286.5 -322t-286.5 322 v213z" />
<glyph unicode="4" horiz-adv-x="722" d="M680 451v-152h-92v-299h-156v299h-385v129l367 1006h174v-983h92zM336 856l-141 -405h237v372q0 246 21 426q-47 -192 -117 -393z" />
<glyph unicode="5" horiz-adv-x="739" d="M90 502h143v-221q0 -168 137.5 -168t137.5 168v497q0 92 -28.5 127t-92.5 35q-66 0 -110 -53t-44 -127v-88h-143v762h563v-156h-420v-344q61 139 211 139q219 0 220 -287v-485q0 -324 -287 -324t-287 324v201z" />
<glyph unicode="6" horiz-adv-x="724" d="M659 682v-389q0 -315 -290 -316q-293 0 -293 316v840q0 324 286.5 323.5t286.5 -323.5v-43h-145v63q0 168 -135 168q-137 0 -138 -168v-319q27 59 82.5 97t126.5 38q219 0 219 -287zM382.5 834q-63.5 0 -107.5 -52.5t-44 -126.5v-381q0 -162 138 -161q135 0 135 161v400 q0 90 -29 125t-92.5 35z" />
<glyph unicode="7" horiz-adv-x="667" d="M57 1278v156h576v-127l-404 -1307h-172l424 1278h-424z" />
<glyph unicode="8" horiz-adv-x="714" d="M649 1022q0 -217 -137 -274q137 -57 137 -273v-188q0 -309 -291 -310q-293 0 -292 310v188q0 215 137 273q-137 57 -137 274v125q0 309 292 309q291 0 291 -309v-125zM358 682q-82 0 -109.5 -40t-27.5 -136v-232q0 -162 137.5 -161.5t137.5 161.5v232q0 94 -30 135 t-108 41zM358 815q78 0 108 41t30 135v168q0 162 -137.5 162t-137.5 -162v-168q0 -96 27.5 -136t109.5 -40z" />
<glyph unicode="9" horiz-adv-x="724" d="M358.5 113q137.5 0 137.5 168v344q-27 -61 -82.5 -100.5t-128.5 -39.5q-219 0 -219 287v369q0 315 292 315q291 0 291 -315v-840q0 -324 -286.5 -324t-286.5 324v64h145v-84q0 -168 137.5 -168zM342 621q66 0 110 52t44 126v360q0 162 -137.5 162t-137.5 -162v-379 q0 -90 29 -124.5t92 -34.5z" />
<glyph unicode=":" horiz-adv-x="368" d="M106 733v264h154v-264h-154zM106 0v264h154v-264h-154z" />
<glyph unicode=";" horiz-adv-x="368" d="M106 0v264h154v-264l-158 -209l-16 12l98 197h-78zM106 733v264h154v-264h-154z" />
<glyph unicode="&#x3c;" d="M225 719l434 -205v-143l-583 280v129l583 279v-137z" />
<glyph unicode="=" d="M659 612v-135h-583v135h583zM659 954v-133h-583v133h583z" />
<glyph unicode="&#x3e;" d="M76 514l434 205l-434 203v137l583 -279v-129l-583 -280v143z" />
<glyph unicode="?" horiz-adv-x="649" d="M182 911h-145v222q0 324 287 323q289 0 288 -323v-43q0 -109 -26.5 -185t-64.5 -119l-77 -86q-39 -43 -65.5 -114.5t-26.5 -173.5v-62h-90v103q0 113 20.5 189.5t49.5 116.5l56 78q28 38 48.5 103.5t20.5 161.5v51q0 168 -137.5 168t-137.5 -168v-242zM229 0v240h156 v-240h-156z" />
<glyph unicode="@" horiz-adv-x="1265" d="M76 717q0 127 12 227t48 199.5t95.5 165t162 106.5t241.5 41q170 0 284.5 -58.5t171 -168t78 -230t21.5 -282.5t-21.5 -283t-78 -230.5t-171 -168t-284.5 -58.5q-139 0 -241.5 41t-162 106.5t-95.5 165t-48 200t-12 227.5zM178 716.5q0 -114.5 8.5 -199.5t37 -173 t76.5 -143.5t133 -91t202 -35.5t201 35.5t132 91t75.5 143.5t35.5 173t8 199.5t-8 199.5t-35.5 173.5t-75.5 143.5t-132 91t-201 36t-202 -36t-133 -91t-76.5 -143.5t-37 -173.5t-8.5 -199.5zM829 944v-446q0 -125 21 -219h-109q-14 27 -20 94q-16 -49 -56 -80t-94 -31 q-156 0 -155 207v39q0 82 30.5 138t73.5 84t86 49.5t74 49t31 66.5v57q0 109 -84 109t-84 -109v-106h-111v98q0 225 201 225q100 0 148 -54t48 -171zM711 479v260l-56 -34q-45 -29 -62.5 -43.5t-36.5 -50.5t-19 -81v-51q0 -61 21.5 -83.5t59.5 -22.5q37 0 65 30.5t28 75.5z " />
<glyph unicode="A" horiz-adv-x="759" d="M561 0l-41 231h-303l-39 -231h-158l248 1434h219l248 -1434h-174zM305 745l-63 -368h254l-64 368q-39 229 -63 486q-25 -257 -64 -486z" />
<glyph unicode="B" horiz-adv-x="806" d="M104 1434h302q72 0 124 -11.5t101 -43t73.5 -97t24.5 -164.5v-106q0 -217 -145 -271q154 -53 153 -268v-154q0 -188 -89 -253.5t-242 -65.5h-302v1434zM389 674h-110v-522h110q98 0 136 37.5t38 136.5v178q0 96 -38 133t-136 37zM279 823h110q98 0 136 37t38 133v119 q0 96 -38 133t-136 37h-110v-459z" />
<glyph unicode="C" horiz-adv-x="776" d="M250 303q0 -172 147.5 -172t147.5 172v258h164v-235q0 -348 -318 -349q-315 0 -315 349v782q0 348 315 348q317 0 318 -348v-193h-164v215q0 172 -147.5 172.5t-147.5 -172.5v-827z" />
<glyph unicode="D" horiz-adv-x="823" d="M104 0v1434h287q342 0 342 -334v-766q0 -334 -342 -334h-287zM379 1282h-100v-1130h100q98 0 139 40.5t41 137.5v774q0 96 -41 137t-139 41z" />
<glyph unicode="E" horiz-adv-x="669" d="M279 672v-520h339v-152h-514v1434h504v-152h-329v-459h292v-151h-292z" />
<glyph unicode="F" horiz-adv-x="616" d="M279 645v-645h-175v1434h492v-152h-317v-483h282v-154h-282z" />
<glyph unicode="G" horiz-adv-x="788" d="M545 952v178q0 172 -147.5 172.5t-147.5 -172.5v-827q0 -172 147.5 -172t147.5 172v352h-148v142h316v-797h-90l-17 121q-63 -143 -248 -144q-283 0 -282 349v782q0 348 315 348q317 0 318 -348v-156h-164z" />
<glyph unicode="H" horiz-adv-x="854" d="M279 672v-672h-175v1434h175v-611h296v611h175v-1434h-175v672h-296z" />
<glyph unicode="I" horiz-adv-x="376" d="M100 0v1434h174v-1434h-174z" />
<glyph unicode="J" horiz-adv-x="743" d="M651 309q0 -332 -315.5 -332t-315.5 332v252h162v-266q0 -164 148 -164q78 0 112.5 40t34.5 124v1139h174v-1125z" />
<glyph unicode="K" horiz-adv-x="813" d="M279 1434v-740q51 133 163 369l179 371h167l-276 -590l287 -844h-178l-220 659l-122 -245v-414h-175v1434h175z" />
<glyph unicode="L" horiz-adv-x="598" d="M104 0v1434h175v-1282h317v-152h-492z" />
<glyph unicode="M" horiz-adv-x="1132" d="M563 307q14 147 68 400l151 727h246v-1434h-170v805q0 150 12 420q-27 -172 -73 -418l-172 -807h-144l-172 807q-47 246 -73 418q12 -203 12 -420v-805h-148v1434h244l154 -727q53 -273 65 -400z" />
<glyph unicode="N" horiz-adv-x="868" d="M618 1434h148v-1434h-195l-254 870q-14 53 -79 326q12 -205 12 -330v-866h-150v1434h234l217 -750l41 -162l41 -162q-14 233 -15 328v746z" />
<glyph unicode="O" horiz-adv-x="794" d="M76 326v782q0 348 321.5 348t321.5 -348v-782q0 -348 -321.5 -348t-321.5 348zM250 303q0 -172 147.5 -172t147.5 172v827q0 172 -147.5 172.5t-147.5 -172.5v-827z" />
<glyph unicode="P" horiz-adv-x="763" d="M279 514v-514h-175v1434h281q344 0 344 -334v-252q0 -334 -344 -334h-106zM373 1282h-94v-616h94q98 0 140 39.5t42 136.5v262q0 96 -42 137t-140 41z" />
<glyph unicode="Q" horiz-adv-x="815" d="M762 135q10 0 39 4v-147q-29 -14 -66 -15q-102 0 -131 84q-76 -84 -223 -84q-305 0 -305 349v782q0 348 321.5 348t321.5 -348v-909q0 -64 43 -64zM250 1130v-827q0 -172 147.5 -172t147.5 172v827q0 172 -147.5 172t-147.5 -172z" />
<glyph unicode="R" horiz-adv-x="817" d="M352 637h-73v-637h-175v1434h302q74 0 126 -11.5t102 -42t76.5 -96t26.5 -166.5v-133q0 -217 -159 -274q160 -55 159 -281v-57q0 -176 11.5 -246t35.5 -127h-188q-33 115 -33 289v121q0 131 -44 179t-167 48zM279 788h110q98 0 136 36t38 134v154q0 96 -38 133t-136 37 h-110v-494z" />
<glyph unicode="S" horiz-adv-x="745" d="M227 498v-195q0 -88 32 -130t107.5 -42t107.5 42t32 130v29q0 84 -33 150.5t-82 107.5l-106 91q-57 50 -106.5 100t-82.5 138.5t-33 200.5v4q0 332 310 332q307 0 307 -348v-133h-162v155q0 88 -32.5 130.5t-108.5 42.5t-107.5 -42t-31.5 -131v-12q0 -74 24.5 -132 t63.5 -99t86 -80l94 -82q47 -43 86 -94t63.5 -129t24.5 -174v-19q0 -332 -307 -332q-309 0 -310 349v172h164z" />
<glyph unicode="T" horiz-adv-x="614" d="M612 1434v-152h-219v-1282h-174v1282h-219v152h612z" />
<glyph unicode="U" horiz-adv-x="811" d="M264 295q0 -164 150 -164q147 0 147 164v1139h162v-1125q0 -332 -315 -332q-317 0 -318 332v1125h174v-1139z" />
<glyph unicode="V" horiz-adv-x="753" d="M201 1434l129 -746q29 -172 57 -444q25 242 59 444l127 746h160l-248 -1434h-213l-247 1434h176z" />
<glyph unicode="W" horiz-adv-x="1177" d="M946 0h-209l-102 698q-33 223 -47 418q-25 -274 -45 -418l-101 -698h-204l-213 1434h174l104 -697q35 -233 53 -463q14 217 52 465l104 695h176l105 -697q31 -205 51 -463q20 256 51 465l104 695h160z" />
<glyph unicode="X" horiz-adv-x="743" d="M254 739l-215 695h178l90 -301q47 -156 74 -275q18 82 74 275l88 301h162l-216 -695l230 -739h-178l-103 348q-57 190 -73 277q-37 -154 -74 -277l-105 -348h-161z" />
<glyph unicode="Y" horiz-adv-x="765" d="M465 985l119 449h161l-272 -945v-489h-174v475l-274 959h178l121 -449q43 -158 71 -311q15 90 70 311z" />
<glyph unicode="Z" horiz-adv-x="653" d="M51 1282v152h561v-117l-381 -1165h381v-152h-571v115l381 1167h-371z" />
<glyph unicode="[" horiz-adv-x="485" d="M266 1366v-1429h219v-123h-381v1675h381v-123h-219z" />
<glyph unicode="\" horiz-adv-x="663" d="M174 1434l471 -1434h-153l-474 1434h156z" />
<glyph unicode="]" horiz-adv-x="485" d="M219 -63v1429h-219v123h381v-1675h-381v123h219z" />
<glyph unicode="^" d="M369 1260l-174 -457h-144l254 631h125l254 -631h-143z" />
<glyph unicode="_" horiz-adv-x="1024" d="M1024 -74v-100h-1024v100h1024z" />
<glyph unicode="`" horiz-adv-x="569" d="M297 1419l135 -252h-104l-191 252h160z" />
<glyph unicode="a" horiz-adv-x="731" d="M516 0q-16 45 -20 133q-25 -68 -81.5 -112t-133.5 -44q-221 0 -222 273v18q0 88 32 156t80 102.5t103.5 65.5t103.5 51.5t79.5 54t31.5 76.5v14q0 162 -129 162q-131 0 -131 -162v-75h-145v57q0 313 283 313q279 0 278 -313v-424q0 -244 21 -346h-150zM489 291v276 q-25 -16 -86 -49t-95 -54.5t-63.5 -69.5t-29.5 -113v-19q0 -86 29.5 -118.5t93 -32.5t107.5 53t44 127z" />
<glyph unicode="b" horiz-adv-x="757" d="M252 770v-479q0 -74 44 -126t107.5 -52t93 34.5t29.5 124.5v516q0 90 -29.5 125t-93 35t-107.5 -52t-44 -126zM96 1434h156v-490q61 139 209 139q221 0 221 -286v-533q0 -287 -221 -287q-78 0 -135.5 44.5t-81.5 113.5l-33 -135h-115v1434z" />
<glyph unicode="c" horiz-adv-x="714" d="M649 682h-145v104q0 162 -135 162q-137 0 -138 -162v-512q0 -162 138 -161q135 0 135 161v125h145v-106q0 -315 -286.5 -315.5t-286.5 315.5v475q0 315 286.5 315t286.5 -315v-86z" />
<glyph unicode="d" horiz-adv-x="757" d="M506 291v479q0 74 -44 126t-107.5 52t-93.5 -34.5t-30 -125.5v-516q0 -90 30 -124.5t93.5 -34.5t107.5 52t44 126zM532 0q-16 45 -20 129q-27 -68 -83 -110t-132 -42q-221 0 -221 287v533q0 287 221 286q72 0 127 -38.5t82 -100.5v490h156v-1088q0 -244 20 -346h-150z " />
<glyph unicode="e" horiz-adv-x="718" d="M649 487h-418v-213q0 -162 138 -161q135 0 135 161v86h145v-67q0 -315 -286.5 -315.5t-286.5 315.5v475q0 315 286.5 315t286.5 -315v-281zM231 786v-168h273v168q0 162 -135 162q-138 0 -138 -162z" />
<glyph unicode="f" horiz-adv-x="477" d="M283 1192v-131h206v-135h-206v-926h-154v926h-92v135h92v153q0 125 55.5 183.5t175.5 58.5q74 0 129 -22v-127q-43 18 -100 18t-81.5 -29.5t-24.5 -103.5z" />
<glyph unicode="g" horiz-adv-x="759" d="M72 -88q0 115 86 160q-59 41 -60 133q0 106 84 155q-117 63 -116 261v167q0 160 71.5 227.5t214.5 67.5q184 0 246 -110q16 88 92 88q33 0 49 -6v-129q-33 4 -49 4q-41 0 -41 -66v-243q0 -160 -72.5 -228.5t-218.5 -68.5q-47 0 -90 6q-39 -18 -39 -72q0 -29 18.5 -50.5 t55.5 -21.5h180q131 0 193.5 -55t62.5 -176q0 -236 -278 -236h-146q-243 0 -243 193zM496 803q0 162 -137.5 162t-137.5 -162v-199q0 -162 137.5 -162t137.5 162v199zM340 -180h102q74 0 109 25.5t35 84.5q0 61 -30 84t-93 23h-162q-55 0 -78.5 -31t-23.5 -74 q0 -59 29.5 -85.5t111.5 -26.5z" />
<glyph unicode="h" horiz-adv-x="768" d="M682 0h-156v788q0 90 -29.5 125t-93 35t-107.5 -53t-44 -125v-770h-156v1434h156v-490q61 139 209 139q221 0 221 -286v-797z" />
<glyph unicode="i" horiz-adv-x="348" d="M252 0h-156v1061h156v-1061zM252 1241h-156v193h156v-193z" />
<glyph unicode="j" horiz-adv-x="348" d="M252 1241h-156v193h156v-193zM59 -276q-51 0 -86 14v123q25 -10 54 -11q39 0 54 20.5t15 70.5v1120h156v-1127q0 -113 -45.5 -161.5t-147.5 -48.5z" />
<glyph unicode="k" horiz-adv-x="749" d="M252 1434v-914q33 72 143 258l172 283h148l-252 -434l274 -627h-162l-213 489l-110 -180v-309h-156v1434h156z" />
<glyph unicode="l" horiz-adv-x="348" d="M252 0h-156v1434h156v-1434z" />
<glyph unicode="m" horiz-adv-x="1159" d="M252 0h-156v1061h146v-137q20 70 75.5 114.5t135.5 44.5q156 0 194 -155q25 70 81 112.5t134 42.5q102 0 156.5 -64.5t54.5 -221.5v-797h-155v788q0 92 -26 126t-87 34q-63 0 -103 -52t-40 -126v-770h-154v788q0 92 -25.5 126t-87.5 34q-63 0 -103 -52t-40 -126v-770z " />
<glyph unicode="n" horiz-adv-x="768" d="M252 0h-156v1061h146v-141q23 72 81 117.5t138 45.5q221 0 221 -286v-797h-156v788q0 90 -29.5 125t-93 35t-107.5 -52t-44 -126v-770z" />
<glyph unicode="o" d="M659 293q0 -315 -290 -316q-293 0 -293 316v475q0 315 293 315q291 0 290 -315v-475zM504 786q0 162 -135 162q-137 0 -138 -162v-512q0 -162 138 -161q135 0 135 161v512z" />
<glyph unicode="p" horiz-adv-x="757" d="M252 770v-479q0 -74 44 -126t107.5 -52t93 34.5t29.5 124.5v516q0 90 -29.5 125t-93 35t-107.5 -52t-44 -126zM252 -258h-156v1319h146v-141q23 72 81 117.5t138 45.5q221 0 221 -286v-533q0 -287 -221 -287q-72 0 -127 38t-82 100v-373z" />
<glyph unicode="q" horiz-adv-x="757" d="M506 291v479q0 74 -44 126t-107.5 52t-93.5 -34.5t-30 -125.5v-516q0 -90 30 -124.5t93.5 -34.5t107.5 52t44 126zM662 -258h-156v373q-27 -61 -82 -99.5t-127 -38.5q-221 0 -221 287v533q0 287 221 286q78 0 135 -44t82 -115l33 137h115v-1319z" />
<glyph unicode="r" horiz-adv-x="698" d="M252 0h-156v1061h146v-139q23 72 79 116.5t136 44.5q100 0 152.5 -63.5t52.5 -218.5v-271h-146v258q0 90 -27.5 125t-89.5 35q-63 0 -105 -52t-42 -126v-770z" />
<glyph unicode="s" horiz-adv-x="692" d="M471 258v18q0 61 -42 103.5t-101.5 72t-118.5 64.5t-101 104.5t-42 172.5v4q0 287 282 286q281 0 281 -305v-51h-146v66q0 82 -29.5 122.5t-101 40.5t-101.5 -37.5t-30 -115.5v-10q0 -61 42 -104.5t101.5 -73t119 -66.5t101.5 -106.5t42 -170.5v-4q0 -291 -280.5 -291 t-280.5 306v67h143v-82q0 -164 131 -164q72 0 101.5 38t29.5 116z" />
<glyph unicode="t" horiz-adv-x="466" d="M328 -12q-106 0 -152.5 48t-46.5 163v727h-92v135h92v227h154v-227h161v-135h-161v-711q0 -49 18 -70.5t61 -21.5q51 0 82 8v-131q-48 -12 -116 -12z" />
<glyph unicode="u" horiz-adv-x="768" d="M516 291v295v475h156v-715q0 -244 20 -346h-149q-16 45 -21 129q-27 -68 -83 -110t-132 -42q-221 0 -221 287v797h156v-789q0 -90 29.5 -124.5t93 -34.5t107.5 52t44 126z" />
<glyph unicode="v" horiz-adv-x="690" d="M408 485l124 576h146l-238 -1061h-190l-236 1061h158l127 -576q35 -162 53 -327q25 184 56 327z" />
<glyph unicode="w" horiz-adv-x="1087" d="M635 1061l104 -578q25 -129 41 -307q20 178 43 307l105 578h147l-207 -1061h-182l-104 545q-14 76 -39 297q-16 -170 -39 -297l-101 -545h-184l-205 1061h160l107 -578q14 -72 41 -307q16 178 40 307l105 578h168z" />
<glyph unicode="x" horiz-adv-x="688" d="M436 883l70 178h147l-209 -506l228 -555h-164l-92 227q-49 125 -80 232q-37 -115 -84 -232l-90 -227h-148l230 555l-209 506h164l69 -178q41 -106 84 -238l19 55l27 82q15 46 38 101z" />
<glyph unicode="y" horiz-adv-x="690" d="M172 1061l127 -576q35 -162 53 -327q25 184 56 327l124 576h146l-256 -1143q-23 -100 -73 -147t-161 -47q-63 0 -100 10v125q31 -10 74 -10.5t64.5 17t31.5 62.5q1 8 1 19q0 26 -7 65l-238 1049h158z" />
<glyph unicode="z" horiz-adv-x="620" d="M55 926v135h529v-117l-379 -809h379v-135h-547v117l377 809h-359z" />
<glyph unicode="{" horiz-adv-x="497" d="M162 422q0 74 -22.5 101.5t-90.5 27.5h-49v137h49q68 0 90.5 26.5t22.5 102.5q0 55 -18.5 159.5t-18.5 164.5q0 168 81 232.5t228 64.5h62v-123h-43q-92 0 -130 -40t-38 -138q0 -47 19.5 -147.5t19.5 -149.5q0 -178 -111 -222q111 -43 111 -219q0 -49 -19.5 -149 t-19.5 -148q0 -98 37.5 -138t130.5 -40h43v-123h-62q-147 0 -228 64.5t-81 232.5q0 59 18.5 164t18.5 160z" />
<glyph unicode="|" horiz-adv-x="569" d="M213 -258v1692h143v-1692h-143z" />
<glyph unicode="}" horiz-adv-x="497" d="M336 422q0 -55 18.5 -159.5t18.5 -164.5q0 -168 -81 -232.5t-229 -64.5h-61v123h43q92 0 130 40t38 138q0 47 -19.5 147.5t-19.5 149.5q0 176 111 219q-111 43 -111 222q0 49 19.5 149.5t19.5 147.5q0 98 -38 138t-130 40h-43v123h61q147 0 228.5 -64.5t81.5 -232.5 q0 -59 -18.5 -164t-18.5 -160q0 -76 22.5 -102.5t90.5 -26.5h49v-137h-49q-68 0 -90.5 -27.5t-22.5 -101.5z" />
<glyph unicode="~" d="M659 817v-135q-68 -74 -151 -74q-51 0 -149.5 40t-145.5 40q-76 0 -137 -72v134q68 74 149 73q51 0 149.5 -40t145.5 -40q76 0 139 74z" />
<glyph unicode="&#xa1;" horiz-adv-x="387" d="M274 1157v-219h-165v219h165zM104 244l43 563h89l43 -563v-520h-175v520z" />
<glyph unicode="&#xa2;" d="M655 868h-145v105q0 160 -137 160t-137 -160v-512q0 -160 137 -160t137 160v125h145v-105q0 -293 -249 -315v-135h-76v135q-250 18 -250 315v471q0 295 250 314v137h76v-137q250 -20 249 -314v-84z" />
<glyph unicode="&#xa3;" d="M610 397h-221q-16 -162 -137 -241h420v-156h-609v133q92 31 138.5 93.5t54.5 170.5h-168v113h166q-10 82 -98 262t-88 340v33q0 154 78.5 232.5t224.5 78.5q303 0 303 -332v-198h-156v217q0 166 -139 166q-143 0 -143 -166v-35q0 -133 73.5 -303t81.5 -295h219v-113z" />
<glyph unicode="&#xa4;" d="M213 716.5q0 -67.5 43 -111.5t113 -44q68 0 111.5 44t43.5 111.5t-44 111.5t-111 44q-70 0 -113 -44t-43 -111.5zM123 717q0 76 45 137l-119 111l70 69l108 -119q63 47 142 48q76 0 139 -48l108 119l72 -69l-121 -111q45 -61 45 -137t-45 -137l121 -113l-72 -68l-108 119 q-63 -47 -139 -47q-78 0 -142 47l-108 -119l-70 68l119 113q-45 61 -45 137z" />
<glyph unicode="&#xa5;" d="M444 985l113 449h143l-233 -875h199v-84h-220v-153h220v-84h-220v-238h-155v238h-223v84h223v153h-223v84h200l-233 875h160l112 -449q51 -201 70 -311q16 110 67 311z" />
<glyph unicode="&#xa6;" horiz-adv-x="569" d="M213 723v711h143v-711h-143zM213 -258v711h143v-711h-143z" />
<glyph unicode="&#xa7;" horiz-adv-x="739" d="M223 254v-115q0 -166 142 -166q143 0 143 146v10q0 70 -46 120t-111 85l-130 74q-66 39 -112 108.5t-46 167.5v2q0 166 127 229q-125 100 -124 254v5q0 135 80.5 208.5t222.5 73.5q143 0 224 -76.5t81 -226.5v-104h-158v114q0 166 -141 166q-143 0 -144 -145v-10 q0 -70 46.5 -120t110.5 -85l130 -74q66 -39 112 -108.5t46 -168.5v-2q0 -168 -127 -231q127 -102 127 -252v-4q0 -135 -82 -209t-223 -74q-143 0 -223 77t-80 227v104h155zM545 592q0 39 -13.5 71.5t-48 61.5t-57.5 45t-79 47t-75 43q-78 -35 -77 -149q0 -33 12 -64 t27.5 -51.5t48 -44t54 -36.5t65.5 -38l65 -37q78 41 78 152z" />
<glyph unicode="&#xa8;" horiz-adv-x="569" d="M221 1194h-145v182h145v-182zM496 1194h-148v182h148v-182z" />
<glyph unicode="&#xa9;" horiz-adv-x="1265" d="M76 717q0 127 12 227t48 199.5t95.5 165t162 106.5t241.5 41q170 0 284.5 -58.5t171 -168t78 -230t21.5 -282.5t-21.5 -283t-78 -230.5t-171 -168t-284.5 -58.5q-139 0 -241.5 41t-162 106.5t-95.5 165t-48 200t-12 227.5zM178 716.5q0 -114.5 8.5 -199.5t37 -173 t76.5 -143.5t133 -91t202 -35.5t201 35.5t132 91t75.5 143.5t35.5 173t8 199.5t-8 199.5t-35.5 173.5t-75.5 143.5t-132 91t-201 36t-202 -36t-133 -91t-76.5 -143.5t-37 -173.5t-8.5 -199.5zM555 473q0 -106 82 -106q80 0 80 106v105h108v-97q0 -221 -192 -221 q-197 0 -197 221v465q0 219 197 219q193 0 192 -219v-98h-108v104q0 106 -80 107q-82 0 -82 -107v-479z" />
<glyph unicode="&#xaa;" horiz-adv-x="540" d="M383 696q-16 29 -21 101q-16 -49 -57 -82t-96 -33q-158 0 -158 201v6q0 74 31 125t75 76.5t88 46t74.5 44t30.5 56.5v2q0 106 -84 107q-82 0 -82 -107v-39h-116v31q0 225 204 225q203 0 203 -225v-316q0 -121 19 -219h-111zM51 449v126h434v-126h-434zM178 907v-10 q0 -61 20.5 -82.5t59.5 -21.5t65.5 29.5t26.5 74.5v199q-12 -8 -55 -33t-61.5 -39t-37 -46t-18.5 -71z" />
<glyph unicode="&#xab;" horiz-adv-x="782" d="M354 530l250 531h154l-250 -531l250 -530h-154zM25 530l249 531h154l-250 -531l250 -530h-154z" />
<glyph unicode="&#xac;" d="M659 782v-397h-135v264h-448v133h583z" />
<glyph unicode="&#xad;" horiz-adv-x="569" d="M502 598v-139h-434v139h434z" />
<glyph unicode="&#xae;" horiz-adv-x="1265" d="M76 717q0 127 12 227t48 199.5t95.5 165t162 106.5t241.5 41q170 0 284.5 -58.5t171 -168t78 -230t21.5 -282.5t-21.5 -283t-78 -230.5t-171 -168t-284.5 -58.5q-139 0 -241.5 41t-162 106.5t-95.5 165t-48 200t-12 227.5zM178 716.5q0 -114.5 8.5 -199.5t37 -173 t76.5 -143.5t133 -91t202 -35.5t201 35.5t132 91t75.5 143.5t35.5 173t8 199.5t-8 199.5t-35.5 173.5t-75.5 143.5t-132 91t-201 36t-202 -36t-133 -91t-76.5 -143.5t-37 -173.5t-8.5 -199.5zM430 1151h211q203 0 203 -199v-71q0 -139 -101 -172q100 -33 101 -172v-9 q0 -100 5 -148t10 -62.5t24 -38.5h-135q-23 57 -23 190v72q0 117 -100 116h-74v-378h-121v872zM551 1042v-278h84q90 0 90 98v92q0 88 -90 88h-84z" />
<glyph unicode="&#xaf;" horiz-adv-x="569" d="M512 1217h-455v106h455v-106z" />
<glyph unicode="&#xb0;" horiz-adv-x="563" d="M280.5 1413q100.5 0 170 -67.5t69.5 -168t-69.5 -169t-170 -68.5t-169 68.5t-68.5 169t68.5 168t169 67.5zM280.5 1298q-53.5 0 -88 -34.5t-34.5 -85.5q0 -53 34.5 -88t88 -35t89.5 34.5t36 88.5q0 51 -36 85.5t-89.5 34.5z" />
<glyph unicode="&#xb1;" d="M659 475v-133h-583v133h223v217h-223v135h223v263h135v-263h225v-135h-225v-217h225z" />
<glyph unicode="&#xb2;" horiz-adv-x="542" d="M188 1423v-106h-114v102q0 221 200 221q203 0 203 -217v-16q0 -84 -27.5 -151.5t-68.5 -113.5l-82 -91q-41 -45 -70.5 -104.5t-31.5 -129.5h274v-117h-397v101q0 84 28.5 153.5t69.5 118.5l83 95q42 46 70.5 106.5t28.5 132.5v16q0 106 -84 107q-82 -1 -82 -107z" />
<glyph unicode="&#xb3;" horiz-adv-x="542" d="M199 1122v109h69q47 0 65.5 21.5t18.5 74.5v96q0 109 -84 109q-86 0 -86 -109v-71h-114v69q0 219 202 219q205 0 205 -219v-69q0 -143 -102 -176q102 -35 102 -181v-98q0 -219 -205 -219q-203 0 -202 219v84h114v-84q0 -109 86 -109q84 0 84 109v123q0 55 -18.5 78.5 t-65.5 23.5h-69z" />
<glyph unicode="&#xb4;" horiz-adv-x="569" d="M137 1167l133 252h162l-190 -252h-105z" />
<glyph unicode="&#xb5;" horiz-adv-x="778" d="M96 -258v1319h156v-789q0 -90 29.5 -124.5t93 -34.5t107.5 52t44 126v770h156v-715q0 -244 20 -346h-149q-16 45 -21 133q-25 -70 -81 -113t-134 -43q-35 0 -65 7v-242h-156z" />
<glyph unicode="&#xb6;" horiz-adv-x="911" d="M807 1434v-1567h-133v1431h-152v-1431h-135v504h-12q-338 0 -338 327v408q0 328 338 328h432z" />
<glyph unicode="&#xb7;" horiz-adv-x="368" d="M106 584v264h154v-264h-154z" />
<glyph unicode="&#xb8;" horiz-adv-x="569" d="M358 -168q0 33 -24.5 45t-93.5 10v113h63v-72q90 0 132 -21.5t42 -78.5q0 -104 -201 -104q-92 0 -139 26.5t-41 93.5h97q-2 -39 17 -54t66 -15q82 0 82 57z" />
<glyph unicode="&#xb9;" horiz-adv-x="542" d="M164 1546h57q80 0 92 72h66v-918h-123v732h-92v114z" />
<glyph unicode="&#xba;" horiz-adv-x="540" d="M479 907q0 -225 -209 -225t-209 225v324q0 225 209 225t209 -225v-324zM61 449v126h418v-126h-418zM356 1239q0 106 -86 106.5t-86 -106.5v-340q0 -109 86 -108.5t86 108.5v340z" />
<glyph unicode="&#xbb;" horiz-adv-x="782" d="M508 1061l250 -531l-250 -530h-154l250 530l-250 531h154zM178 1061l250 -531l-250 -530h-153l249 530l-249 531h153z" />
<glyph unicode="&#xbc;" horiz-adv-x="1105" d="M203 0l583 1434h117l-584 -1434h-116zM82 1362h57q80 0 92 72h66v-918h-123v731h-92v115zM1008 918v-607h55v-110h-55v-201h-123v201h-269v94l244 623h148zM805 498l-72 -187h152v162q0 154 20 322q-37 -133 -100 -297z" />
<glyph unicode="&#xbd;" horiz-adv-x="1187" d="M203 0l583 1434h117l-584 -1434h-116zM82 1362h57q80 0 92 72h66v-918h-123v731h-92v115zM834 723v-107h-115v103q0 221 201 221q203 0 202 -217v-16q0 -84 -27.5 -152t-68.5 -114l-82 -91q-41 -45 -70.5 -104.5t-31.5 -128.5h274v-117h-397v100q0 84 28.5 154t70.5 119 l83 95q41 46 69.5 106.5t28.5 132.5v16q0 106 -84 106q-81 0 -81 -106z" />
<glyph unicode="&#xbe;" horiz-adv-x="1187" d="M285 0l583 1434h117l-584 -1434h-116zM1090 918v-607h55v-110h-55v-201h-123v201h-269v94l244 623h148zM887 498l-72 -187h152v162q0 154 20 322q-37 -133 -100 -297zM199 938v109h69q47 0 65.5 21.5t18.5 74.5v96q0 109 -84 109q-86 0 -86 -109v-72h-114v70 q0 219 202 219q205 0 205 -219v-70q0 -143 -102 -176q102 -35 102 -180v-98q0 -219 -205 -219q-203 0 -202 219v84h114v-84q0 -109 86 -109q84 0 84 109v123q0 55 -18.5 78.5t-65.5 23.5h-69z" />
<glyph unicode="&#xbf;" horiz-adv-x="649" d="M467 246h145v-221q0 -324 -286 -324q-289 0 -289 324v43q0 109 26.5 184.5t65.5 118.5l77 86q38 43 64.5 114.5t26.5 173.5v62h90v-102q0 -113 -20.5 -190t-48.5 -117l-56 -77q-29 -38 -49 -103.5t-20 -162.5v-51q0 -168 137 -168t137 168v242zM420 1157v-239h-156v239 h156z" />
<glyph unicode="&#xc0;" horiz-adv-x="759" d="M561 0l-41 231h-303l-39 -231h-158l248 1434h219l248 -1434h-174zM305 745l-63 -368h254l-64 368q-39 229 -63 486q-25 -257 -64 -486zM344 1761l135 -252h-104l-191 252h160z" />
<glyph unicode="&#xc1;" horiz-adv-x="759" d="M561 0l-41 231h-303l-39 -231h-158l248 1434h219l248 -1434h-174zM305 745l-63 -368h254l-64 368q-39 229 -63 486q-25 -257 -64 -486zM279 1509l133 252h161l-190 -252h-104z" />
<glyph unicode="&#xc2;" horiz-adv-x="759" d="M561 0l-41 231h-303l-39 -231h-158l248 1434h219l248 -1434h-174zM305 745l-63 -368h254l-64 368q-39 229 -63 486q-25 -257 -64 -486zM500 1509l-121 144l-121 -144h-108l167 252h123l170 -252h-110z" />
<glyph unicode="&#xc3;" horiz-adv-x="759" d="M561 0l-41 231h-303l-39 -231h-158l248 1434h219l248 -1434h-174zM305 745l-63 -368h254l-64 368q-39 229 -63 486q-25 -257 -64 -486zM537 1718h84q-6 -180 -144 -180q-47 0 -109.5 33t-91.5 33q-47 0 -55 -72h-82q2 180 142 180q45 0 108.5 -33.5t91.5 -33.5 q48 -1 56 73z" />
<glyph unicode="&#xc4;" horiz-adv-x="759" d="M561 0l-41 231h-303l-39 -231h-158l248 1434h219l248 -1434h-174zM305 745l-63 -368h254l-64 368q-39 229 -63 486q-25 -257 -64 -486zM315 1536h-145v182h145v-182zM590 1536h-148v182h148v-182z" />
<glyph unicode="&#xc5;" horiz-adv-x="759" d="M561 0l-41 231h-303l-39 -231h-158l248 1434h219l248 -1434h-174zM305 745l-63 -368h254l-64 368q-39 229 -63 486q-25 -257 -64 -486zM227 1661q0 63 45 107t107 44q63 0 108 -44t45 -107q0 -66 -45 -110t-108 -44q-61 0 -106.5 44t-45.5 110zM305 1661 q0 -33 20.5 -54.5t53.5 -21.5t53.5 20.5t20.5 55.5q0 33 -20.5 54.5t-53.5 21.5t-53.5 -21.5t-20.5 -54.5z" />
<glyph unicode="&#xc6;" horiz-adv-x="1009" d="M444 0v231h-219l-59 -231h-158l369 1434h571v-152h-330v-459h293v-151h-293v-520h340v-152h-514zM344 705l-82 -328h182v399q0 176 15 445q-66 -319 -115 -516z" />
<glyph unicode="&#xc7;" horiz-adv-x="776" d="M461 -168q0 33 -24.5 45t-94.5 10v93q-266 27 -266 346v782q0 348 315 348q317 0 318 -348v-193h-164v215q0 172 -147.5 172.5t-147.5 -172.5v-827q0 -172 147.5 -172t147.5 172v258h164v-235q0 -338 -303 -349v-49q90 0 132 -21.5t42 -78.5q0 -104 -201 -104 q-92 0 -139 26.5t-41 93.5h96q-2 -39 17.5 -54t66.5 -15q82 0 82 57z" />
<glyph unicode="&#xc8;" horiz-adv-x="669" d="M279 672v-520h339v-152h-514v1434h504v-152h-329v-459h292v-151h-292zM324 1761l135 -252h-105l-190 252h160z" />
<glyph unicode="&#xc9;" horiz-adv-x="669" d="M279 672v-520h339v-152h-514v1434h504v-152h-329v-459h292v-151h-292zM256 1509l133 252h162l-191 -252h-104z" />
<glyph unicode="&#xca;" horiz-adv-x="669" d="M279 672v-520h339v-152h-514v1434h504v-152h-329v-459h292v-151h-292zM477 1509l-121 144l-120 -144h-109l168 252h123l170 -252h-111z" />
<glyph unicode="&#xcb;" horiz-adv-x="669" d="M279 672v-520h339v-152h-514v1434h504v-152h-329v-459h292v-151h-292zM293 1536h-146v182h146v-182zM567 1536h-147v182h147v-182z" />
<glyph unicode="&#xcc;" horiz-adv-x="376" d="M100 0v1434h174v-1434h-174zM154 1761l135 -252h-105l-190 252h160z" />
<glyph unicode="&#xcd;" horiz-adv-x="376" d="M100 0v1434h174v-1434h-174zM88 1509l133 252h162l-190 -252h-105z" />
<glyph unicode="&#xce;" horiz-adv-x="376" d="M100 0v1434h174v-1434h-174zM309 1509l-121 144l-120 -144h-109l168 252h123l170 -252h-111z" />
<glyph unicode="&#xcf;" horiz-adv-x="376" d="M100 0v1434h174v-1434h-174zM125 1536h-145v182h145v-182zM399 1536h-147v182h147v-182z" />
<glyph unicode="&#xd0;" horiz-adv-x="825" d="M106 0v682h-73v131h73v621h285q344 0 344 -334v-766q0 -334 -344 -334h-285zM434 682h-153v-530h98q98 0 140 40.5t42 137.5v774q0 96 -42 137t-140 41h-98v-469h153v-131z" />
<glyph unicode="&#xd1;" horiz-adv-x="868" d="M618 1434h148v-1434h-195l-254 870q-14 53 -79 326q12 -205 12 -330v-866h-150v1434h234l217 -750l41 -162l41 -162q-14 233 -15 328v746zM590 1718h84q-6 -180 -144 -180q-47 0 -109.5 33t-90.5 33q-47 0 -56 -72h-81q2 180 141 180q45 0 108.5 -33.5t92.5 -33.5 q47 -1 55 73z" />
<glyph unicode="&#xd2;" horiz-adv-x="794" d="M76 326v782q0 348 321.5 348t321.5 -348v-782q0 -348 -321.5 -348t-321.5 348zM250 303q0 -172 147.5 -172t147.5 172v827q0 172 -147.5 172.5t-147.5 -172.5v-827zM362 1761l136 -252h-105l-190 252h159z" />
<glyph unicode="&#xd3;" horiz-adv-x="794" d="M76 326v782q0 348 321.5 348t321.5 -348v-782q0 -348 -321.5 -348t-321.5 348zM250 303q0 -172 147.5 -172t147.5 172v827q0 172 -147.5 172.5t-147.5 -172.5v-827zM295 1509l133 252h162l-191 -252h-104z" />
<glyph unicode="&#xd4;" horiz-adv-x="794" d="M76 326v782q0 348 321.5 348t321.5 -348v-782q0 -348 -321.5 -348t-321.5 348zM250 303q0 -172 147.5 -172t147.5 172v827q0 172 -147.5 172.5t-147.5 -172.5v-827zM518 1509l-121 144l-121 -144h-108l168 252h123l170 -252h-111z" />
<glyph unicode="&#xd5;" horiz-adv-x="794" d="M76 326v782q0 348 321.5 348t321.5 -348v-782q0 -348 -321.5 -348t-321.5 348zM250 303q0 -172 147.5 -172t147.5 172v827q0 172 -147.5 172.5t-147.5 -172.5v-827zM555 1718h84q-6 -180 -143 -180q-47 0 -109.5 33t-91.5 33q-47 0 -55 -72h-82q2 180 141 180 q45 0 108.5 -33.5t92.5 -33.5q47 -1 55 73z" />
<glyph unicode="&#xd6;" horiz-adv-x="794" d="M76 326v782q0 348 321.5 348t321.5 -348v-782q0 -348 -321.5 -348t-321.5 348zM250 303q0 -172 147.5 -172t147.5 172v827q0 172 -147.5 172.5t-147.5 -172.5v-827zM334 1536h-146v182h146v-182zM608 1536h-147v182h147v-182z" />
<glyph unicode="&#xd7;" d="M565 1010l94 -97l-200 -198l200 -199l-94 -94l-198 201l-197 -199l-96 92l200 199l-200 198l96 95l197 -203z" />
<glyph unicode="&#xd8;" horiz-adv-x="794" d="M76 326v782q0 348 321 348q98 0 164 -33l29 88l119 -38l-45 -138q55 -88 55 -227v-782q0 -348 -322 -349q-94 0 -166 31l-26 -86l-117 39l43 135q-55 85 -55 230zM250 1130v-679l258 809q-37 43 -111 43q-147 -1 -147 -173zM397 131q147 0 148 172v676l-260 -807 q34 -41 112 -41z" />
<glyph unicode="&#xd9;" horiz-adv-x="811" d="M264 295q0 -164 150 -164q147 0 147 164v1139h162v-1125q0 -332 -315 -332q-317 0 -318 332v1125h174v-1139zM371 1761l135 -252h-105l-190 252h160z" />
<glyph unicode="&#xda;" horiz-adv-x="811" d="M264 295q0 -164 150 -164q147 0 147 164v1139h162v-1125q0 -332 -315 -332q-317 0 -318 332v1125h174v-1139zM305 1509l133 252h162l-190 -252h-105z" />
<glyph unicode="&#xdb;" horiz-adv-x="811" d="M264 295q0 -164 150 -164q147 0 147 164v1139h162v-1125q0 -332 -315 -332q-317 0 -318 332v1125h174v-1139zM526 1509l-120 144l-121 -144h-109l168 252h123l170 -252h-111z" />
<glyph unicode="&#xdc;" horiz-adv-x="811" d="M264 295q0 -164 150 -164q147 0 147 164v1139h162v-1125q0 -332 -315 -332q-317 0 -318 332v1125h174v-1139zM342 1536h-145v182h145v-182zM616 1536h-147v182h147v-182z" />
<glyph unicode="&#xdd;" horiz-adv-x="765" d="M465 985l119 449h161l-272 -945v-489h-174v475l-274 959h178l121 -449q43 -158 71 -311q15 90 70 311zM281 1509l133 252h161l-190 -252h-104z" />
<glyph unicode="&#xde;" horiz-adv-x="763" d="M104 1434h175v-144h106q344 0 344 -334v-251q0 -334 -344 -334h-106v-371h-175v1434zM279 1139v-617h94q98 0 140 40t42 136v263q0 96 -42 137t-140 41h-94z" />
<glyph unicode="&#xdf;" horiz-adv-x="749" d="M682 1153v-57q0 -219 -166 -262q166 -43 166 -259v-344q0 -127 -56.5 -187t-181.5 -60q-61 0 -106 16v133q37 -12 74 -12q66 0 90 29.5t24 103.5v362q0 156 -157 156h-31v123h31q158 0 157 156v108q0 162 -137 162t-137 -162v-1159h-156v1153q0 160 74 231.5t219.5 71.5 t219 -71.5t73.5 -231.5z" />
<glyph unicode="&#xe0;" horiz-adv-x="731" d="M516 0q-16 45 -20 133q-25 -68 -81.5 -112t-133.5 -44q-221 0 -222 273v18q0 88 32 156t80 102.5t103.5 65.5t103.5 51.5t79.5 54t31.5 76.5v14q0 162 -129 162q-131 0 -131 -162v-75h-145v57q0 313 283 313q279 0 278 -313v-424q0 -244 21 -346h-150zM489 291v276 q-25 -16 -86 -49t-95 -54.5t-63.5 -69.5t-29.5 -113v-19q0 -86 29.5 -118.5t93 -32.5t107.5 53t44 127zM332 1419l135 -252h-105l-190 252h160z" />
<glyph unicode="&#xe1;" horiz-adv-x="731" d="M516 0q-16 45 -20 133q-25 -68 -81.5 -112t-133.5 -44q-221 0 -222 273v18q0 88 32 156t80 102.5t103.5 65.5t103.5 51.5t79.5 54t31.5 76.5v14q0 162 -129 162q-131 0 -131 -162v-75h-145v57q0 313 283 313q279 0 278 -313v-424q0 -244 21 -346h-150zM489 291v276 q-25 -16 -86 -49t-95 -54.5t-63.5 -69.5t-29.5 -113v-19q0 -86 29.5 -118.5t93 -32.5t107.5 53t44 127zM264 1167l133 252h162l-190 -252h-105z" />
<glyph unicode="&#xe2;" horiz-adv-x="731" d="M516 0q-16 45 -20 133q-25 -68 -81.5 -112t-133.5 -44q-221 0 -222 273v18q0 88 32 156t80 102.5t103.5 65.5t103.5 51.5t79.5 54t31.5 76.5v14q0 162 -129 162q-131 0 -131 -162v-75h-145v57q0 313 283 313q279 0 278 -313v-424q0 -244 21 -346h-150zM489 291v276 q-25 -16 -86 -49t-95 -54.5t-63.5 -69.5t-29.5 -113v-19q0 -86 29.5 -118.5t93 -32.5t107.5 53t44 127zM485 1167l-120 144l-121 -144h-109l168 252h123l170 -252h-111z" />
<glyph unicode="&#xe3;" horiz-adv-x="731" d="M516 0q-16 45 -20 133q-25 -68 -81.5 -112t-133.5 -44q-221 0 -222 273v18q0 88 32 156t80 102.5t103.5 65.5t103.5 51.5t79.5 54t31.5 76.5v14q0 162 -129 162q-131 0 -131 -162v-75h-145v57q0 313 283 313q279 0 278 -313v-424q0 -244 21 -346h-150zM489 291v276 q-25 -16 -86 -49t-95 -54.5t-63.5 -69.5t-29.5 -113v-19q0 -86 29.5 -118.5t93 -32.5t107.5 53t44 127zM522 1376h84q-6 -180 -143 -180q-47 0 -109.5 33t-91.5 33q-47 0 -55 -72h-82q2 180 141 180q45 0 108.5 -33.5t92.5 -33.5q47 -1 55 73z" />
<glyph unicode="&#xe4;" horiz-adv-x="731" d="M516 0q-16 45 -20 133q-25 -68 -81.5 -112t-133.5 -44q-221 0 -222 273v18q0 88 32 156t80 102.5t103.5 65.5t103.5 51.5t79.5 54t31.5 76.5v14q0 162 -129 162q-131 0 -131 -162v-75h-145v57q0 313 283 313q279 0 278 -313v-424q0 -244 21 -346h-150zM489 291v276 q-25 -16 -86 -49t-95 -54.5t-63.5 -69.5t-29.5 -113v-19q0 -86 29.5 -118.5t93 -32.5t107.5 53t44 127zM301 1194h-145v182h145v-182zM575 1194h-147v182h147v-182z" />
<glyph unicode="&#xe5;" horiz-adv-x="731" d="M516 0q-16 45 -20 133q-25 -68 -81.5 -112t-133.5 -44q-221 0 -222 273v18q0 88 32 156t80 102.5t103.5 65.5t103.5 51.5t79.5 54t31.5 76.5v14q0 162 -129 162q-131 0 -131 -162v-75h-145v57q0 313 283 313q279 0 278 -313v-424q0 -244 21 -346h-150zM489 291v276 q-25 -16 -86 -49t-95 -54.5t-63.5 -69.5t-29.5 -113v-19q0 -86 29.5 -118.5t93 -32.5t107.5 53t44 127zM213 1319q0 63 45 107t107 44q63 0 108 -44t45 -107q0 -66 -45 -110t-108 -44q-61 0 -106.5 44t-45.5 110zM291 1319q0 -33 20.5 -54.5t53 -21.5t53 20.5t20.5 55.5 q0 33 -20.5 54.5t-53 21.5t-53 -21.5t-20.5 -54.5z" />
<glyph unicode="&#xe6;" horiz-adv-x="1132" d="M337.5 111q63.5 0 107.5 53t44 127v276q-25 -16 -86 -49t-95 -54.5t-63.5 -69.5t-29.5 -113v-19q0 -86 29.5 -118.5t93 -32.5zM1063 487h-418v-213q0 -162 137.5 -161.5t137.5 161.5v86h143v-67q0 -315 -287 -316q-219 0 -272 185q-18 -80 -77.5 -132.5t-145.5 -52.5 q-221 0 -222 273v18q0 88 32 156t80 102.5t103.5 65.5t103.5 51.5t79.5 54t31.5 76.5v12q0 162 -131 162q-72 0 -100.5 -39t-28.5 -123v-73h-145v55q0 315 266 315q156 0 219 -108q63 109 224 108q270 0 270 -315v-281zM645 788v-170h275v170q0 160 -137.5 160t-137.5 -160z " />
<glyph unicode="&#xe7;" horiz-adv-x="714" d="M432 -168q0 33 -24.5 45t-94.5 10v95q-238 25 -237 311v475q0 315 286.5 315t286.5 -315v-86h-145v104q0 162 -135 162q-137 0 -138 -162v-512q0 -162 138 -161q135 0 135 161v125h145v-106q0 -305 -272 -316v-49q90 0 132 -21.5t42 -78.5q0 -104 -201 -104 q-92 0 -139 26.5t-41 93.5h96q-2 -39 17.5 -54t66.5 -15q82 0 82 57z" />
<glyph unicode="&#xe8;" horiz-adv-x="718" d="M649 487h-418v-213q0 -162 138 -161q135 0 135 161v86h145v-67q0 -315 -286.5 -315.5t-286.5 315.5v475q0 315 286.5 315t286.5 -315v-281zM231 786v-168h273v168q0 162 -135 162q-138 0 -138 -162zM330 1419l135 -252h-105l-190 252h160z" />
<glyph unicode="&#xe9;" horiz-adv-x="718" d="M649 487h-418v-213q0 -162 138 -161q135 0 135 161v86h145v-67q0 -315 -286.5 -315.5t-286.5 315.5v475q0 315 286.5 315t286.5 -315v-281zM231 786v-168h273v168q0 162 -135 162q-138 0 -138 -162zM264 1167l133 252h162l-190 -252h-105z" />
<glyph unicode="&#xea;" horiz-adv-x="718" d="M649 487h-418v-213q0 -162 138 -161q135 0 135 161v86h145v-67q0 -315 -286.5 -315.5t-286.5 315.5v475q0 315 286.5 315t286.5 -315v-281zM231 786v-168h273v168q0 162 -135 162q-138 0 -138 -162zM483 1167l-121 144l-120 -144h-109l168 252h123l170 -252h-111z" />
<glyph unicode="&#xeb;" horiz-adv-x="718" d="M649 487h-418v-213q0 -162 138 -161q135 0 135 161v86h145v-67q0 -315 -286.5 -315.5t-286.5 315.5v475q0 315 286.5 315t286.5 -315v-281zM231 786v-168h273v168q0 162 -135 162q-138 0 -138 -162zM299 1194h-145v182h145v-182zM573 1194h-147v182h147v-182z" />
<glyph unicode="&#xec;" horiz-adv-x="348" d="M141 1419l135 -252h-104l-190 252h159zM252 0h-156v1061h156v-1061z" />
<glyph unicode="&#xed;" horiz-adv-x="348" d="M76 1167l133 252h162l-191 -252h-104zM252 0h-156v1061h156v-1061z" />
<glyph unicode="&#xee;" horiz-adv-x="348" d="M252 0h-156v1061h156v-1061zM295 1167l-121 144l-121 -144h-108l168 252h123l170 -252h-111z" />
<glyph unicode="&#xef;" horiz-adv-x="348" d="M111 1194h-146v182h146v-182zM385 1194h-147v182h147v-182zM252 0h-156v1061h156v-1061z" />
<glyph unicode="&#xf0;" horiz-adv-x="745" d="M371 1141l-45 45l98 98q-41 23 -111 23h-63l26 127h58q117 0 194 -45l45 45h91l-86 -86q82 -88 81 -273v-782q0 -315 -290 -316q-293 0 -293 316v504q0 287 219 286q145 0 209 -135v129q0 115 -33 164zM504 274v496q0 74 -44 126t-107.5 52t-92.5 -34.5t-29 -125.5v-514 q0 -162 138 -161q135 -1 135 161z" />
<glyph unicode="&#xf1;" horiz-adv-x="768" d="M252 0h-156v1061h146v-141q23 72 81 117.5t138 45.5q221 0 221 -286v-797h-156v788q0 90 -29.5 125t-93 35t-107.5 -52t-44 -126v-770zM541 1376h84q-6 -180 -144 -180q-47 0 -109.5 33t-90.5 33q-47 0 -56 -72h-82q2 180 142 180q45 0 108.5 -33.5t91.5 -33.5 q48 -1 56 73z" />
<glyph unicode="&#xf2;" d="M659 293q0 -315 -290 -316q-293 0 -293 316v475q0 315 293 315q291 0 290 -315v-475zM504 786q0 162 -135 162q-137 0 -138 -162v-512q0 -162 138 -161q135 0 135 161v512zM332 1419l135 -252h-105l-190 252h160z" />
<glyph unicode="&#xf3;" d="M659 293q0 -315 -290 -316q-293 0 -293 316v475q0 315 293 315q291 0 290 -315v-475zM504 786q0 162 -135 162q-137 0 -138 -162v-512q0 -162 138 -161q135 0 135 161v512zM266 1167l133 252h162l-190 -252h-105z" />
<glyph unicode="&#xf4;" d="M659 293q0 -315 -290 -316q-293 0 -293 316v475q0 315 293 315q291 0 290 -315v-475zM504 786q0 162 -135 162q-137 0 -138 -162v-512q0 -162 138 -161q135 0 135 161v512zM487 1167l-120 144l-121 -144h-109l168 252h123l170 -252h-111z" />
<glyph unicode="&#xf5;" d="M659 293q0 -315 -290 -316q-293 0 -293 316v475q0 315 293 315q291 0 290 -315v-475zM504 786q0 162 -135 162q-137 0 -138 -162v-512q0 -162 138 -161q135 0 135 161v512zM524 1376h84q-6 -180 -143 -180q-47 0 -109.5 33t-91.5 33q-47 0 -55 -72h-82q2 180 141 180 q45 0 108.5 -33.5t92.5 -33.5q47 -1 55 73z" />
<glyph unicode="&#xf6;" d="M659 293q0 -315 -290 -316q-293 0 -293 316v475q0 315 293 315q291 0 290 -315v-475zM504 786q0 162 -135 162q-137 0 -138 -162v-512q0 -162 138 -161q135 0 135 161v512zM303 1194h-145v182h145v-182zM578 1194h-148v182h148v-182z" />
<glyph unicode="&#xf7;" d="M254 983q0 47 32.5 80t80.5 33q49 0 80.5 -33t31.5 -80q0 -49 -31.5 -82t-80.5 -33q-47 0 -80 33t-33 82zM254 438q0 49 32.5 81t80.5 32q49 0 80.5 -32t31.5 -81t-31.5 -81.5t-80.5 -32.5q-47 0 -80 32.5t-33 81.5zM659 782v-133h-583v133h583z" />
<glyph unicode="&#xf8;" d="M659 293q0 -315 -290 -316q-92 0 -154 31l-37 -92l-104 45l51 125q-49 78 -49 207v475q0 315 293 315q88 0 149 -30l39 92l102 -45l-51 -125q51 -78 51 -207v-475zM369 113q135 0 135 161v453l-234 -582q33 -32 99 -32zM231 786v-448l232 580q-31 31 -94 30 q-138 0 -138 -162z" />
<glyph unicode="&#xf9;" horiz-adv-x="768" d="M516 291v295v475h156v-715q0 -244 20 -346h-149q-16 45 -21 129q-27 -68 -83 -110t-132 -42q-221 0 -221 287v797h156v-789q0 -90 29.5 -124.5t93 -34.5t107.5 52t44 126zM348 1419l135 -252h-104l-191 252h160z" />
<glyph unicode="&#xfa;" horiz-adv-x="768" d="M516 291v295v475h156v-715q0 -244 20 -346h-149q-16 45 -21 129q-27 -68 -83 -110t-132 -42q-221 0 -221 287v797h156v-789q0 -90 29.5 -124.5t93 -34.5t107.5 52t44 126zM283 1167l133 252h162l-191 -252h-104z" />
<glyph unicode="&#xfb;" horiz-adv-x="768" d="M516 291v295v475h156v-715q0 -244 20 -346h-149q-16 45 -21 129q-27 -68 -83 -110t-132 -42q-221 0 -221 287v797h156v-789q0 -90 29.5 -124.5t93 -34.5t107.5 52t44 126zM504 1167l-121 144l-121 -144h-108l168 252h122l170 -252h-110z" />
<glyph unicode="&#xfc;" horiz-adv-x="768" d="M516 291v295v475h156v-715q0 -244 20 -346h-149q-16 45 -21 129q-27 -68 -83 -110t-132 -42q-221 0 -221 287v797h156v-789q0 -90 29.5 -124.5t93 -34.5t107.5 52t44 126zM319 1194h-145v182h145v-182zM594 1194h-148v182h148v-182z" />
<glyph unicode="&#xfd;" horiz-adv-x="690" d="M172 1061l127 -576q35 -162 53 -327q25 184 56 327l124 576h146l-256 -1143q-23 -100 -73 -147t-161 -47q-63 0 -100 10v125q31 -10 74 -10.5t64.5 17t31.5 62.5q4 29 -6 84l-238 1049h158zM238 1167l133 252h161l-190 -252h-104z" />
<glyph unicode="&#xfe;" horiz-adv-x="757" d="M252 770v-479q0 -74 44 -126t107.5 -52t93 34.5t29.5 124.5v516q0 90 -29.5 125t-93 35t-107.5 -52t-44 -126zM682 797v-533q0 -287 -221 -287q-72 0 -127 38t-82 100v-373h-156v1692h156v-490q61 139 209 139q221 1 221 -286z" />
<glyph unicode="&#xff;" horiz-adv-x="690" d="M172 1061l127 -576q35 -162 53 -327q25 184 56 327l124 576h146l-256 -1143q-23 -100 -73 -147t-161 -47q-63 0 -100 10v125q31 -10 74 -10.5t64.5 17t31.5 62.5q4 29 -6 84l-238 1049h158zM289 1194h-146v182h146v-182zM563 1194h-147v182h147v-182z" />
<glyph unicode="&#x152;" horiz-adv-x="1110" d="M719 672v-520h340v-152h-625q-344 0 -344 334v766q0 334 344 334h615v-152h-330v-459h293v-151h-293zM545 152v1130h-99q-100 0 -141 -41t-41 -137v-774q0 -96 41 -137t141 -41h99z" />
<glyph unicode="&#x153;" horiz-adv-x="1148" d="M1079 487h-417v-213q0 -162 137 -161.5t137 161.5v86h143v-67q0 -315 -270 -316q-168 0 -227 123q-59 -123 -228 -123q-279 0 -278 316v475q0 315 278 315q168 0 228 -125q59 125 227 125q270 0 270 -315v-281zM506 274v514q0 160 -137.5 160t-137.5 -160v-514 q0 -162 137.5 -162t137.5 162zM662 788v-170h274v170q0 160 -137 160t-137 -160z" />
<glyph unicode="&#x178;" horiz-adv-x="765" d="M465 985l119 449h161l-272 -945v-489h-174v475l-274 959h178l121 -449q43 -158 71 -311q15 90 70 311zM319 1536h-145v182h145v-182zM594 1536h-148v182h148v-182z" />
<glyph unicode="&#x2c6;" horiz-adv-x="569" d="M406 1167l-121 144l-121 -144h-109l168 252h123l170 -252h-110z" />
<glyph unicode="&#x2dc;" horiz-adv-x="569" d="M442 1376h84q-6 -180 -143 -180q-47 0 -109.5 33t-91.5 33q-47 0 -55 -72h-82q2 180 141 180q45 0 108.5 -33.5t92.5 -33.5q47 -1 55 73z" />
<glyph unicode="&#x2013;" horiz-adv-x="1024" d="M1024 600v-139h-1024v139h1024z" />
<glyph unicode="&#x2014;" horiz-adv-x="2048" d="M2048 600v-139h-2048v139h2048z" />
<glyph unicode="&#x2018;" horiz-adv-x="368" d="M262 1225v-264h-153v264l157 209l17 -13l-99 -196h78z" />
<glyph unicode="&#x2019;" horiz-adv-x="368" d="M106 1169v265h154v-265l-158 -208l-16 12l98 196h-78z" />
<glyph unicode="&#x201a;" horiz-adv-x="368" d="M106 0v264h154v-264l-158 -209l-16 12l98 197h-78z" />
<glyph unicode="&#x201c;" horiz-adv-x="677" d="M571 1225v-264h-153v264l157 209l17 -13l-98 -196h77zM260 1225v-264h-154v264l158 209l17 -13l-99 -196h78z" />
<glyph unicode="&#x201d;" horiz-adv-x="677" d="M416 1169v265h153v-265l-157 -208l-17 12l99 196h-78zM106 1169v265h154v-265l-158 -208l-16 12l98 196h-78z" />
<glyph unicode="&#x201e;" horiz-adv-x="677" d="M416 0v264h153v-264l-157 -209l-17 12l99 197h-78zM106 0v264h154v-264l-158 -209l-16 12l98 197h-78z" />
<glyph unicode="&#x2022;" horiz-adv-x="663" d="M90 716.5q0 100.5 69.5 171t170 70.5t171 -70.5t70.5 -171t-70.5 -170t-171 -69.5t-170 69.5t-69.5 170z" />
<glyph unicode="&#x2026;" horiz-adv-x="987" d="M106 0v264h154v-264h-154zM416 0v264h153v-264h-153zM727 0v264h154v-264h-154z" />
<glyph unicode="&#x2039;" horiz-adv-x="452" d="M25 530l249 531h154l-250 -531l250 -530h-154z" />
<glyph unicode="&#x203a;" horiz-adv-x="452" d="M178 1061l250 -531l-250 -530h-153l249 530l-249 531h153z" />
<glyph unicode="&#x20ac;" d="M0 567v78h74v143h-74v78h76v275q0 315 293 315q291 0 290 -315v-111h-155v129q0 162 -135 162q-137 0 -138 -162v-293h428v-78h-428v-143h428v-78h-428v-293q0 -162 138 -161q135 0 135 161v129h155v-110q0 -315 -290 -316q-293 0 -293 316v274h-76z" />
<glyph unicode="&#x2122;" horiz-adv-x="964" d="M788 686v334q0 57 4.5 163.5t4.5 129.5q-6 -55 -49 -293l-62 -334h-94l-60 334q-16 90 -49 293q0 -23 4.5 -129.5t4.5 -163.5v-334h-95v748h166l51 -283q18 -98 33 -248q10 119 33 248l49 283h168v-748h-109zM0 1333v101h330v-101h-109v-647h-112v647h-109z" />
<glyph unicode="&#xe000;" horiz-adv-x="1060" d="M0 1060h1060v-1060h-1060v1060z" />
<glyph unicode="&#xfb01;" horiz-adv-x="827" d="M283 1192v-131h206v-135h-206v-926h-154v926h-92v135h92v153q0 125 55.5 183.5t175.5 58.5q74 0 129 -22v-127q-43 18 -100 18t-81.5 -29.5t-24.5 -103.5zM729 0h-156v1061h156v-1061zM729 1241h-156v193h156v-193z" />
<glyph unicode="&#xfb02;" horiz-adv-x="827" d="M283 1192v-131h206v-135h-206v-926h-154v926h-92v135h92v153q0 125 55.5 183.5t175.5 58.5q74 0 129 -22v-127q-43 18 -100 18t-81.5 -29.5t-24.5 -103.5zM729 0h-156v1434h156v-1434z" />
<glyph unicode="&#xfb03;" horiz-adv-x="1302" d="M1206 0h-156v1061h156v-1061zM1206 1241h-156v193h156v-193zM760 1192v-131h206v-135h-206v-926h-154v926h-92v135h92v153q0 125 55.5 183.5t175.5 58.5q74 0 129 -22v-127q-43 18 -100 18t-81.5 -29.5t-24.5 -103.5zM283 1192v-131h206v-135h-206v-926h-154v926h-92v135 h92v153q0 125 55.5 183.5t175.5 58.5q74 0 129 -22v-127q-43 18 -100 18t-81.5 -29.5t-24.5 -103.5z" />
<glyph unicode="&#xfb04;" horiz-adv-x="1302" d="M1206 0h-156v1434h156v-1434zM760 1192v-131h206v-135h-206v-926h-154v926h-92v135h92v153q0 125 55.5 183.5t175.5 58.5q74 0 129 -22v-127q-43 18 -100 18t-81.5 -29.5t-24.5 -103.5zM283 1192v-131h206v-135h-206v-926h-154v926h-92v135h92v153q0 125 55.5 183.5 t175.5 58.5q74 0 129 -22v-127q-43 18 -100 18t-81.5 -29.5t-24.5 -103.5z" />
</font>
</defs>
</svg>
